<svg width="1577" height="86" viewBox="0 0 1577 86" fill="none" xmlns="http://www.w3.org/2000/svg">
<path fill-rule="evenodd" clip-rule="evenodd" d="M604.014 46.419C604.014 46.7559 604.014 47.123 603.952 47.4611C603.768 48.6225 602.756 49.6021 601.407 49.6021C599.658 49.6021 598.4 48.3481 598.4 46.1747C598.4 44.2769 599.351 42.6546 601.436 42.6546C602.756 42.6546 603.768 43.6041 603.982 44.7968C604.014 45.0121 604.014 45.2564 604.014 45.4718V46.419ZM604.014 31.8814V39.8397H603.952C603.154 38.7675 601.56 38.3715 599.812 38.3715C595.946 38.3715 592.45 41.3693 592.48 46.3889C592.48 51.4073 595.916 54.1631 599.443 54.1631C601.315 54.1631 603.339 53.5193 604.474 51.6226H604.536L604.75 53.7949H609.933C609.873 52.9994 609.811 51.0101 609.811 49.0509V31.8814H604.014Z" fill="white"/>
<path fill-rule="evenodd" clip-rule="evenodd" d="M620.936 47.827C620.936 48.1014 620.936 48.4083 620.875 48.6537C620.631 49.5407 619.71 50.2135 618.82 50.2135C617.748 50.2135 617.163 49.7248 617.163 48.868C617.163 47.6429 618.389 47.0003 620.936 47.0003V47.827ZM626.52 45.0121C626.52 40.971 624.309 38.3704 619.128 38.3704C615.753 38.3704 613.512 39.2573 612.531 39.7784L613.544 43.3887C614.526 42.8387 616.425 42.1949 618.115 42.1949C620.384 42.1949 620.752 42.8688 620.752 43.42V43.5126C615.047 43.5126 611.428 45.378 611.428 49.418C611.428 51.867 613.39 54.1631 616.703 54.1631C618.422 54.1631 620.017 53.7347 621.121 52.5096H621.243L621.549 53.7949H626.764C626.613 53.1221 626.52 51.6516 626.52 50.0618V45.0121Z" fill="white"/>
<path fill-rule="evenodd" clip-rule="evenodd" d="M525.102 43.6768C525.102 41.5335 525.041 39.7885 524.979 38.4419H529.795L530.011 40.3698H530.132C530.593 39.7283 531.912 38.0748 534.857 38.0748C536.819 38.0748 538.476 38.993 539.181 40.6164H539.242C539.918 39.7584 540.654 39.1459 541.482 38.7174C542.31 38.289 543.261 38.0748 544.335 38.0748C547.679 38.0748 549.826 40.3999 549.826 44.8081V53.5005H544.244V45.6649C544.244 43.7069 543.569 42.6659 542.25 42.6659C541.268 42.6659 540.654 43.3086 540.409 44.0438C540.286 44.4097 540.256 44.8995 540.256 45.2052V53.5005H534.673V45.6649C534.673 43.7069 533.999 42.6659 532.679 42.6659C531.513 42.6659 531.022 43.5529 530.838 44.0126C530.685 44.4097 530.685 44.8081 530.685 45.145V53.5005H525.102V43.6768Z" fill="white"/>
<path fill-rule="evenodd" clip-rule="evenodd" d="M559.709 49.8575C557.838 49.8575 556.979 48.1126 556.979 45.9716C556.979 44.0124 557.715 42.0833 559.739 42.0833C561.58 42.0833 562.378 43.8596 562.378 45.9716C562.378 48.4796 561.396 49.8575 559.739 49.8575H559.709ZM559.648 53.8662C564.495 53.8662 568.45 50.9298 568.45 45.7875C568.45 41.2577 564.986 38.0746 559.986 38.0746C554.187 38.0746 550.967 41.502 550.967 46.092C550.967 51.0513 554.923 53.8662 559.618 53.8662H559.648Z" fill="white"/>
<path fill-rule="evenodd" clip-rule="evenodd" d="M573.944 38.4422L575.845 44.9612C576.183 46.0936 576.398 47.196 576.582 48.2369H576.704C576.888 47.1346 577.073 46.1249 577.378 44.9612L579.097 38.4422H585.293L579.343 53.502H573.392L567.624 38.4422H573.944Z" fill="white"/>
<path fill-rule="evenodd" clip-rule="evenodd" d="M593.698 56.486C591.533 53.6711 590.244 50.1488 590.244 46.3277C590.244 42.1059 591.13 38.2628 593.719 35.3229L589.586 33.1055C586.703 36.7402 585.606 41.3336 585.606 46.3277C585.606 50.9524 587.082 55.2331 589.587 58.7266L593.698 56.486Z" fill="white"/>
<path fill-rule="evenodd" clip-rule="evenodd" d="M596.713 30.425C596.713 32.0715 595.376 33.4043 593.728 33.4043C592.078 33.4043 590.743 32.0715 590.743 30.425C590.743 28.7808 592.078 27.4469 593.728 27.4469C595.376 27.4469 596.713 28.7808 596.713 30.425Z" fill="white"/>
<path d="M413.372 39.4344C412.917 40.0641 412.252 40.344 411.378 40.344C410.503 40.344 409.838 40.0291 409.383 39.4344C408.929 38.8047 408.684 37.9301 408.684 36.8107C408.684 35.6912 408.929 34.7816 409.383 34.1869C409.838 33.5572 410.538 33.2773 411.378 33.2773C412.252 33.2773 412.917 33.5922 413.372 34.1869C413.826 34.8166 414.071 35.6912 414.071 36.8107C414.071 37.9651 413.861 38.8397 413.372 39.4344ZM415.75 32.5427C414.806 31.3533 413.337 30.7585 411.378 30.7585C409.418 30.7585 407.984 31.3533 407.005 32.5427C406.06 33.7321 405.57 35.1664 405.57 36.8107C405.57 38.4899 406.06 39.8892 407.005 41.0786C407.949 42.2681 409.418 42.8628 411.378 42.8628C413.337 42.8628 414.771 42.2681 415.75 41.0786C416.695 39.8892 417.185 38.4549 417.185 36.8107C417.185 35.1664 416.73 33.7671 415.75 32.5427Z" fill="white"/>
<path d="M389.753 38.0308C389.718 39.0453 389.438 39.71 388.913 40.0948C388.354 40.4796 387.759 40.6545 387.129 40.6545C386.709 40.6545 386.36 40.5496 386.08 40.3047C385.8 40.0948 385.66 39.71 385.66 39.1852C385.66 38.6255 385.905 38.2057 386.36 37.9258C386.639 37.7509 387.094 37.646 387.724 37.506L388.389 37.3661C388.738 37.2961 388.983 37.2262 389.193 37.1562C389.403 37.0862 389.578 36.9813 389.753 36.8763V38.0308ZM391.257 31.5589C390.278 31.0691 389.158 30.8242 387.934 30.8242C386.01 30.8242 384.645 31.314 383.876 32.3285C383.386 32.9582 383.106 33.7978 383.036 34.7773H385.905C385.975 34.3225 386.115 33.9727 386.325 33.7278C386.604 33.378 387.129 33.2031 387.829 33.2031C388.459 33.2031 388.948 33.273 389.263 33.4829C389.578 33.6579 389.753 33.9727 389.753 34.4625C389.753 34.8473 389.543 35.1272 389.123 35.3021C388.878 35.407 388.494 35.477 387.934 35.547L386.919 35.6869C385.765 35.8268 384.89 36.0717 384.296 36.4215C383.211 37.0512 382.651 38.0658 382.651 39.4651C382.651 40.5496 383.001 41.3892 383.666 41.9839C384.331 42.5786 385.205 42.8235 386.22 42.8585C392.727 43.1384 392.657 39.4301 392.727 38.6605V34.3925C392.727 32.9932 392.237 32.0486 391.257 31.5589Z" fill="white"/>
<path d="M376.44 33.3745C377.175 33.3745 377.735 33.6194 378.085 34.0742C378.33 34.424 378.469 34.8088 378.539 35.2286H381.758C381.583 33.6194 381.023 32.4649 380.044 31.8352C379.099 31.2055 377.875 30.8907 376.37 30.8907C374.586 30.8907 373.222 31.4154 372.207 32.4999C371.193 33.5844 370.703 35.0887 370.703 37.0477C370.703 38.7619 371.158 40.1962 372.067 41.2457C372.977 42.3302 374.411 42.855 376.335 42.855C378.26 42.855 379.729 42.1903 380.708 40.8959C381.338 40.0913 381.653 39.2517 381.758 38.3421H378.574C378.504 38.9368 378.33 39.4266 378.015 39.8114C377.7 40.1962 377.175 40.3712 376.44 40.3712C375.391 40.3712 374.691 39.9164 374.341 38.9368C374.132 38.4471 374.027 37.7474 374.027 36.9428C374.027 36.0682 374.132 35.3685 374.341 34.8438C374.656 33.8643 375.391 33.3745 376.44 33.3745Z" fill="white"/>
<path d="M369.816 30.8594C363.24 30.8594 363.624 36.7016 363.624 36.7016V42.6138H366.598V37.0514C366.598 36.1418 366.703 35.4772 366.948 35.0224C367.368 34.2527 368.172 33.8679 369.362 33.8679H369.711C369.851 33.8679 370.026 33.9029 370.201 33.9029V30.8594H369.816Z" fill="white"/>
<path d="M354.816 33.9564C355.235 33.5366 355.83 33.2917 356.6 33.2917C357.299 33.2917 357.894 33.5016 358.349 33.9214C358.804 34.3412 359.084 34.9359 359.154 35.7055H354.046C354.151 34.9709 354.396 34.3762 354.816 33.9564ZM358.839 39.5187C358.699 39.6936 358.594 39.8686 358.419 39.9735C357.999 40.3233 357.439 40.4283 356.74 40.4283C356.11 40.4283 355.585 40.3233 355.13 40.0435C354.396 39.5887 353.976 38.8191 353.906 37.6646H362.162C362.162 36.6851 362.127 35.9154 362.057 35.4257C361.917 34.5511 361.602 33.7465 361.148 33.0818C360.623 32.3121 359.958 31.7524 359.189 31.4026C358.384 31.0527 357.509 30.8778 356.53 30.8778C354.851 30.8778 353.521 31.4026 352.472 32.4521C351.422 33.5016 350.897 35.0059 350.897 36.9649C350.897 39.0639 351.492 40.5682 352.647 41.5128C353.801 42.4573 355.13 42.9121 356.635 42.9121C358.454 42.9121 359.888 42.3524 360.903 41.2679C361.462 40.6732 361.777 40.1134 361.952 39.5537L358.839 39.5187Z" fill="white"/>
<path d="M349.776 42.6187H347.047V35.7269C347.047 35.0972 346.837 33.5929 345.053 33.5929C343.864 33.5929 342.989 34.4675 342.989 35.7269V42.6187H340.26V35.7269C340.26 35.0972 340.085 33.5929 338.266 33.5929C337.042 33.5929 336.202 34.4675 336.202 35.7269V42.6187H333.474V35.7969C333.474 32.9632 335.363 30.8293 338.266 30.8293C339.701 30.8293 340.89 31.424 341.66 32.4035C342.464 31.424 343.654 30.8293 345.053 30.8293C348.027 30.8293 349.776 32.8933 349.776 35.7969V42.6187Z" fill="white"/>
<path d="M401.121 39.4758C400.702 40.1055 400.037 40.4203 399.197 40.4203C398.358 40.4203 397.728 40.1055 397.308 39.4758C396.888 38.8461 396.678 37.9365 396.678 36.887C396.678 35.9074 396.888 35.1028 397.273 34.4381C397.693 33.7735 398.323 33.4586 399.197 33.4586C399.757 33.4586 400.282 33.6335 400.702 33.9834C401.401 34.5781 401.751 35.6626 401.751 37.0269C401.786 38.0414 401.541 38.8461 401.121 39.4758ZM404.69 27.2666C404.69 27.2666 401.681 26.9517 401.681 29.3656V32.584C401.331 32.0593 400.911 31.6395 400.387 31.3246C399.862 31.0098 399.232 30.8698 398.568 30.8698C397.063 30.8698 395.874 31.4296 394.999 32.549C394.09 33.6685 393.67 35.2777 393.67 37.2018C393.67 38.881 394.125 40.2454 395.034 41.3299C395.944 42.4144 397.728 42.8691 399.302 42.8691C404.795 42.8691 404.76 38.1464 404.76 38.1464L404.69 27.2666Z" fill="white"/>
<path d="M387.092 51.3811C387.512 50.9613 388.107 50.7514 388.841 50.7514C389.541 50.7514 390.101 50.9613 390.59 51.3462C391.045 51.766 391.325 52.3607 391.36 53.1303H386.288C386.427 52.3957 386.672 51.8009 387.092 51.3811ZM391.08 56.9085C390.94 57.0834 390.835 57.2234 390.66 57.3633C390.241 57.7131 389.646 57.8181 388.981 57.8181C388.352 57.8181 387.862 57.7131 387.407 57.4333C386.672 56.9785 386.288 56.1739 386.218 55.0544H394.404C394.404 54.0749 394.369 53.3402 394.299 52.8155C394.159 51.9409 393.879 51.1712 393.389 50.4716C392.864 49.7019 392.235 49.1422 391.43 48.7924C390.66 48.4425 389.751 48.2676 388.771 48.2676C387.127 48.2676 385.763 48.7924 384.748 49.8419C383.734 50.8914 383.209 52.3607 383.209 54.3197C383.209 56.4187 383.769 57.888 384.923 58.8326C386.078 59.7422 387.407 60.2319 388.876 60.2319C390.695 60.2319 392.095 59.6722 393.109 58.5877C393.669 58.028 393.984 57.4333 394.124 56.8735H391.08V56.9085Z" fill="white"/>
<path d="M382.692 48.3295H382.552C375.975 48.3295 376.36 54.1718 376.36 54.1718V59.979H379.333V54.5216C379.333 53.612 379.438 52.9473 379.683 52.4926C380.103 51.7229 380.908 51.3381 382.097 51.3381H382.447C382.587 51.3381 382.762 51.3731 382.937 51.3731V48.3295H382.692Z" fill="white"/>
<path d="M356.171 46.7891V59.9429H358.97V44.6551C359.005 44.6551 356.171 44.5502 356.171 46.7891Z" fill="white"/>
<path d="M364.291 47.6111H361.29V44.6392H364.291V47.6111Z" fill="white"/>
<path d="M361.283 59.9776H364.29V48.6211H361.283V59.9776Z" fill="white"/>
<path d="M372.34 59.9492H369.333L365.381 48.6187H368.528L370.801 56.592L372.795 49.6329C373.039 48.9334 373.494 48.6187 374.159 48.6187H376.362L372.34 59.9492Z" fill="white"/>
<path d="M322.063 39.8911C322.063 31.955 312.215 25.5251 300.079 25.5251C287.943 25.5251 278.096 31.984 278.096 39.8911V40.731C278.096 49.1305 286.698 55.937 300.079 55.937C313.547 55.937 322.063 49.1305 322.063 40.731V39.8911Z" fill="#1A202D"/>
<path d="M321.222 39.889C321.222 47.3326 311.751 53.415 300.078 53.415C288.406 53.415 278.935 47.3616 278.935 39.889C278.935 32.4163 288.406 26.3629 300.078 26.3629C311.751 26.3629 321.222 32.4163 321.222 39.889Z" fill="#2F3643"/>
<path d="M293.054 35.6076C293.054 35.6366 292.823 35.8393 292.968 36.0131C293.315 36.4476 294.329 36.6793 295.372 36.4476C295.98 36.3028 296.791 35.6656 297.544 35.0573C298.384 34.3912 299.195 33.725 300.035 33.4643C300.904 33.1747 301.483 33.2905 301.859 33.4064C302.265 33.5222 302.757 33.7829 303.51 34.3622C304.959 35.4628 310.78 40.5315 311.765 41.4004C312.576 41.0239 316.168 39.4888 321.062 38.4171C320.628 35.8104 319.064 33.4354 316.66 31.4658C313.3 32.885 309.216 33.6091 305.219 31.6396C305.19 31.6396 303.018 30.5969 300.904 30.6548C297.718 30.7417 296.356 32.103 294.908 33.5512L293.054 35.6076Z" fill="#949EB0"/>
<path d="M311.566 42.0128C311.508 41.9549 304.731 36.0173 303.196 34.8877C302.298 34.2216 301.805 34.0478 301.284 33.9899C301.023 33.9609 300.647 34.0188 300.386 34.0767C299.662 34.2795 298.735 34.8877 297.924 35.5539C297.055 36.249 296.244 36.8862 295.52 37.06C294.564 37.2628 293.377 37.031 292.855 36.6545C292.653 36.5097 292.479 36.3359 292.421 36.1621C292.218 35.6987 292.595 35.3511 292.653 35.2643L294.506 33.2368C294.738 33.0051 294.941 32.8023 295.173 32.5996C294.564 32.6865 294.014 32.8313 293.464 32.9761C292.798 33.1789 292.131 33.3526 291.465 33.3526C291.176 33.3526 289.727 33.1209 289.438 33.034C287.758 32.5706 286.252 32.1072 284.05 31.0935C281.386 33.063 279.619 35.5539 279.098 38.2765C279.474 38.3923 280.082 38.5661 280.343 38.6241C286.368 39.9564 288.221 41.3466 288.569 41.6363C288.945 41.2308 289.467 40.9701 290.046 40.9701C290.712 40.9701 291.32 41.3177 291.668 41.8101C292.015 41.5494 292.479 41.3177 293.087 41.3177C293.377 41.3177 293.666 41.3756 293.956 41.4625C294.622 41.6942 294.999 42.1576 295.173 42.5631C295.404 42.4473 295.694 42.3893 296.012 42.3893C296.331 42.3893 296.679 42.4762 296.997 42.6211C298.098 43.0845 298.272 44.1851 298.185 44.9961H298.416C299.72 44.9961 300.792 46.0677 300.792 47.3711C300.792 47.7766 300.676 48.1531 300.502 48.5007C300.849 48.7034 301.776 49.1669 302.558 49.051C303.196 48.9641 303.427 48.7614 303.514 48.6166C303.572 48.5297 303.63 48.4428 303.572 48.3559L301.863 46.4732C301.863 46.4732 301.574 46.2126 301.689 46.0967C301.776 45.9809 301.95 46.1546 302.066 46.2415C302.935 46.9656 303.978 48.0373 303.978 48.0373C304.007 48.0373 304.064 48.1821 304.441 48.269C304.789 48.3269 305.368 48.298 305.773 47.9504C305.889 47.8635 305.976 47.7476 306.063 47.6607L306.034 47.6897C306.468 47.1394 305.976 46.5601 305.976 46.5601L304.006 44.3299C304.006 44.3299 303.717 44.0692 303.833 43.9534C303.92 43.8665 304.093 44.0113 304.238 44.0982C304.991 44.5906 305.86 45.4885 306.729 46.3284C306.903 46.4443 307.656 46.9077 308.641 46.2705C309.249 45.865 309.365 45.4016 309.336 45.025C309.307 44.5327 308.93 44.1851 308.93 44.1851L306.237 41.4625C306.237 41.4625 305.947 41.2308 306.063 41.086C306.15 40.9701 306.324 41.1439 306.439 41.2308C307.308 41.9549 309.625 44.0982 309.625 44.0982C309.654 44.1272 310.465 44.7064 311.45 44.0692C311.798 43.8375 312.029 43.49 312.058 43.1134C312.058 42.4183 311.566 42.0128 311.566 42.0128Z" fill="#949EB0"/>
<path d="M298.46 45.4591C298.054 45.4591 297.591 45.6909 297.533 45.6619C297.504 45.6329 297.562 45.4591 297.591 45.3722C297.62 45.2854 298.17 43.6055 296.838 43.0262C295.795 42.5917 295.187 43.0841 294.955 43.3158C294.897 43.3737 294.868 43.3737 294.868 43.2869C294.84 42.9972 294.724 42.1862 293.826 41.8966C292.551 41.5201 291.74 42.389 291.538 42.7076C291.451 41.9835 290.843 41.4332 290.089 41.4332C289.278 41.4332 288.612 42.0993 288.612 42.9103C288.612 43.7213 289.278 44.3875 290.089 44.3875C290.495 44.3875 290.843 44.2427 291.103 43.982V44.0399C291.045 44.3875 290.929 45.7198 292.32 46.2701C292.87 46.4729 293.362 46.3281 293.739 46.0384C293.855 45.9515 293.884 45.9805 293.855 46.0963C293.797 46.4439 293.855 47.168 294.897 47.5735C295.679 47.8921 296.143 47.5735 296.433 47.2839C296.577 47.168 296.606 47.197 296.606 47.3708C296.635 48.3845 297.475 49.1665 298.46 49.1665C299.474 49.1665 300.314 48.3266 300.314 47.3128C300.314 46.2701 299.474 45.4591 298.46 45.4591Z" fill="#949EB0"/>
<path d="M73.0156 54.082L63.6635 43.5046H73.0156V41.6637H63.6635L73.0156 31.0864H68.3492L54.3244 41.6637H51.4756L49.6064 43.5046H54.3244L68.3492 54.082H73.0156ZM78.8679 48.3442H91.4426V45.5606H82.2388V43.802H90.6176V41.3791H82.2388V39.6393H91.4554V36.8306H78.8872L78.8679 48.3442ZM109.006 48.3442H112.364V36.8306H106.634L102.69 44.0234L98.7966 36.8306H93.1248V48.3442H96.4763V40.1644H96.5601L101.072 48.3884H104.385L108.896 40.1644H109.032L109.006 48.3442ZM124.513 44.675C124.513 45.3519 124.178 45.7315 123.592 45.7315H117.41V43.6628H123.592C123.723 43.6609 123.853 43.6866 123.973 43.7382C124.093 43.7899 124.2 43.8664 124.288 43.9624C124.375 44.0584 124.441 44.1717 124.479 44.2946C124.518 44.4176 124.53 44.5473 124.513 44.675ZM124.152 40.3669C124.152 40.9995 123.849 41.3158 123.289 41.3158H117.41V39.4179H123.289C123.411 39.4181 123.532 39.4436 123.643 39.4927C123.755 39.5418 123.855 39.6135 123.936 39.703C124.018 39.7925 124.079 39.898 124.116 40.0123C124.154 40.1268 124.166 40.2475 124.152 40.3669ZM125.976 42.4861C126.484 42.3155 126.918 41.9829 127.21 41.5414C127.502 41.0999 127.635 40.5749 127.588 40.0506C127.588 37.887 126.402 36.8306 123.94 36.8306H114.078V48.3442H124.468C126.904 48.3442 127.987 47.4458 127.987 45.219C127.987 43.5805 127.388 42.7265 125.996 42.4861H125.976ZM160.594 48.3442H173.162V45.5606H163.945V43.802H172.324V41.3791H163.945V39.6393H173.162V36.8306H160.594V48.3442ZM140.24 40.9995C140.24 42.0939 139.962 42.5177 139.028 42.5177H132.647V39.7026H139.028C139.892 39.7026 140.24 40.1138 140.24 40.9678V40.9995ZM140.207 48.3125H143.553V45.9592C143.594 45.4478 143.438 44.9397 143.118 44.5348C142.797 44.1298 142.334 43.8571 141.819 43.7704C143.198 43.4224 143.642 42.4671 143.642 40.5693C143.642 37.577 142.47 36.7736 139.131 36.7736H129.283V48.2872H132.647V45.3456H138.693C139.801 45.3456 140.207 45.5543 140.207 46.5286V48.3125ZM154.323 43.6312H149.882L152.079 39.5571L154.323 43.6312ZM156.707 48.3125H160.574L154.368 36.7989H149.856L143.527 48.3125H147.394L148.522 46.4147H155.579L156.707 48.3125ZM185.756 40.9678C185.756 42.0623 185.485 42.4861 184.551 42.4861H178.163V39.671H184.551C185.408 39.671 185.756 40.0822 185.756 40.9362V40.9678ZM189.165 40.5377C189.165 37.5454 187.986 36.742 184.654 36.742H174.799V48.2556H178.163V45.3139H184.216C185.317 45.3139 185.73 45.5227 185.73 46.4969V48.2556H189.075V45.9023C189.116 45.39 188.961 44.8811 188.638 44.476C188.316 44.0708 187.852 43.7987 187.335 43.7134C188.714 43.3655 189.165 42.4102 189.165 40.5124" fill="white"/>
<path d="M838.901 38.6403C837.801 20.4965 822.682 6.01807 804.171 6.01807C785.661 6.01807 770.541 20.4965 769.441 38.6403C769.441 39.3733 769.533 40.1064 769.625 40.8395C770.358 46.8874 772.649 52.4771 776.131 57.1505C782.454 65.7642 792.625 71.354 804.171 71.354C788.043 71.354 774.848 58.8 773.748 43.0388C773.657 42.3056 773.657 41.5725 773.657 40.8395C773.657 40.1064 773.657 39.3733 773.748 38.6403C774.848 22.8789 788.043 10.325 804.171 10.325C815.717 10.325 825.889 15.9147 832.212 24.5284C835.694 29.2018 837.985 34.7916 838.718 40.8395C838.809 41.5725 838.901 42.3056 838.901 42.947C838.901 42.214 838.993 41.4809 838.993 40.7478C838.993 40.1064 838.993 39.3733 838.901 38.6403Z" fill="white"/>
<path d="M769.441 43.039C770.541 61.1828 785.661 75.6611 804.171 75.6611C822.681 75.6611 837.801 61.1828 838.901 43.039C838.901 42.3059 838.809 41.5727 838.717 40.8397C837.984 34.7918 835.693 29.202 832.211 24.5286C825.889 15.9149 815.717 10.3252 804.171 10.3252C820.299 10.3252 833.494 22.8792 834.594 38.6405C834.686 39.3735 834.686 40.1066 834.686 40.8397C834.686 41.5727 834.686 42.3059 834.594 43.039C833.494 58.8918 820.299 71.3543 804.171 71.3543C792.625 71.3543 782.453 65.7645 776.131 57.1508C772.648 52.4774 770.358 46.8877 769.625 40.8397C769.533 40.1066 769.441 39.3735 769.441 38.7321C769.441 39.4652 769.35 40.1982 769.35 40.9313C769.35 41.5727 769.35 42.3059 769.441 43.039Z" fill="white"/>
<path d="M799.863 12.7077V22.3292H806.553C808.202 22.3292 809.485 21.0464 809.485 19.3969C809.485 18.5722 809.118 17.8391 808.569 17.2893C808.935 16.831 809.21 16.1896 809.302 15.5482C809.302 13.9904 808.019 12.7075 806.461 12.7075L799.863 12.7077ZM802.062 14.7236H806.094C806.203 14.7231 806.31 14.7442 806.411 14.7854C806.511 14.8267 806.602 14.8874 806.679 14.9641C806.755 15.0408 806.816 15.1319 806.857 15.2321C806.899 15.3324 806.92 15.4399 806.919 15.5483C806.92 15.6567 806.899 15.7642 806.857 15.8645C806.816 15.9647 806.755 16.0558 806.679 16.1325C806.602 16.2092 806.511 16.2699 806.411 16.3112C806.31 16.3525 806.203 16.3735 806.094 16.373H802.062V14.7236ZM802.062 18.3889H806.186C806.736 18.3889 807.102 18.7555 807.102 19.3054C807.102 19.8551 806.736 20.2217 806.186 20.2217H802.063L802.062 18.3889Z" fill="white"/>
<path d="M803.072 24.1621L798.307 33.7838H800.781L801.514 32.1344H806.92L807.653 33.7838H810.127L805.271 24.1621H803.072ZM804.171 26.6364L805.821 30.1185H802.522L804.171 26.6364Z" fill="white"/>
<path d="M807.47 35.8916H810.219L805.362 42.1227V45.5133H803.072V42.1227L798.215 35.8916H800.964L804.263 40.2901L807.47 35.8916Z" fill="white"/>
<path d="M823.23 35.8916V45.5133H825.521V41.848H827.262L830.011 45.5133H832.76L829.92 41.7563C831.111 41.3897 832.027 40.2901 832.027 38.9157C832.027 37.2663 830.745 35.8917 829.095 35.8917L823.23 35.8916ZM825.613 37.9076H828.912C829.37 37.9076 829.828 38.3658 829.828 38.824C829.828 39.2821 829.462 39.7403 828.912 39.7403H825.613V37.9076Z" fill="white"/>
<path d="M776.406 35.8916V45.5133H783.096C784.745 45.5133 786.028 44.2305 786.028 42.581C786.028 41.7563 785.661 41.0232 785.112 40.4734C785.478 40.0152 785.753 39.3738 785.845 38.7324C785.845 37.1745 784.562 35.8916 783.004 35.8916H776.406ZM778.605 37.9077H782.637C782.746 37.9072 782.853 37.9283 782.953 37.9695C783.054 38.0108 783.145 38.0716 783.222 38.1482C783.298 38.2249 783.359 38.316 783.4 38.4162C783.441 38.5165 783.463 38.6239 783.462 38.7324C783.463 38.8408 783.441 38.9482 783.4 39.0485C783.359 39.1487 783.298 39.2398 783.222 39.3165C783.145 39.3932 783.054 39.4539 782.953 39.4952C782.853 39.5365 782.746 39.5575 782.637 39.5571H778.605L778.605 37.9077ZM778.605 41.573H782.729C783.279 41.573 783.645 41.9395 783.645 42.4893C783.645 43.0392 783.279 43.4058 782.729 43.4058H778.605L778.605 41.573Z" fill="white"/>
<path d="M792.167 35.8916L787.402 45.5133H789.876L790.61 43.8639H796.016L796.749 45.5133H799.223L794.366 35.8916H792.167ZM793.267 38.3658L794.916 41.8479H791.618L793.267 38.3658Z" fill="white"/>
<path d="M820.207 35.8916V37.9598H813.793V39.5784H820.024V41.6466H813.793V43.445H820.207V45.5133H811.502V35.8916H820.207Z" fill="white"/>
<path d="M799.771 59.5332V69.1549H802.062V65.4896H803.803L806.553 69.1549H809.302L806.461 65.3979C807.652 65.0313 808.569 63.9318 808.569 62.5573C808.569 60.9078 807.286 59.5333 805.636 59.5333L799.771 59.5332ZM802.154 61.5491H805.453C805.911 61.5491 806.369 62.0074 806.369 62.4656C806.369 62.9238 806.003 63.382 805.453 63.382H802.154L802.154 61.5491Z" fill="white"/>
<path d="M808.569 47.5991V49.6673H802.154V51.2859H808.385V53.3541H802.154V55.1525H808.569V57.2208H799.863V47.5991H808.569Z" fill="white"/>
<path d="M1508.5 28.4608C1510.06 26.0479 1511.62 23.635 1513.18 21.2254C1513.84 20.2036 1514.53 19.1954 1515.18 18.1686C1515.28 18.0042 1515.3 17.7822 1515.35 17.5857L1515.37 17.5704C1515.59 17.3349 1515.85 17.1231 1516.04 16.8604C1516.72 15.8946 1517.38 14.9101 1518.05 13.9341C1518.14 14.1103 1518.34 14.2984 1518.32 14.4611C1518.22 15.2964 1518.08 16.1301 1517.93 16.9587C1516.84 22.6522 1515.75 28.3439 1514.67 34.039C1514.62 34.2712 1514.66 34.5186 1514.66 34.9066C1515.73 34.8168 1516.69 34.7355 1517.66 34.6541C1517.94 34.727 1518.22 34.8558 1518.5 34.8642C1520.03 34.9134 1521.56 34.932 1523.09 34.9608C1523.1 35.0964 1523.11 35.2336 1523.12 35.3692C1522.95 35.4624 1522.72 35.5132 1522.62 35.6539C1521.51 37.3043 1520.42 38.9632 1519.34 40.6356C1519.22 40.8186 1519.26 41.1016 1519.23 41.3388C1519.03 41.493 1518.76 41.6083 1518.63 41.8082C1516.93 44.4177 1515.25 47.0458 1513.54 49.6553C1511.96 52.0716 1510.34 54.4625 1508.77 56.8806C1508.06 57.9566 1507.45 59.0902 1506.74 60.1645C1505.7 61.7505 1504.61 63.3077 1503.54 64.8734C1503.51 64.9225 1503.39 64.9141 1503.1 64.9852C1503.96 57.5651 1504.82 50.2348 1505.68 42.8605C1505.33 42.7808 1505.04 42.7148 1504.74 42.6487C1505.79 39.9409 1506.83 37.2331 1507.93 34.4017C1506.87 34.3525 1505.89 34.3068 1504.9 34.261C1505.18 33.7849 1505.45 33.3002 1505.74 32.8309C1506.64 31.3719 1507.56 29.9181 1508.47 28.4625H1508.5V28.4608Z" fill="#2F3643"/>
<path d="M1519.23 41.3388C1519.26 41.1016 1519.22 40.8186 1519.34 40.6356C1520.42 38.9632 1521.51 37.3043 1522.62 35.6539C1522.72 35.5115 1522.95 35.4607 1523.12 35.3692C1523.1 38.2752 1524.98 40.6559 1527.79 41.271C1530.5 41.8624 1533.42 40.3221 1534.48 37.6754C1535.39 35.3929 1534.96 33.2951 1533.31 31.5024C1531.72 29.7774 1529.68 29.2437 1527.46 29.8452C1524.9 30.5382 1523.47 32.3344 1523.09 34.9608C1521.56 34.932 1520.03 34.9117 1518.5 34.8642C1518.22 34.8558 1517.94 34.727 1517.66 34.6541C1517.88 31.56 1519.21 29.0149 1521.46 26.9188C1523.77 25.0973 1526.35 24.0433 1529.33 24.1653C1534.57 24.3822 1538.87 27.7966 1540.07 32.8376C1540.84 36.0538 1540.24 39.0869 1538.44 41.8895C1537.11 43.9568 1535.86 46.0732 1534.56 48.1642C1534.25 48.6657 1533.92 49.1554 1533.6 49.6502C1532.74 50.999 1531.86 52.3343 1531.03 53.7068C1530.73 54.2134 1530.38 54.3727 1529.81 54.3609C1528.01 54.3253 1526.22 54.3473 1524.2 54.3473C1525.8 51.7768 1527.3 49.3706 1528.86 46.8645C1524.62 46.6341 1521.44 44.8142 1519.23 41.3371L1519.23 41.3388Z" fill="white"/>
<path d="M1504.9 34.2578C1505.89 34.3035 1506.87 34.3493 1507.93 34.3984C1506.83 37.2316 1505.79 39.9394 1504.74 42.6454C1503.49 45.8361 1502.24 49.0268 1500.99 52.2175C1500.1 54.4729 1499.3 56.7604 1498.33 58.9751C1497.59 60.6594 1496.36 61.8693 1494.33 61.8642C1492.49 61.8591 1490.66 61.8727 1488.83 61.8693C1488.73 61.8693 1488.62 61.7896 1488.52 61.7473L1488.49 59.5326C1488.49 58.8311 1488.49 58.1296 1488.49 57.2654C1489.47 57.2654 1490.39 57.2671 1491.3 57.2654C1493.1 57.2603 1494.53 55.6946 1494.18 53.9137C1493.99 52.9309 1493.48 52.0091 1493.12 51.0585C1491.87 47.8238 1490.62 44.5941 1489.39 41.3542C1488.56 39.1582 1487.76 36.9486 1486.95 34.7424C1486.9 34.617 1486.9 34.4713 1486.88 34.3357C1488.8 34.3391 1490.71 34.3425 1492.63 34.3459C1494.19 38.9295 1495.76 43.5147 1497.32 48.0983C1497.39 48.0932 1497.46 48.0898 1497.54 48.0847C1498.73 44.4467 1499.93 40.8086 1501.12 37.1689C1501.15 37.0537 1501.17 36.9368 1501.2 36.8215C1501.27 36.6758 1501.33 36.5284 1501.39 36.3827L1501.39 36.3708C1501.41 36.2962 1501.42 36.2234 1501.44 36.1488C1501.47 36.0455 1501.51 35.9421 1501.54 35.8404C1501.57 35.7743 1501.6 35.7083 1501.62 35.6422C1501.68 35.4439 1501.74 35.244 1501.8 35.0457C1501.85 34.8475 1501.91 34.6509 1501.96 34.4526C1502.94 34.3866 1503.92 34.3205 1504.9 34.2544V34.2578Z" fill="white"/>
<path d="M1468.85 39.3716C1469.03 38.9208 1469.21 38.4684 1469.39 38.0177C1469.42 37.9635 1469.44 37.9092 1469.47 37.8533C1469.54 37.8381 1469.56 37.7974 1469.55 37.7279C1472.54 32.9054 1482.77 32.9681 1485.49 37.0434C1485.81 37.7618 1486.13 38.482 1486.44 39.2004C1486.51 41.3846 1486.57 43.5705 1486.63 45.7546C1486.66 46.6731 1486.69 47.5915 1486.72 48.5099C1486.84 48.7573 1486.95 49.0047 1487.07 49.2537C1487.51 49.3842 1487.95 49.5147 1488.48 49.6706V54.0898C1486.78 54.183 1485.12 54.2372 1483.48 53.7831C1483.21 53.5645 1482.94 53.3476 1482.68 53.129C1482.62 53.0578 1482.56 52.9867 1482.5 52.9155C1482.45 52.8359 1482.41 52.7579 1482.37 52.6783V52.6664C1482.25 52.2072 1482.14 51.748 1482.01 51.2295C1481.9 51.3125 1481.76 51.3854 1481.67 51.4989C1479.91 53.8068 1477.5 54.5964 1474.73 54.2796C1473.46 54.1355 1472.14 53.8492 1471.02 53.2764C1467.1 51.2685 1467.63 45.8767 1470.29 43.8331C1470.52 43.662 1470.74 43.4857 1470.96 43.3129C1472.37 42.8927 1473.77 42.2962 1475.22 42.098C1476.96 41.8591 1478.76 41.9726 1480.53 41.8896C1480.78 41.8777 1481.2 41.6455 1481.23 41.4592C1481.52 39.9477 1480.49 38.4565 1478.96 38.2227C1478.17 38.1024 1477.34 38.1193 1476.54 38.2125C1475.41 38.3447 1474.55 38.909 1474.07 40.007C1473.97 40.2324 1473.59 40.4611 1473.33 40.4696C1471.81 40.5204 1470.28 40.5052 1468.76 40.5136L1468.78 40.5238C1468.78 40.4594 1468.75 40.4154 1468.69 40.3916C1468.71 40.1646 1468.72 39.9358 1468.73 39.7088C1468.77 39.5952 1468.81 39.4817 1468.85 39.3699L1468.85 39.3716ZM1476.71 50.3789C1479.31 50.3704 1481.02 48.8098 1481.24 46.263C1481.28 45.8038 1481.18 45.5683 1480.68 45.5801C1479.28 45.6106 1477.87 45.5666 1476.47 45.6564C1474.7 45.7716 1473.65 46.8052 1473.71 48.2218C1473.77 49.5757 1474.9 50.3857 1476.71 50.3789Z" fill="white"/>
<path d="M1461.29 54.4152C1461.27 51.033 1461.25 47.6526 1461.24 44.2704C1461.24 38.9446 1461.24 33.6189 1461.24 28.2915C1461.24 27.9831 1461.28 27.6747 1461.3 27.368L1461.29 27.3714C1462.86 27.3731 1464.42 27.4053 1465.98 27.3612C1466.53 27.346 1466.74 27.5324 1466.73 28.0441C1466.73 28.3931 1466.73 28.7422 1466.73 29.0913C1466.73 29.3454 1466.74 29.5996 1466.74 29.8555C1466.75 30.0995 1466.76 30.3435 1466.77 30.5875C1466.76 30.6892 1466.75 30.7925 1466.74 30.8942C1466.74 31.1806 1466.74 31.4686 1466.74 31.755C1466.76 31.9668 1466.77 32.1803 1466.78 32.3921L1466.74 32.4057V32.4531C1466.74 32.6581 1466.74 32.8632 1466.73 33.0699C1466.74 33.2987 1466.74 33.5274 1466.74 33.7562C1466.74 34.378 1466.74 34.9999 1466.74 35.6235C1466.76 35.981 1466.78 36.3385 1466.8 36.6961C1466.8 36.957 1466.8 37.218 1466.8 37.4772C1466.78 37.6992 1466.76 37.9212 1466.73 38.1432C1466.72 42.0083 1466.7 45.8751 1466.69 49.7402C1466.68 52.1039 1465.73 53.468 1463.48 54.2983C1463.33 54.3423 1463.19 54.3847 1463.05 54.4288C1462.62 54.4406 1462.2 54.4525 1461.78 54.4644C1461.62 54.4491 1461.45 54.4338 1461.29 54.4186L1461.29 54.4152Z" fill="white"/>
<path d="M1439.03 50.3907C1439.03 50.2178 1439.03 50.045 1439.03 49.8739C1439.03 49.8196 1439.03 49.7671 1439.03 49.7129C1439.03 49.4841 1439.03 49.2537 1439.03 49.0249C1439.03 48.747 1439.03 48.4691 1439.03 48.1896C1439.03 47.9608 1439.03 47.7304 1439.03 47.5016C1439.03 47.4474 1439.03 47.3948 1439.03 47.3406C1439.03 46.773 1439.03 46.2036 1439.03 45.636V45.1395C1439.03 45.0226 1439.03 44.9057 1439.04 44.7887C1439.03 44.5108 1439.03 44.2313 1439.03 43.9534C1439.03 43.7805 1439.03 43.6077 1439.04 43.4332C1439.03 43.0977 1439.03 42.7621 1439.03 42.4283C1439.03 42.1979 1439.03 41.9674 1439.03 41.7387C1439.03 41.5167 1439.03 41.2947 1439.03 41.0728C1439.03 40.844 1439.03 40.6136 1439.03 40.3848C1439.03 40.3306 1439.03 40.278 1439.03 40.2238C1439.03 40.051 1439.03 39.8782 1439.03 39.7053V36.8366C1439.03 36.7196 1439.03 36.6027 1439.03 36.4875C1439.03 36.4333 1439.03 36.3808 1439.03 36.3265C1439.03 36.1537 1439.03 35.9809 1439.03 35.8097C1439.03 35.7555 1439.03 35.703 1439.03 35.6487C1439.03 35.3641 1439.03 35.0777 1439.03 34.793C1439.03 34.7388 1439.03 34.6863 1439.03 34.6321C1439.18 34.5338 1439.33 34.3508 1439.48 34.3474C1441.08 34.327 1442.69 34.3338 1444.41 34.3338V36.5739C1445.54 35.8877 1446.56 35.0387 1447.72 34.6066C1452.5 32.841 1457.8 35.6098 1459.14 40.5153C1460.1 44.0279 1459.97 47.4643 1457.89 50.5822C1457.26 51.5192 1456.3 52.2343 1455.5 53.0527L1455.22 53.2238L1455.18 53.2425C1455.09 53.2984 1455 53.3526 1454.92 53.4085L1454.86 53.3967L1454.84 53.4441C1454.63 53.5424 1454.43 53.6407 1454.22 53.7407C1454.14 53.7593 1454.07 53.7762 1453.99 53.7949C1453.77 53.8745 1453.56 53.9559 1453.34 54.0355C1453.27 54.0575 1453.21 54.0779 1453.14 54.0999C1453.09 54.1202 1453.04 54.1406 1452.98 54.1609C1452.75 54.1982 1452.53 54.2371 1452.3 54.2744C1451.11 54.2744 1449.92 54.2744 1448.73 54.2744C1447.21 54.0711 1445.95 53.3594 1444.93 52.219C1444.82 52.1174 1444.71 52.0157 1444.6 51.914C1444.58 52.0258 1444.56 52.1394 1444.55 52.2512C1444.53 53.8559 1444.51 55.4622 1444.51 57.0669C1444.5 59.8272 1443.49 61.1489 1440.83 61.8301C1440.75 61.8504 1440.68 61.9013 1440.6 61.9368C1440.55 61.9385 1440.49 61.9419 1440.44 61.9436C1440.15 61.9436 1439.87 61.947 1439.58 61.9487C1439.42 61.9182 1439.26 61.8877 1439.1 61.8572C1439.07 59.3883 1439.05 56.9195 1439.03 54.4506C1439.03 54.3964 1439.03 54.3439 1439.03 54.2897C1439.03 53.6085 1439.03 52.9273 1439.03 52.2478C1439.03 52.1936 1439.03 52.1411 1439.03 52.0868C1439.03 51.5751 1439.03 51.0634 1439.03 50.5533C1439.03 50.4991 1439.03 50.4466 1439.03 50.3924V50.3907ZM1444.32 44.2313C1444.54 45.1802 1444.67 46.168 1445.02 47.0712C1446.25 50.267 1450.5 50.9685 1452.75 48.3624C1454.17 46.712 1454.35 44.7311 1453.98 42.7028C1453.63 40.7762 1452.59 39.2868 1450.62 38.7564C1448.59 38.2125 1446.81 38.7124 1445.52 40.4543C1444.7 41.5591 1444.44 42.8452 1444.32 44.2313H1444.32Z" fill="white"/>
<path d="M1052.48 28.4936C1052.48 27.4943 1053.29 26.6867 1054.29 26.6849C1055.29 26.6831 1056.09 27.489 1056.09 28.4849V35.9446C1056.09 36.9429 1055.29 37.7522 1054.29 37.7522C1053.29 37.7522 1052.48 36.9429 1052.48 35.9446C1052.48 33.4633 1052.47 30.9788 1052.48 28.4936ZM1061.72 40.4896C1061.02 39.7591 1061.03 38.6042 1061.73 37.8766C1064.16 35.3566 1066.57 32.8191 1069 30.2986C1069.74 29.5285 1070.98 29.5322 1071.73 30.302C1072.41 31.0079 1072.4 32.1183 1071.72 32.8283C1069.28 35.3851 1066.83 37.9233 1064.39 40.4748C1063.66 41.238 1062.45 41.2523 1061.72 40.4896ZM997.083 37.1468C997.991 36.9305 998.925 36.8095 999.868 36.8441C1002.97 36.7662 1005.99 38.4008 1007.91 40.909C1008.25 41.3505 1008.56 41.8208 1008.83 42.3137C1009.53 43.5881 1008.46 44.9702 1007.01 44.9672C1006.15 44.9655 1005.39 44.4534 1004.89 43.7536C1004.32 42.9636 1003.61 42.2866 1002.77 41.8258C1002.07 41.4366 1001.31 41.1685 1000.53 41.0733C999.808 41.056 999.064 40.9955 998.346 41.1858C997.144 41.4539 996.028 42.1112 995.18 43.0366C994.073 44.1264 993.33 45.6486 993.26 47.2486C993.122 48.7708 993.399 50.3622 994.229 51.6423C995.025 52.8704 996.158 53.891 997.498 54.4185C999.738 55.2834 1002.45 54.7645 1004.18 53.0001C1004.43 52.7297 1004.67 52.4424 1004.89 52.1399C1005.4 51.4344 1006.18 50.9117 1007.05 50.91C1008.5 50.9071 1009.55 52.2694 1008.86 53.5388C1008.54 54.111 1008.18 54.6542 1007.78 55.1623C1007.12 55.8802 1006.47 56.6413 1005.65 57.1775C1002 59.8068 996.677 59.6597 993.243 56.6845C992.171 55.7332 991.193 54.6434 990.527 53.3461C989.291 51.0541 988.979 48.2951 989.42 45.7264C989.792 43.5469 990.882 41.549 992.395 40.0095C993.658 38.643 995.284 37.5965 997.083 37.1468ZM1012.03 38.8722C1012.03 37.7521 1012.94 36.8441 1014.06 36.8441C1015.18 36.8441 1016.08 37.7521 1016.08 38.8722V57.1127C1016.08 58.2328 1015.18 59.1408 1014.06 59.1408C1012.94 59.1408 1012.03 58.2328 1012.03 57.1127V38.8722ZM1024.28 41.2896C1025.05 41.1252 1025.84 41.2204 1026.62 41.1944C1027.52 41.2723 1028.43 41.4107 1029.28 41.7307C1030.14 42.042 1031.03 42.4312 1031.63 43.175C1032.34 44.0486 1032.59 45.2162 1032.64 46.3405V57.03C1032.64 58.2032 1031.68 59.1595 1030.51 59.1626C1030.02 59.164 1029.54 59.1628 1029.05 59.1539C1028.75 59.1484 1028.52 58.9108 1028.52 58.6127C1028.52 58.1324 1027.94 57.8651 1027.53 58.1059C1026.51 58.6944 1025.34 58.9923 1024.2 59.0889C1023.22 59.2619 1022.21 59.1062 1021.28 58.7776C1020.08 58.3624 1019.09 57.3246 1018.74 56.0532C1018.36 54.6953 1018.44 53.2163 1018.89 51.8931C1019.37 50.5438 1020.55 49.5838 1021.84 49.1427C1023.16 48.6586 1024.55 48.5007 1025.93 48.2756C1026.62 48.1631 1027.4 48.1772 1027.93 47.7272C1028.12 47.5691 1028.27 47.365 1028.36 47.1275C1028.51 46.4962 1028.37 45.7005 1027.85 45.3026C1027.26 44.8961 1026.54 44.8183 1025.86 44.7924C1025.24 44.8097 1024.6 44.8183 1024.06 45.1556C1023.87 45.2668 1023.71 45.4077 1023.57 45.5696C1022.92 46.3492 1022.15 47.1755 1021.13 47.1751C1019.9 47.1748 1018.89 46.0774 1019.29 44.9122C1019.5 44.2929 1019.79 43.7139 1020.24 43.2269C1021.22 41.9901 1022.78 41.4107 1024.28 41.2896ZM1027.28 50.9244C1026.47 51.1147 1025.68 51.3655 1024.87 51.4952C1024.22 51.625 1023.54 51.8498 1023.08 52.3688C1022.44 53.1558 1022.39 54.3753 1022.89 55.2575C1023.11 55.664 1023.54 55.8629 1023.94 56.0013C1025.23 56.2607 1026.64 55.8456 1027.58 54.8769C1028.29 53.9504 1028.38 52.7784 1028.38 51.6225C1028.38 51.0265 1027.86 50.8201 1027.28 50.9244ZM1042.3 41.7912C1042.51 41.7359 1042.73 41.6716 1042.94 41.6079C1043.99 41.2942 1044.84 42.1396 1044.87 43.2362C1044.87 43.2787 1044.87 43.3211 1044.87 43.3636C1044.9 44.5761 1043.79 45.3159 1042.63 45.6745C1041.05 46.1329 1039.72 47.5859 1039.54 49.3157C1039.53 49.6963 1039.43 50.0682 1039.43 50.4487V57.1096C1039.43 58.2362 1038.51 59.1517 1037.39 59.1516C1036.27 59.1516 1035.38 58.247 1035.38 57.133C1035.37 52.7566 1035.38 48.3795 1035.39 43.998C1035.39 42.896 1036.28 42.001 1037.38 42.0287C1037.85 42.0405 1038.31 42.0561 1038.78 42.0735C1039.07 42.0845 1039.31 42.3246 1039.3 42.6202C1039.3 43.1429 1039.98 43.3765 1040.36 43.0195C1040.93 42.4883 1041.58 42.0539 1042.3 41.7912ZM1052.4 41.3501C1053.01 41.2896 1053.61 41.229 1054.22 41.2809C1057.86 41.3328 1061.17 44.2561 1062.04 47.9059C1062.8 50.8898 1062.06 54.3321 1059.9 56.4943C1058.82 57.7124 1057.38 58.5948 1055.84 58.9963C1055.36 59.1222 1054.86 59.1527 1054.36 59.1532C1053.98 59.1536 1053.6 59.1522 1053.23 59.151C1052.72 59.1494 1052.22 59.125 1051.73 58.9981C1049.42 58.3985 1047.44 56.6663 1046.27 54.531C1044.92 51.9363 1044.92 48.6411 1046.23 46.0291C1047.49 43.6248 1049.77 41.7393 1052.4 41.3501ZM1052.73 45.5794C1051.52 45.8648 1050.49 46.7556 1049.87 47.8627C1048.94 49.48 1049.09 51.6855 1050.24 53.1385C1051.41 54.8942 1053.81 55.491 1055.65 54.5915C1056.73 54.0899 1057.54 53.1039 1057.99 51.9882C1058.49 50.7082 1058.4 49.2033 1057.8 47.9838C1057.17 46.747 1056 45.7697 1054.66 45.5448C1054.02 45.4929 1053.37 45.467 1052.73 45.5794ZM1064.88 48.1147C1064.88 47.0719 1065.72 46.2194 1066.76 46.2194H1073.84C1074.87 46.2194 1075.71 47.0587 1075.71 48.094C1075.71 49.131 1074.87 49.9709 1073.83 49.9706C1071.47 49.9698 1069.1 49.9763 1066.74 49.9754C1065.71 49.9751 1064.88 49.1456 1064.88 48.1147Z" fill="white"/>
<g clip-path="url(#clip0_431_9953)">
<path d="M1217.03 41.2274C1217.67 40.0632 1218.31 38.8989 1218.94 37.7347C1219.62 36.7843 1220.3 35.8378 1220.98 34.8874C1221.76 33.8578 1222.53 32.8321 1223.31 31.8025C1224.13 30.9788 1224.96 30.1551 1225.78 29.3314C1226.4 29.0146 1227.06 28.7533 1227.63 28.3731C1229.4 27.2207 1231.07 25.9218 1232.89 24.8605C1236.03 23.0191 1236.07 23.0746 1239.13 25.7278C1237.57 26.5119 1235.99 27.1217 1234.62 28.0444C1232.64 29.379 1230.81 30.9392 1228.91 32.4044C1228.09 33.2242 1227.27 34.0399 1226.45 34.8597C1225.61 35.7943 1224.76 36.7288 1223.92 37.6634C1223.2 38.7088 1222.48 39.7583 1221.75 40.8037C1221.2 42.1185 1220.63 43.4332 1220.08 44.7519C1219.58 46.1854 1219.07 47.615 1218.57 49.0485C1218.05 51.4959 1217.47 53.9352 1217.04 56.3984C1216.86 57.3963 1217.01 58.4537 1217.01 59.7605C1215.19 58.6794 1213.15 58.2636 1213.22 55.7846C1213.56 53.5749 1213.9 51.3652 1214.25 49.1555C1214.68 47.6863 1215.11 46.2211 1215.54 44.7519C1216.04 43.5797 1216.54 42.4075 1217.04 41.2354L1217.03 41.2274Z" fill="white"/>
<path d="M1230.95 34.8322C1232.81 33.6402 1234.65 32.4086 1236.54 31.2642C1237.49 30.69 1238.52 30.2227 1239.53 29.7791C1242.37 28.5515 1242.7 28.7099 1243.91 31.7314C1241.53 32.9115 1239.07 33.961 1236.8 35.3193C1235.53 36.0835 1234.56 37.3626 1233.45 38.4081C1232.57 39.2159 1231.69 40.0238 1230.81 40.8277C1230 42.0078 1229.18 43.1839 1228.37 44.364C1227.73 45.8134 1227.08 47.2667 1226.44 48.7161C1225.79 50.9773 1224.91 53.2029 1224.54 55.5116C1224.22 57.4876 1224.47 59.5548 1224.47 61.5467C1221.15 62.113 1220.57 61.6496 1220.58 58.5687C1220.58 57.7807 1220.63 56.9926 1220.65 56.2046C1221.16 53.5632 1221.67 50.9219 1222.18 48.2805C1222.8 46.7598 1223.42 45.2431 1224.04 43.7225L1226.1 40.4475C1226.89 39.3942 1227.69 38.3408 1228.48 37.2874C1229.3 36.4677 1230.12 35.6479 1230.94 34.8282L1230.95 34.8322Z" fill="white"/>
<path d="M1280.22 48.7359H1277.12V34.3213C1279.06 33.6718 1280.49 34.2579 1281.67 35.7825C1283.11 37.6477 1284.63 39.4614 1286.26 41.481V34.2619H1289.39V48.5616C1287.4 49.2388 1286.37 48.6171 1285.45 46.6885C1284.18 44.0194 1282.37 41.5998 1280.8 39.0733C1280.61 39.1605 1280.41 39.2515 1280.22 39.3387V48.7359Z" fill="white"/>
<path d="M1234.91 41.1718C1236.08 40.3482 1237.19 39.4057 1238.44 38.7245C1240.66 37.5088 1242.97 36.4515 1245.56 35.1724C1245.92 36.7207 1246.16 37.7622 1246.43 38.8909C1242.6 40.2967 1239.04 41.8213 1236.71 45.1992C1235.83 46.4625 1234.95 47.7257 1234.07 48.985C1231.59 52.66 1231.59 56.8537 1231.65 61.2731C1230.51 61.4869 1229.41 61.6889 1227.93 61.9621C1227.93 59.4435 1227.93 57.2417 1227.93 55.0399C1228.66 52.7827 1229.38 50.5294 1230.1 48.2722C1230.89 46.8545 1231.67 45.4368 1232.45 44.0231C1233.27 43.0727 1234.09 42.1262 1234.91 41.1758L1234.91 41.1718Z" fill="white"/>
<path d="M1305.56 48.6448V34.1827C1307.8 34.1827 1309.96 34.0599 1312.09 34.2223C1313.75 34.349 1315.06 35.2162 1315.66 36.9111C1316.24 38.5704 1315.81 40.0198 1314.76 41.3306C1314.43 41.7345 1314.02 42.0632 1313.6 42.4631C1314.66 44.4788 1315.69 46.439 1316.73 48.427C1313.82 49.1952 1313.61 49.1041 1312.32 46.5816C1311.33 44.6544 1310.08 43.964 1308.58 44.5105V48.6448H1305.56ZM1308.57 41.4494C1309.7 41.0098 1310.67 40.8435 1311.33 40.3049C1311.96 39.798 1312.26 38.8951 1312.7 38.1625C1311.96 37.8576 1311.25 37.4537 1310.49 37.2873C1309.89 37.1567 1309.24 37.319 1308.57 37.3547V41.4494Z" fill="white"/>
<path d="M1304.5 48.6764C1302.72 48.7635 1300.97 49.3813 1300.46 46.9102C1300.39 46.5855 1299.37 46.2805 1298.78 46.2687C1296.87 46.237 1294.67 45.4014 1293.72 48.2645C1293.55 48.7556 1291.78 48.712 1290.31 49.0011C1291.41 46.0231 1292.33 43.5164 1293.26 41.0097C1293.92 39.2198 1294.69 37.4655 1295.22 35.6399C1295.59 34.4083 1296.19 34.04 1297.45 34.0083C1298.79 33.9727 1299.26 34.5707 1299.66 35.6834C1301.22 39.992 1302.85 44.2728 1304.5 48.6685V48.6764ZM1297.45 38.4198C1296.75 40.3603 1296.26 41.7146 1295.76 43.1125H1299.16C1298.61 41.5918 1298.13 40.2692 1297.45 38.4198Z" fill="white"/>
<path d="M1265.39 34.1826H1274.77V37.2398H1268.41C1268.37 38.0555 1268.35 38.6892 1268.31 39.5326H1273.78V42.4195H1268.44V45.5361H1275.23V48.6526H1265.39V34.1826Z" fill="white"/>
<path d="M1262.87 34.6933C1262.3 35.9486 1261.98 36.6495 1261.67 37.3307C1260.2 37.1683 1258.84 36.9584 1257.48 36.903C1257.05 36.8871 1256.6 37.295 1256.16 37.5049C1256.43 37.9088 1256.61 38.4751 1256.99 38.6929C1258.29 39.4453 1259.69 40.0473 1261.02 40.768C1263.16 41.9243 1264.04 43.5994 1263.62 45.5755C1263.23 47.4486 1261.82 48.6208 1259.45 48.8702C1256.85 49.1435 1254.36 48.6683 1251.86 47.3298C1252.28 46.4269 1252.66 45.6309 1252.99 44.93C1254.84 45.2706 1256.49 45.7022 1258.17 45.8329C1258.9 45.8883 1259.68 45.326 1260.43 45.0448C1259.94 44.4191 1259.57 43.6073 1258.94 43.2074C1257.73 42.4391 1256.32 41.9837 1255.08 41.2551C1253.05 40.0631 1252.39 38.5147 1252.93 36.6574C1253.54 34.5745 1255.16 33.9488 1257.06 34.024C1258.86 34.0953 1260.66 34.4279 1262.88 34.6972L1262.87 34.6933Z" fill="white"/>
<path d="M1237.95 49.1872C1240.12 46.5023 1242.58 44.1976 1246.27 43.061C1246.27 45.0767 1246.37 46.7003 1244.43 47.92C1241.4 49.8406 1239.6 52.6919 1239.14 56.3074C1238.86 58.5211 1236.91 58.723 1235.31 59.82C1235.31 58.3904 1235.31 57.2974 1235.31 56.2084C1236.19 53.868 1237.07 51.5276 1237.95 49.1872H1237.95Z" fill="white"/>
<path d="M1220.98 34.8915C1220.3 35.8419 1219.62 36.7884 1218.94 37.7388C1215.49 35.6439 1212.05 33.5491 1208.46 31.371C1208.61 31.1215 1208.9 30.3177 1209.46 29.8385C1209.92 29.4425 1210.9 29.0702 1211.32 29.2999C1214.59 31.0819 1217.77 33.0105 1220.98 34.8955V34.8915Z" fill="white"/>
<path d="M1225.78 29.3315C1224.96 30.1552 1224.13 30.9789 1223.31 31.8026C1220.07 29.7196 1216.84 27.6366 1213.62 25.5694C1215.27 23.3954 1216.35 23.039 1218.83 24.5557C1221.23 26.0169 1223.47 27.7316 1225.78 29.3315Z" fill="white"/>
<path d="M1217.03 41.2274C1216.53 42.3996 1216.04 43.5718 1215.54 44.744C1212.94 41.9284 1209.74 40.0869 1205.91 38.9583C1206.17 37.802 1206.41 36.7526 1206.68 35.521C1210.77 36.5625 1214.16 38.4158 1217.03 41.2235V41.2274Z" fill="white"/>
<path d="M1214.24 49.1516C1213.9 51.3613 1213.56 53.571 1213.22 55.7807C1212.44 52.28 1210.44 49.7099 1207.61 47.52C1206.53 46.6805 1206.2 44.8668 1205.82 43.3145C1209.56 44.1421 1212.18 46.2647 1214.24 49.1516Z" fill="white"/>
</g>
<path d="M690.786 42.3965H696.144V43.1611H690.786V48.5186H690.021V43.1611H684.664V42.3965H690.021V37.0391H690.786V42.3965Z" fill="url(#paint0_linear_431_9953)"/>
<path d="M690.469 0.661133L690.469 84.8463" stroke="black" stroke-opacity="0.4" stroke-width="1.32283" stroke-linecap="round"/>
<path d="M462.487 42.3965H467.844V43.1611H462.487V48.5186H461.722V43.1611H456.364V42.3965H461.722V37.0391H462.487V42.3965Z" fill="url(#paint1_linear_431_9953)"/>
<path d="M462.168 0.661133L462.168 84.8463" stroke="black" stroke-opacity="0.4" stroke-width="1.32283" stroke-linecap="round"/>
<path d="M6.12305 42.3965H11.4795V43.1611H6.12305V48.5186H5.35742V43.1611H0V42.3965H5.35742V37.0391H6.12305V42.3965Z" fill="url(#paint2_linear_431_9953)"/>
<path d="M5.80371 0.661133L5.80371 84.8463" stroke="black" stroke-opacity="0.4" stroke-width="1.32283" stroke-linecap="round"/>
<path d="M919.088 42.3965H924.444V43.1611H919.088V48.5186H918.322V43.1611H912.965V42.3965H918.322V37.0391H919.088V42.3965Z" fill="url(#paint3_linear_431_9953)"/>
<path d="M918.77 0.661133L918.77 84.8463" stroke="black" stroke-opacity="0.4" stroke-width="1.32283" stroke-linecap="round"/>
<path d="M1147.39 42.3965H1152.74V43.1611H1147.39V48.5186H1146.62V43.1611H1141.26V42.3965H1146.62V37.0391H1147.39V42.3965Z" fill="url(#paint4_linear_431_9953)"/>
<path d="M1147.07 0.661133L1147.07 84.8463" stroke="black" stroke-opacity="0.4" stroke-width="1.32283" stroke-linecap="round"/>
<path d="M1375.68 42.3965H1381.04V43.1611H1375.68V48.5186H1374.92V43.1611H1369.56V42.3965H1374.92V37.0391H1375.68V42.3965Z" fill="url(#paint5_linear_431_9953)"/>
<path d="M1375.37 0.661133L1375.37 84.8463" stroke="black" stroke-opacity="0.4" stroke-width="1.32283" stroke-linecap="round"/>
<defs>
<linearGradient id="paint0_linear_431_9953" x1="684.664" y1="42.4768" x2="696.144" y2="42.4768" gradientUnits="userSpaceOnUse">
<stop stop-color="#4E75FF"/>
<stop offset="1" stop-color="#F44A69"/>
</linearGradient>
<linearGradient id="paint1_linear_431_9953" x1="456.364" y1="42.4768" x2="467.844" y2="42.4768" gradientUnits="userSpaceOnUse">
<stop stop-color="#4E75FF"/>
<stop offset="1" stop-color="#F44A69"/>
</linearGradient>
<linearGradient id="paint2_linear_431_9953" x1="4.38309e-09" y1="42.4768" x2="11.4796" y2="42.4768" gradientUnits="userSpaceOnUse">
<stop stop-color="#4E75FF"/>
<stop offset="1" stop-color="#F44A69"/>
</linearGradient>
<linearGradient id="paint3_linear_431_9953" x1="912.965" y1="42.4768" x2="924.444" y2="42.4768" gradientUnits="userSpaceOnUse">
<stop stop-color="#4E75FF"/>
<stop offset="1" stop-color="#F44A69"/>
</linearGradient>
<linearGradient id="paint4_linear_431_9953" x1="1141.26" y1="42.4768" x2="1152.74" y2="42.4768" gradientUnits="userSpaceOnUse">
<stop stop-color="#4E75FF"/>
<stop offset="1" stop-color="#F44A69"/>
</linearGradient>
<linearGradient id="paint5_linear_431_9953" x1="1369.56" y1="42.4768" x2="1381.04" y2="42.4768" gradientUnits="userSpaceOnUse">
<stop stop-color="#4E75FF"/>
<stop offset="1" stop-color="#F44A69"/>
</linearGradient>
<clipPath id="clip0_431_9953">
<rect width="110.909" height="38.365" fill="white" transform="translate(1205.82 23.5933)"/>
</clipPath>
</defs>
</svg>
