<svg xmlns="http://www.w3.org/2000/svg" width="1577" height="86" fill="none" viewBox="0 0 1577 86"><path fill="#fff" fill-rule="evenodd" d="M604.014 46.419c0 .337 0 .704-.062 1.042a2.555 2.555 0 0 1-2.545 2.141c-1.749 0-3.007-1.254-3.007-3.427 0-1.898.951-3.52 3.036-3.52 1.32 0 2.332.95 2.546 2.142.032.215.032.46.032.675zm0-14.538v7.959h-.062c-.798-1.073-2.392-1.469-4.14-1.469-3.866 0-7.362 2.998-7.332 8.018 0 5.018 3.436 7.774 6.963 7.774 1.872 0 3.896-.644 5.031-2.54h.062l.214 2.172h5.183c-.06-.796-.122-2.785-.122-4.744V31.88zm16.922 15.946c0 .274 0 .581-.061.827-.244.887-1.165 1.56-2.055 1.56-1.072 0-1.657-.49-1.657-1.346 0-1.225 1.226-1.868 3.773-1.868zm5.584-2.815c0-4.041-2.211-6.642-7.392-6.642-3.375 0-5.616.887-6.597 1.408l1.013 3.61c.982-.55 2.881-1.193 4.571-1.193 2.269 0 2.637.674 2.637 1.225v.093c-5.705 0-9.324 1.865-9.324 5.905 0 2.449 1.962 4.745 5.275 4.745 1.719 0 3.314-.428 4.418-1.653h.122l.306 1.285h5.215c-.151-.673-.244-2.143-.244-3.733zm-101.418-1.335c0-2.144-.061-3.889-.123-5.235h4.816l.216 1.928h.121c.461-.642 1.78-2.295 4.725-2.295 1.962 0 3.619.918 4.324 2.541h.061c.676-.858 1.412-1.47 2.24-1.899q1.242-.642 2.853-.642c3.344 0 5.491 2.325 5.491 6.733v8.693h-5.582v-7.836c0-1.958-.675-3-1.994-3-.982 0-1.596.644-1.841 1.379-.123.366-.153.856-.153 1.161v8.296h-5.583v-7.836c0-1.958-.674-3-1.994-3-1.166 0-1.657.888-1.841 1.348-.153.397-.153.795-.153 1.132v8.356h-5.583zm34.607 6.181c-1.871 0-2.73-1.745-2.73-3.886 0-1.96.736-3.889 2.76-3.889 1.841 0 2.639 1.777 2.639 3.889 0 2.508-.982 3.886-2.639 3.886zm-.061 4.008c4.847 0 8.802-2.936 8.802-8.078 0-4.53-3.464-7.713-8.464-7.713-5.799 0-9.019 3.427-9.019 8.017 0 4.96 3.956 7.774 8.651 7.774zm14.296-15.424 1.901 6.52c.338 1.132.553 2.234.737 3.275h.122c.184-1.102.369-2.112.674-3.276l1.719-6.519h6.196l-5.95 15.06h-5.951l-5.768-15.06z" clip-rule="evenodd"/><path fill="#fff" fill-rule="evenodd" d="M593.698 56.486a16.6 16.6 0 0 1-3.454-10.158c0-4.222.886-8.065 3.475-11.005l-4.133-2.218c-2.883 3.635-3.98 8.229-3.98 13.223 0 4.624 1.476 8.905 3.981 12.399zm3.015-26.061a2.98 2.98 0 0 1-2.985 2.98 2.98 2.98 0 0 1-2.985-2.98 2.98 2.98 0 0 1 2.985-2.978 2.98 2.98 0 0 1 2.985 2.978" clip-rule="evenodd"/><path fill="#fff" d="M413.372 39.434c-.455.63-1.12.91-1.994.91-.875 0-1.54-.315-1.995-.91-.454-.63-.699-1.504-.699-2.623s.245-2.03.699-2.624c.455-.63 1.155-.91 1.995-.91.874 0 1.539.315 1.994.91.454.63.699 1.504.699 2.624 0 1.154-.21 2.029-.699 2.623m2.378-6.891c-.944-1.19-2.413-1.784-4.372-1.784s-3.394.594-4.373 1.784c-.945 1.19-1.435 2.623-1.435 4.268 0 1.679.49 3.078 1.435 4.268.944 1.19 2.413 1.784 4.373 1.784 1.959 0 3.393-.595 4.372-1.784.945-1.19 1.435-2.624 1.435-4.268 0-1.645-.455-3.044-1.435-4.268m-25.997 5.487c-.035 1.015-.315 1.68-.84 2.065a3.07 3.07 0 0 1-1.784.56c-.42 0-.769-.105-1.049-.35-.28-.21-.42-.595-.42-1.12 0-.56.245-.98.7-1.26.279-.174.734-.279 1.364-.419l.665-.14c.349-.07.594-.14.804-.21s.385-.175.56-.28zm1.504-6.471c-.979-.49-2.099-.735-3.323-.735-1.924 0-3.289.49-4.058 1.504-.49.63-.77 1.47-.84 2.45h2.869q.105-.683.42-1.05c.279-.35.804-.525 1.504-.525.63 0 1.119.07 1.434.28.315.175.49.49.49.98q0 .576-.63.84c-.245.104-.629.174-1.189.244l-1.015.14q-1.731.21-2.623.735c-1.085.63-1.645 1.644-1.645 3.043 0 1.085.35 1.924 1.015 2.519s1.539.84 2.554.874c6.507.28 6.437-3.428 6.507-4.197v-4.269q0-2.098-1.47-2.833m-14.817 1.816c.735 0 1.295.244 1.645.7.245.349.384.734.454 1.154h3.219c-.175-1.61-.735-2.764-1.714-3.394q-1.417-.944-3.674-.944c-1.784 0-3.148.524-4.163 1.609-1.014 1.084-1.504 2.589-1.504 4.548 0 1.714.455 3.148 1.364 4.198.91 1.084 2.344 1.609 4.268 1.609 1.925 0 3.394-.665 4.373-1.96a4.93 4.93 0 0 0 1.05-2.553h-3.184c-.07.595-.244 1.085-.559 1.47-.315.384-.84.56-1.575.56-1.049 0-1.749-.456-2.099-1.435-.209-.49-.314-1.19-.314-1.994q0-1.313.314-2.1c.315-.979 1.05-1.469 2.099-1.469m-6.624-2.514c-6.576 0-6.192 5.842-6.192 5.842v5.912h2.974V37.05c0-.91.105-1.574.35-2.029q.63-1.155 2.414-1.154h.349c.14 0 .315.035.49.035v-3.044zm-15 3.096c.419-.42 1.014-.664 1.784-.664.699 0 1.294.21 1.749.63s.735 1.014.805 1.784h-5.108c.105-.735.35-1.33.77-1.75m4.023 5.563c-.14.175-.245.35-.42.455-.42.35-.98.454-1.679.454-.63 0-1.155-.105-1.61-.384-.734-.455-1.154-1.225-1.224-2.38h8.256c0-.979-.035-1.749-.105-2.238a5.8 5.8 0 0 0-.909-2.344c-.525-.77-1.19-1.33-1.959-1.68-.805-.35-1.68-.524-2.659-.524-1.679 0-3.009.525-4.058 1.574q-1.575 1.575-1.575 4.513c0 2.099.595 3.603 1.75 4.548 1.154.944 2.483 1.4 3.988 1.4 1.819 0 3.253-.56 4.268-1.645.559-.595.874-1.155 1.049-1.714zm-9.063 3.1h-2.729v-6.892c0-.63-.21-2.134-1.994-2.134-1.189 0-2.064.874-2.064 2.134v6.892h-2.729v-6.892c0-.63-.175-2.134-1.994-2.134-1.224 0-2.064.874-2.064 2.134v6.892h-2.728v-6.822c0-2.834 1.889-4.968 4.792-4.968 1.435 0 2.624.595 3.394 1.575.804-.98 1.994-1.575 3.393-1.575 2.974 0 4.723 2.064 4.723 4.968zm51.345-3.143c-.419.63-1.084.944-1.924.944q-1.259 0-1.889-.944c-.42-.63-.63-1.54-.63-2.589 0-.98.21-1.784.595-2.449.42-.665 1.05-.98 1.924-.98.56 0 1.085.175 1.505.525.699.595 1.049 1.68 1.049 3.044.035 1.014-.21 1.82-.63 2.449m3.569-12.21s-3.009-.314-3.009 2.1v3.218a4.05 4.05 0 0 0-1.294-1.26c-.525-.314-1.155-.454-1.819-.454q-2.257 0-3.569 1.679c-.909 1.12-1.329 2.729-1.329 4.653 0 1.679.455 3.043 1.364 4.128.91 1.084 2.694 1.54 4.268 1.54 5.493 0 5.458-4.724 5.458-4.724zm-17.598 24.115c.42-.42 1.015-.63 1.749-.63.7 0 1.26.21 1.749.595.455.42.735 1.015.77 1.784h-5.072c.139-.734.384-1.33.804-1.749m3.988 5.527c-.14.175-.245.315-.42.455-.419.35-1.014.455-1.679.455-.629 0-1.119-.105-1.574-.385-.735-.455-1.119-1.26-1.189-2.379h8.186c0-.98-.035-1.714-.105-2.239-.14-.874-.42-1.644-.91-2.343-.525-.77-1.154-1.33-1.959-1.68-.77-.35-1.679-.524-2.659-.524-1.644 0-3.008.524-4.023 1.574s-1.539 2.519-1.539 4.478c0 2.099.56 3.568 1.714 4.513 1.155.91 2.484 1.399 3.953 1.399 1.819 0 3.219-.56 4.233-1.644.56-.56.875-1.155 1.015-1.715h-3.044zm-8.388-8.578h-.14c-6.577 0-6.192 5.842-6.192 5.842v5.807h2.973v-5.457c0-.91.105-1.575.35-2.03q.63-1.155 2.414-1.154h.35c.14 0 .315.035.49.035V48.33zm-26.521-1.54v13.153h2.799V44.655c.035 0-2.799-.105-2.799 2.134m8.12.822h-3.001V44.64h3.001zm-3.008 12.367h3.007V48.62h-3.007zm11.057-.028h-3.007l-3.952-11.331h3.147l2.273 7.973 1.994-6.96c.244-.699.699-1.013 1.364-1.013h2.203z"/><path fill="#1a202d" d="M322.063 39.891c0-7.936-9.848-14.366-21.984-14.366s-21.983 6.459-21.983 14.366v.84c0 8.4 8.602 15.206 21.983 15.206 13.468 0 21.984-6.806 21.984-15.206z"/><path fill="#2f3643" d="M321.222 39.889c0 7.444-9.471 13.526-21.144 13.526s-21.143-6.053-21.143-13.526 9.471-13.526 21.143-13.526 21.144 6.053 21.144 13.526"/><path fill="#949eb0" d="M293.054 35.608c0 .029-.231.231-.086.405.347.435 1.361.666 2.404.435.608-.145 1.419-.782 2.172-1.39.84-.667 1.651-1.333 2.491-1.594.869-.29 1.448-.173 1.824-.058.406.116.898.377 1.651.956 1.449 1.1 7.27 6.17 8.255 7.038.811-.376 4.403-1.911 9.297-2.983-.434-2.607-1.998-4.982-4.402-6.951-3.36 1.419-7.444 2.143-11.441.174-.029 0-2.201-1.043-4.315-.985-3.186.087-4.548 1.448-5.996 2.896z"/><path fill="#949eb0" d="M311.566 42.013c-.058-.058-6.835-5.996-8.37-7.125-.898-.666-1.391-.84-1.912-.898-.261-.03-.637.029-.898.087-.724.203-1.651.81-2.462 1.477-.869.695-1.68 1.332-2.404 1.506-.956.203-2.143-.029-2.665-.406-.202-.144-.376-.318-.434-.492-.203-.463.174-.81.232-.898l1.853-2.027c.232-.232.435-.435.667-.637-.609.087-1.159.231-1.709.376-.666.203-1.333.377-1.999.377-.289 0-1.738-.232-2.027-.319-1.68-.463-3.186-.927-5.388-1.94-2.664 1.969-4.431 4.46-4.952 7.182.376.116.984.29 1.245.348 6.025 1.332 7.878 2.723 8.226 3.012a2.02 2.02 0 0 1 1.477-.666c.666 0 1.274.348 1.622.84.347-.26.811-.492 1.419-.492.29 0 .579.058.869.145a2.02 2.02 0 0 1 1.217 1.1c.231-.116.521-.174.839-.174.319 0 .667.087.985.232 1.101.463 1.275 1.564 1.188 2.375h.231a2.386 2.386 0 0 1 2.376 2.375c0 .406-.116.782-.29 1.13.347.202 1.274.666 2.056.55.638-.087.869-.29.956-.434.058-.087.116-.174.058-.261l-1.709-1.883s-.289-.26-.174-.376c.087-.116.261.058.377.145.869.724 1.912 1.795 1.912 1.795.029 0 .086.145.463.232.348.058.927.029 1.332-.319.116-.087.203-.202.29-.29l-.029.03c.434-.55-.058-1.13-.058-1.13l-1.97-2.23s-.289-.26-.173-.377c.087-.087.26.058.405.145.753.493 1.622 1.39 2.491 2.23.174.116.927.58 1.912-.058.608-.405.724-.868.695-1.245-.029-.492-.406-.84-.406-.84l-2.693-2.723s-.29-.231-.174-.376c.087-.116.261.058.376.145.869.724 3.186 2.867 3.186 2.867.029.03.84.608 1.825-.029.348-.232.579-.579.608-.956 0-.695-.492-1.1-.492-1.1"/><path fill="#949eb0" d="M298.46 45.46c-.406 0-.869.23-.927.202-.029-.03.029-.203.058-.29s.579-1.767-.753-2.346c-1.043-.434-1.651.058-1.883.29-.058.058-.087.058-.087-.03-.028-.289-.144-1.1-1.042-1.39-1.275-.376-2.086.493-2.288.812a1.446 1.446 0 0 0-1.449-1.275c-.811 0-1.477.666-1.477 1.477s.666 1.478 1.477 1.478c.406 0 .754-.145 1.014-.406v.058c-.058.348-.174 1.68 1.217 2.23.55.203 1.042.058 1.419-.232.116-.086.145-.057.116.058-.058.348 0 1.072 1.042 1.478.782.318 1.246 0 1.536-.29.144-.116.173-.087.173.087a1.855 1.855 0 0 0 1.854 1.795c1.014 0 1.854-.84 1.854-1.853 0-1.043-.84-1.854-1.854-1.854"/><path fill="#fff" d="m73.016 54.082-9.353-10.577h9.353v-1.841h-9.353l9.353-10.578h-4.667L54.324 41.664h-2.848l-1.87 1.84h4.718L68.35 54.083zm5.852-5.738h12.575v-2.783h-9.204v-1.759h8.379v-2.423h-8.38v-1.74h9.217v-2.808H78.887zm30.138 0h3.358V36.831h-5.73l-3.944 7.192-3.893-7.192h-5.672v11.513h3.351v-8.18h.084l4.512 8.224h3.313l4.511-8.224h.136zm15.507-3.669c0 .677-.335 1.056-.921 1.056h-6.182v-2.068h6.182a.93.93 0 0 1 .696.3.89.89 0 0 1 .225.712m-.361-4.308c0 .633-.303.949-.863.949h-5.879v-1.898h5.879a.88.88 0 0 1 .647.285.84.84 0 0 1 .216.664m1.824 2.12c.508-.172.942-.504 1.234-.946s.425-.966.378-1.49c0-2.164-1.186-3.22-3.648-3.22h-9.862v11.513h10.39c2.436 0 3.519-.898 3.519-3.125 0-1.639-.599-2.492-1.991-2.733zm34.618 5.857h12.568v-2.783h-9.217v-1.759h8.379v-2.423h-8.379v-1.74h9.217v-2.808h-12.568zM140.24 41c0 1.095-.278 1.519-1.212 1.519h-6.381v-2.815h6.381c.864 0 1.212.41 1.212 1.265zm-.033 7.313h3.346V45.96a2.04 2.04 0 0 0-.435-1.424 2.1 2.1 0 0 0-1.299-.765c1.379-.348 1.823-1.303 1.823-3.2 0-2.993-1.172-3.796-4.511-3.796h-9.848v11.513h3.364v-2.941h6.046c1.108 0 1.514.208 1.514 1.183zm14.116-4.68h-4.441l2.197-4.075zm2.384 4.68h3.867L154.368 36.8h-4.512l-6.329 11.514h3.867l1.128-1.898h7.057zm29.049-7.344c0 1.094-.271 1.518-1.205 1.518h-6.388v-2.815h6.388c.857 0 1.205.411 1.205 1.265zm3.409-.43c0-2.993-1.179-3.796-4.511-3.796h-9.855v11.514h3.364v-2.942h6.053c1.101 0 1.514.209 1.514 1.183v1.759h3.345v-2.354a2.03 2.03 0 0 0-.437-1.426 2.1 2.1 0 0 0-1.303-.763c1.379-.348 1.83-1.303 1.83-3.2m649.736-1.874c-1.1-18.143-16.219-32.622-34.73-32.622s-33.63 14.479-34.73 32.622c0 .733.092 1.466.184 2.2a34.13 34.13 0 0 0 6.506 16.31c6.323 8.614 16.494 14.204 28.04 14.204-16.128 0-29.323-12.554-30.423-28.315-.091-.733-.091-1.467-.091-2.2s0-1.466.091-2.199c1.1-15.761 14.295-28.315 30.423-28.315 11.546 0 21.718 5.59 28.041 14.203a34.13 34.13 0 0 1 6.506 16.312c.091.732.183 1.466.183 2.107 0-.733.092-1.466.092-2.2 0-.64 0-1.374-.092-2.107"/><path fill="#fff" d="M769.441 43.039c1.1 18.144 16.22 32.622 34.73 32.622s33.63-14.478 34.73-32.622c0-.733-.092-1.466-.184-2.2a34.13 34.13 0 0 0-6.506-16.31c-6.322-8.614-16.494-14.204-28.04-14.204 16.128 0 29.323 12.554 30.423 28.316.092.733.092 1.466.092 2.199s0 1.466-.092 2.199c-1.1 15.853-14.295 28.315-30.423 28.315-11.546 0-21.718-5.59-28.04-14.203a34.1 34.1 0 0 1-6.506-16.311c-.092-.733-.184-1.467-.184-2.108 0 .733-.091 1.466-.091 2.2 0 .64 0 1.374.091 2.107"/><path fill="#fff" d="M799.863 12.708v9.621h6.69a2.895 2.895 0 0 0 2.932-2.932c0-.825-.367-1.558-.916-2.108.366-.458.641-1.1.733-1.74a2.855 2.855 0 0 0-2.841-2.841zm2.199 2.016h4.032a.83.83 0 0 1 .585.24.826.826 0 0 1-.585 1.409h-4.032zm0 3.665h4.124c.55 0 .916.367.916.916 0 .55-.366.917-.916.917h-4.123zm1.01 5.773-4.765 9.622h2.474l.733-1.65h5.406l.733 1.65h2.474l-4.856-9.622zm1.099 2.474 1.65 3.483h-3.299zm3.299 9.256h2.749l-4.857 6.23v3.391h-2.29v-3.39l-4.857-6.231h2.749l3.299 4.398zm15.76 0v9.621h2.291v-3.665h1.741l2.749 3.665h2.749l-2.84-3.757a2.97 2.97 0 0 0 2.107-2.84c0-1.65-1.282-3.024-2.932-3.024zm2.383 2.016h3.299c.458 0 .916.458.916.916a.92.92 0 0 1-.916.916h-3.299zm-49.207-2.016v9.621h6.69a2.895 2.895 0 0 0 2.932-2.932c0-.825-.367-1.558-.916-2.108.366-.458.641-1.1.733-1.74a2.855 2.855 0 0 0-2.841-2.841zm2.199 2.016h4.032a.82.82 0 0 1 .763.508q.063.152.062.316a.82.82 0 0 1-.509.763.8.8 0 0 1-.316.062h-4.032zm0 3.665h4.124c.55 0 .916.367.916.916 0 .55-.366.917-.916.917h-4.124zm13.562-5.681-4.765 9.621h2.474l.734-1.65h5.406l.733 1.65h2.474l-4.857-9.621zm1.1 2.474 1.649 3.482h-3.298zm26.94-2.474v2.068h-6.414v1.618h6.231v2.069h-6.231v1.798h6.414v2.068h-8.705v-9.621zm-20.436 23.641v9.622h2.291V65.49h1.741l2.75 3.665h2.749l-2.841-3.757a2.97 2.97 0 0 0 2.108-2.84c0-1.65-1.283-3.025-2.933-3.025zm2.383 2.016h3.299c.458 0 .916.458.916.917a.92.92 0 0 1-.916.916h-3.299zm6.415-13.949v2.067h-6.415v1.619h6.231v2.068h-6.231v1.799h6.415v2.068h-8.706v-9.622z"/><path fill="#2f3643" d="m1508.5 28.46 4.68-7.235c.66-1.021 1.35-2.03 2-3.056.1-.165.12-.387.17-.583l.02-.016c.22-.235.48-.447.67-.71.68-.965 1.34-1.95 2.01-2.926.09.176.29.364.27.527-.1.835-.24 1.67-.39 2.498-1.09 5.693-2.18 11.385-3.26 17.08-.05.232-.01.48-.01.868l3-.253c.28.073.56.202.84.21 1.53.05 3.06.068 4.59.097l.03.408c-.17.093-.4.144-.5.285-1.11 1.65-2.2 3.31-3.28 4.982-.12.183-.08.466-.11.703-.2.154-.47.27-.6.47-1.7 2.609-3.38 5.237-5.09 7.846-1.58 2.417-3.2 4.807-4.77 7.226-.71 1.076-1.32 2.21-2.03 3.283-1.04 1.587-2.13 3.144-3.2 4.71-.03.049-.15.04-.44.111.86-7.42 1.72-14.75 2.58-22.124-.35-.08-.64-.146-.94-.212 1.05-2.708 2.09-5.416 3.19-8.247l-3.03-.141c.28-.476.55-.96.84-1.43.9-1.46 1.82-2.913 2.73-4.369h.03z"/><path fill="#fff" d="M1519.23 41.339c.03-.237-.01-.52.11-.703 1.08-1.673 2.17-3.332 3.28-4.982.1-.143.33-.193.5-.285-.02 2.906 1.86 5.287 4.67 5.902 2.71.591 5.63-.949 6.69-3.596.91-2.282.48-4.38-1.17-6.173-1.59-1.725-3.63-2.258-5.85-1.657-2.56.693-3.99 2.49-4.37 5.116-1.53-.029-3.06-.05-4.59-.097-.28-.008-.56-.137-.84-.21.22-3.094 1.55-5.64 3.8-7.735 2.31-1.822 4.89-2.876 7.87-2.754 5.24.217 9.54 3.632 10.74 8.673.77 3.216.17 6.249-1.63 9.051-1.33 2.068-2.58 4.184-3.88 6.275-.31.502-.64.991-.96 1.486-.86 1.349-1.74 2.684-2.57 4.057-.3.506-.65.666-1.22.654-1.8-.036-3.59-.014-5.61-.014 1.6-2.57 3.1-4.976 4.66-7.483-4.24-.23-7.42-2.05-9.63-5.527zm-14.33-7.081 3.03.14c-1.1 2.834-2.14 5.541-3.19 8.247l-3.75 9.572c-.89 2.256-1.69 4.543-2.66 6.758-.74 1.684-1.97 2.894-4 2.89-1.84-.006-3.67.008-5.5.004-.1 0-.21-.08-.31-.122l-.03-2.214v-2.268c.98 0 1.9.002 2.81 0 1.8-.005 3.23-1.57 2.88-3.351-.19-.983-.7-1.905-1.06-2.855-1.25-3.235-2.5-6.465-3.73-9.705-.83-2.196-1.63-4.405-2.44-6.612-.05-.125-.05-.27-.07-.406l5.75.01c1.56 4.584 3.13 9.169 4.69 13.752l.22-.013c1.19-3.638 2.39-7.276 3.58-10.916.03-.115.05-.232.08-.347.07-.146.13-.294.19-.44v-.011c.02-.075.03-.148.05-.222.03-.104.07-.207.1-.309.03-.066.06-.132.08-.198l.18-.596c.05-.199.11-.395.16-.593l2.94-.199z"/><path fill="#fff" d="m1468.85 39.372.54-1.354c.03-.054.05-.109.08-.165.07-.015.09-.056.08-.125 2.99-4.823 13.22-4.76 15.94-.685.32.719.64 1.439.95 2.157.07 2.185.13 4.37.19 6.555l.09 2.755c.12.247.23.495.35.744l1.41.417v4.419c-1.7.093-3.36.147-5-.307-.27-.218-.54-.435-.8-.654l-.18-.213c-.05-.08-.09-.158-.13-.238v-.012c-.12-.459-.23-.918-.36-1.436-.11.083-.25.155-.34.269-1.76 2.308-4.17 3.097-6.94 2.78-1.27-.144-2.59-.43-3.71-1.003-3.92-2.008-3.39-7.4-.73-9.443.23-.171.45-.347.67-.52 1.41-.42 2.81-1.017 4.26-1.215 1.74-.239 3.54-.125 5.31-.208.25-.012.67-.245.7-.43.29-1.512-.74-3.004-2.27-3.237-.79-.12-1.62-.104-2.42-.01-1.13.132-1.99.696-2.47 1.794-.1.225-.48.454-.74.463-1.52.05-3.05.035-4.57.044l.02.01a.13.13 0 0 0-.09-.132c.02-.227.03-.456.04-.683l.12-.34zm7.86 11.007c2.6-.009 4.31-1.57 4.53-4.116.04-.46-.06-.695-.56-.683-1.4.03-2.81-.013-4.21.076-1.77.116-2.82 1.15-2.76 2.566.06 1.354 1.19 2.164 3 2.157m-15.42 4.036c-.02-3.382-.04-6.762-.05-10.145V28.291c0-.308.04-.616.06-.923l-.01.003c1.57.002 3.13.034 4.69-.01.55-.015.76.171.75.683v1.047c0 .254.01.509.01.764l.03.732-.03.307v.861c.02.212.03.425.04.637l-.04.014v.047c0 .205 0 .41-.01.617.01.229.01.457.01.686v1.867l.06 1.073v.781c-.02.222-.04.444-.07.666-.01 3.865-.03 7.732-.04 11.597-.01 2.364-.96 3.728-3.21 4.558-.15.044-.29.087-.43.13l-1.27.036-.49-.045zm-22.26-4.025v-5.25c0-.116 0-.233.01-.35-.01-.278-.01-.558-.01-.836 0-.172 0-.345.01-.52-.01-.335-.01-.67-.01-1.005v-7.795c.15-.1.3-.282.45-.286 1.6-.02 3.21-.013 4.93-.013v2.24c1.13-.686 2.15-1.535 3.31-1.967 4.78-1.766 10.08 1.003 11.42 5.908.96 3.513.83 6.95-1.25 10.067-.63.937-1.59 1.652-2.39 2.47l-.28.172-.04.019c-.09.055-.18.11-.26.165l-.06-.011-.02.047c-.21.098-.41.197-.62.297l-.23.054c-.22.08-.43.16-.65.24l-.2.065c-.05.02-.1.04-.16.06-.23.038-.45.077-.68.114h-3.57c-1.52-.203-2.78-.915-3.8-2.055l-.33-.305c-.02.112-.04.225-.05.337a387 387 0 0 0-.04 4.816c-.01 2.76-1.02 4.082-3.68 4.763-.08.02-.15.071-.23.107l-.16.007c-.29 0-.57.003-.86.005l-.48-.092c-.03-2.469-.05-4.937-.07-7.406v-4.06m5.29-6.159c.22.95.35 1.937.7 2.84 1.23 3.196 5.48 3.898 7.73 1.291 1.42-1.65 1.6-3.63 1.23-5.66-.35-1.926-1.39-3.415-3.36-3.946-2.03-.544-3.81-.044-5.1 1.698-.82 1.105-1.08 2.391-1.2 3.777m-391.84-15.739c0-1 .81-1.807 1.81-1.81 1 0 1.8.805 1.8 1.8v7.46a1.8 1.8 0 0 1-1.8 1.808c-1 0-1.81-.81-1.81-1.807 0-2.482-.01-4.966 0-7.451m9.24 11.996c-.7-.73-.69-1.886.01-2.613 2.43-2.52 4.84-5.058 7.27-7.578.74-.77 1.98-.767 2.73.003a1.82 1.82 0 0 1-.01 2.526c-2.44 2.557-4.89 5.095-7.33 7.647-.73.763-1.94.777-2.67.015m-64.637-3.343c.908-.216 1.842-.337 2.785-.303 3.102-.078 6.122 1.557 8.042 4.065.34.441.65.912.92 1.405.7 1.274-.37 2.656-1.82 2.653-.86-.002-1.62-.514-2.12-1.213-.57-.79-1.28-1.467-2.12-1.928-.7-.39-1.46-.657-2.24-.753-.722-.017-1.466-.078-2.184.113a6.15 6.15 0 0 0-3.166 1.85c-1.107 1.09-1.85 2.613-1.92 4.213-.138 1.522.139 3.113.969 4.393.796 1.228 1.929 2.249 3.269 2.776 2.24.865 4.952.346 6.682-1.418.25-.27.49-.558.71-.86.51-.706 1.29-1.228 2.16-1.23 1.45-.003 2.5 1.36 1.81 2.629a12.4 12.4 0 0 1-1.08 1.623c-.66.718-1.31 1.48-2.13 2.016-3.65 2.629-8.973 2.482-12.407-.493-1.072-.952-2.05-2.042-2.716-3.339-1.236-2.292-1.548-5.05-1.107-7.62.372-2.18 1.462-4.177 2.975-5.716 1.263-1.367 2.889-2.413 4.688-2.863m14.947 1.725c0-1.12.91-2.028 2.03-2.028s2.02.908 2.02 2.028v18.24c0 1.12-.9 2.029-2.02 2.029a2.03 2.03 0 0 1-2.03-2.028zm12.25 2.418c.77-.165 1.56-.07 2.34-.096.9.078 1.81.217 2.66.537.86.311 1.75.7 2.35 1.444.71.874.96 2.041 1.01 3.166V57.03a2.14 2.14 0 0 1-2.13 2.133c-.49.001-.97 0-1.46-.01a.535.535 0 0 1-.53-.54c0-.48-.58-.748-.99-.507-1.02.588-2.19.886-3.33.983-.98.173-1.99.017-2.92-.311a4.06 4.06 0 0 1-2.54-2.725c-.38-1.358-.3-2.837.15-4.16.48-1.35 1.66-2.31 2.95-2.75 1.32-.484 2.71-.642 4.09-.867.69-.113 1.47-.099 2-.549.19-.158.34-.362.43-.6.15-.63.01-1.427-.51-1.824-.59-.407-1.31-.485-1.99-.51-.62.017-1.26.025-1.8.363-.19.11-.35.252-.49.414-.65.78-1.42 1.605-2.44 1.605-1.23 0-2.24-1.098-1.84-2.263.21-.62.5-1.198.95-1.685.98-1.237 2.54-1.816 4.04-1.937m3 9.634c-.81.19-1.6.441-2.41.571-.65.13-1.33.355-1.79.874-.64.787-.69 2.006-.19 2.889.22.406.65.605 1.05.743 1.29.26 2.7-.155 3.64-1.124.71-.927.8-2.099.8-3.254 0-.596-.52-.803-1.1-.699m15.02-9.133c.21-.055.43-.12.64-.183 1.05-.314 1.9.532 1.93 1.628v.128c.03 1.212-1.08 1.952-2.24 2.31-1.58.459-2.91 1.912-3.09 3.642-.01.38-.11.752-.11 1.133v6.66c0 1.127-.92 2.043-2.04 2.043s-2.01-.905-2.01-2.019c-.01-4.376 0-8.754.01-13.135 0-1.102.89-1.997 1.99-1.97.47.013.93.028 1.4.046.29.01.53.25.52.546 0 .523.68.757 1.06.4.57-.532 1.22-.966 1.94-1.229m10.1-.44c.61-.061 1.21-.122 1.82-.07 3.64.052 6.95 2.975 7.82 6.625.76 2.984.02 6.426-2.14 8.588a8.27 8.27 0 0 1-4.06 2.502c-.48.126-.98.157-1.48.157-.38 0-.76 0-1.13-.002-.51-.002-1.01-.026-1.5-.153-2.31-.6-4.29-2.332-5.46-4.467-1.35-2.595-1.35-5.89-.04-8.502 1.26-2.404 3.54-4.29 6.17-4.679m.33 4.228c-1.21.286-2.24 1.177-2.86 2.284-.93 1.617-.78 3.822.37 5.276 1.17 1.755 3.57 2.352 5.41 1.453 1.08-.502 1.89-1.488 2.34-2.604.5-1.28.41-2.785-.19-4.004-.63-1.237-1.8-2.214-3.14-2.44-.64-.051-1.29-.077-1.93.035m12.15 2.536a1.89 1.89 0 0 1 1.88-1.896h7.08a1.877 1.877 0 0 1-.01 3.751c-2.36 0-4.73.006-7.09.005-1.03 0-1.86-.83-1.86-1.86"/><g fill="#fff" clip-path="url(#a)"><path d="M1217.03 41.227c.64-1.164 1.28-2.328 1.91-3.492l2.04-2.848c.78-1.03 1.55-2.055 2.33-3.085.82-.823 1.65-1.647 2.47-2.47.62-.317 1.28-.579 1.85-.959 1.77-1.152 3.44-2.451 5.26-3.513 3.14-1.84 3.18-1.785 6.24.868-1.56.784-3.14 1.394-4.51 2.316-1.98 1.335-3.81 2.895-5.71 4.36l-2.46 2.456c-.84.934-1.69 1.869-2.53 2.803-.72 1.046-1.44 2.095-2.17 3.14-.55 1.316-1.12 2.63-1.67 3.949-.5 1.433-1.01 2.863-1.51 4.296-.52 2.448-1.1 4.887-1.53 7.35-.18.998-.03 2.056-.03 3.362-1.82-1.08-3.86-1.496-3.79-3.975.34-2.21.68-4.42 1.03-6.63l1.29-4.403 1.5-3.517z"/><path d="M1230.95 34.832c1.86-1.192 3.7-2.423 5.59-3.568.95-.574 1.98-1.041 2.99-1.485 2.84-1.227 3.17-1.07 4.38 1.952-2.38 1.18-4.84 2.23-7.11 3.588-1.27.764-2.24 2.044-3.35 3.09q-1.32 1.212-2.64 2.419c-.81 1.18-1.63 2.356-2.44 3.536-.64 1.45-1.29 2.903-1.93 4.352-.65 2.261-1.53 4.487-1.9 6.796-.32 1.976-.07 4.043-.07 6.035-3.32.566-3.9.103-3.89-2.978 0-.788.05-1.576.07-2.364l1.53-7.924 1.86-4.559 2.06-3.275c.79-1.053 1.59-2.106 2.38-3.16l2.46-2.459zm49.27 13.904h-3.1V34.32c1.94-.65 3.37-.063 4.55 1.462 1.44 1.865 2.96 3.678 4.59 5.698v-7.22h3.13v14.3c-1.99.678-3.02.056-3.94-1.873-1.27-2.669-3.08-5.088-4.65-7.615l-.58.266z"/><path d="M1234.91 41.172c1.17-.824 2.28-1.766 3.53-2.447 2.22-1.216 4.53-2.273 7.12-3.553.36 1.549.6 2.59.87 3.719-3.83 1.406-7.39 2.93-9.72 6.308q-1.32 1.897-2.64 3.786c-2.48 3.675-2.48 7.869-2.42 12.288-1.14.214-2.24.416-3.72.69V55.04c.73-2.257 1.45-4.51 2.17-6.768.79-1.417 1.57-2.835 2.35-4.249l2.46-2.847zm70.65 7.473V34.183c2.24 0 4.4-.123 6.53.04 1.66.126 2.97.993 3.57 2.688.58 1.66.15 3.109-.9 4.42-.33.403-.74.732-1.16 1.132 1.06 2.016 2.09 3.976 3.13 5.964-2.91.768-3.12.677-4.41-1.845-.99-1.928-2.24-2.618-3.74-2.072v4.135zm3.01-7.196c1.13-.44 2.1-.605 2.76-1.144.63-.507.93-1.41 1.37-2.142-.74-.305-1.45-.71-2.21-.876-.6-.13-1.25.032-1.92.068zm-4.07 7.227c-1.78.087-3.53.705-4.04-1.766-.07-.324-1.09-.63-1.68-.641-1.91-.032-4.11-.868-5.06 1.995-.17.492-1.94.448-3.41.737 1.1-2.978 2.02-5.485 2.95-7.991.66-1.79 1.43-3.544 1.96-5.37.37-1.232.97-1.6 2.23-1.632 1.34-.035 1.81.563 2.21 1.675 1.56 4.309 3.19 8.59 4.84 12.986zm-7.05-10.256c-.7 1.94-1.19 3.295-1.69 4.692h3.4c-.55-1.52-1.03-2.843-1.71-4.692m-32.06-4.237h9.38v3.057h-6.36c-.04.816-.06 1.45-.1 2.293h5.47v2.886h-5.34v3.117h6.79v3.117h-9.84zm-2.52.51c-.57 1.256-.89 1.957-1.2 2.638-1.47-.163-2.83-.373-4.19-.428-.43-.016-.88.392-1.32.602.27.404.45.97.83 1.188 1.3.752 2.7 1.354 4.03 2.075 2.14 1.156 3.02 2.831 2.6 4.807-.39 1.874-1.8 3.046-4.17 3.295-2.6.274-5.09-.202-7.59-1.54.42-.903.8-1.7 1.13-2.4 1.85.34 3.5.772 5.18.903.73.055 1.51-.507 2.26-.788-.49-.626-.86-1.438-1.49-1.838-1.21-.768-2.62-1.223-3.86-1.952-2.03-1.192-2.69-2.74-2.15-4.598.61-2.082 2.23-2.708 4.13-2.633 1.8.071 3.6.404 5.82.673z"/><path d="M1237.95 49.187c2.17-2.685 4.63-4.99 8.32-6.126 0 2.016.1 3.64-1.84 4.859-3.03 1.92-4.83 4.772-5.29 8.387-.28 2.214-2.23 2.416-3.83 3.513v-3.612zm-16.97-14.295c-.68.95-1.36 1.896-2.04 2.847-3.45-2.095-6.89-4.19-10.48-6.368.15-.25.44-1.053 1-1.532.46-.396 1.44-.769 1.86-.54 3.27 1.783 6.45 3.712 9.66 5.596zm4.8-5.56c-.82.823-1.65 1.647-2.47 2.47-3.24-2.082-6.47-4.165-9.69-6.233 1.65-2.174 2.73-2.53 5.21-1.013 2.4 1.46 4.64 3.176 6.95 4.775m-8.75 11.896c-.5 1.173-.99 2.345-1.49 3.517-2.6-2.816-5.8-4.657-9.63-5.786.26-1.156.5-2.205.77-3.437 4.09 1.041 7.48 2.895 10.35 5.703zm-2.79 7.925-1.02 6.629c-.78-3.501-2.78-6.071-5.61-8.261-1.08-.84-1.41-2.653-1.79-4.206 3.74.828 6.36 2.95 8.42 5.838"/></g><path fill="url(#b)" d="M690.786 42.397h5.358v.764h-5.358v5.358h-.765V43.16h-5.357v-.764h5.357v-5.358h.765z"/><path stroke="#000" stroke-linecap="round" stroke-opacity=".4" stroke-width="1.323" d="M690.469.661v84.185"/><path fill="url(#c)" d="M462.487 42.397h5.357v.764h-5.357v5.358h-.765V43.16h-5.358v-.764h5.358v-5.358h.765z"/><path stroke="#000" stroke-linecap="round" stroke-opacity=".4" stroke-width="1.323" d="M462.168.661v84.185"/><path fill="url(#d)" d="M6.123 42.397h5.357v.764H6.123v5.358h-.766V43.16H0v-.764h5.357v-5.358h.766z"/><path stroke="#000" stroke-linecap="round" stroke-opacity=".4" stroke-width="1.323" d="M5.804.661v84.185"/><path fill="url(#e)" d="M919.088 42.397h5.356v.764h-5.356v5.358h-.766V43.16h-5.357v-.764h5.357v-5.358h.766z"/><path stroke="#000" stroke-linecap="round" stroke-opacity=".4" stroke-width="1.323" d="M918.77.661v84.185"/><path fill="url(#f)" d="M1147.39 42.397h5.35v.764h-5.35v5.358h-.77V43.16h-5.36v-.764h5.36v-5.358h.77z"/><path stroke="#000" stroke-linecap="round" stroke-opacity=".4" stroke-width="1.323" d="M1147.07.661v84.185"/><path fill="url(#g)" d="M1375.68 42.397h5.36v.764h-5.36v5.358h-.76V43.16h-5.36v-.764h5.36v-5.358h.76z"/><path stroke="#000" stroke-linecap="round" stroke-opacity=".4" stroke-width="1.323" d="M1375.37.661v84.185"/><defs><linearGradient id="b" x1="684.664" x2="696.144" y1="42.477" y2="42.477" gradientUnits="userSpaceOnUse"><stop stop-color="#4e75ff"/><stop offset="1" stop-color="#f44a69"/></linearGradient><linearGradient id="c" x1="456.364" x2="467.844" y1="42.477" y2="42.477" gradientUnits="userSpaceOnUse"><stop stop-color="#4e75ff"/><stop offset="1" stop-color="#f44a69"/></linearGradient><linearGradient id="d" x1="0" x2="11.48" y1="42.477" y2="42.477" gradientUnits="userSpaceOnUse"><stop stop-color="#4e75ff"/><stop offset="1" stop-color="#f44a69"/></linearGradient><linearGradient id="e" x1="912.965" x2="924.444" y1="42.477" y2="42.477" gradientUnits="userSpaceOnUse"><stop stop-color="#4e75ff"/><stop offset="1" stop-color="#f44a69"/></linearGradient><linearGradient id="f" x1="1141.26" x2="1152.74" y1="42.477" y2="42.477" gradientUnits="userSpaceOnUse"><stop stop-color="#4e75ff"/><stop offset="1" stop-color="#f44a69"/></linearGradient><linearGradient id="g" x1="1369.56" x2="1381.04" y1="42.477" y2="42.477" gradientUnits="userSpaceOnUse"><stop stop-color="#4e75ff"/><stop offset="1" stop-color="#f44a69"/></linearGradient><clipPath id="a"><path fill="#fff" d="M1205.82 23.593h110.909v38.365H1205.82z"/></clipPath></defs></svg>