<svg xmlns="http://www.w3.org/2000/svg" width="87" height="20" fill="none" viewBox="0 0 87 20"><path fill="#fff" d="M2.254 19.718H0V0h2.254zm3.105 0V5.634h1.83l.282 1.55h.141q.564-.705 1.69-1.269 1.128-.563 2.536-.563 1.605 0 2.873.76a5.16 5.16 0 0 1 2.028 2.085q.732 1.353.732 3.07v8.451H15.36v-8.45q0-1.1-.507-2a3.7 3.7 0 0 0-1.38-1.409 3.6 3.6 0 0 0-1.916-.535q-1.098 0-2.056.563a4.2 4.2 0 0 0-1.493 1.437 3.74 3.74 0 0 0-.536 1.944v8.45zm14.938 0V5.634h1.831l.282 1.55h.14q.564-.705 1.69-1.269 1.128-.563 2.536-.563 1.605 0 2.873.76a5.16 5.16 0 0 1 2.028 2.085q.733 1.353.733 3.07v8.451h-2.113v-8.45q0-1.1-.507-2a3.7 3.7 0 0 0-1.38-1.409 3.6 3.6 0 0 0-1.916-.535q-1.098 0-2.056.563a4.2 4.2 0 0 0-1.493 1.437 3.74 3.74 0 0 0-.535 1.944v8.45zM41.151 20q-1.887 0-3.437-.93t-2.45-2.591q-.874-1.662-.874-3.803t.874-3.803q.9-1.662 2.45-2.591t3.437-.93q1.802 0 3.296.873a6.17 6.17 0 0 1 2.338 2.423q.845 1.521.845 3.465 0 1.125-.141 1.549H36.503q.198 1.972 1.521 3.183 1.324 1.183 3.127 1.183 1.267 0 2.253-.591a3.9 3.9 0 0 0 1.55-1.662h2.253q-.732 2.028-2.31 3.126-1.548 1.1-3.746 1.099m4.366-8.31q-.113-1.916-1.352-3.127-1.21-1.24-3.014-1.24-1.887 0-3.155 1.24-1.268 1.212-1.493 3.127zm4.079 8.028V5.634h1.831l.282 1.408h.14q.48-.732 1.043-1.07t1.634-.338h2.394v1.972h-2.113q-1.465 0-2.281.817-.817.788-.817 2.281v9.014zm32.258 0h-3.972l-1.493-4.366h-8.422l-1.493 4.366h-3.972L69.516 0h5.324zm-9.943-15.83-2.817 8.197h6.169l-2.789-8.198zm14.469 15.83h-3.662V0h3.662z"/></svg>