<svg xmlns="http://www.w3.org/2000/svg" width="1316" height="86" fill="none" viewBox="0 0 1316 86"><path fill="#fff" fill-rule="evenodd" d="M571.601 46.42c0 .336 0 .703-.062 1.042a2.555 2.555 0 0 1-2.545 2.14c-1.75 0-3.007-1.253-3.007-3.427 0-1.898.951-3.52 3.036-3.52 1.32 0 2.332.95 2.546 2.142.032.216.032.46.032.675zm0-14.538v7.958h-.062c-.798-1.072-2.392-1.468-4.141-1.468-3.865 0-7.362 2.998-7.331 8.017 0 5.019 3.436 7.775 6.963 7.775 1.871 0 3.895-.644 5.031-2.54h.062l.214 2.171h5.183c-.06-.795-.122-2.784-.122-4.744v-17.17zm16.923 15.946c0 .274 0 .58-.061.826-.244.887-1.165 1.56-2.055 1.56-1.073 0-1.657-.489-1.657-1.346 0-1.225 1.226-1.867 3.773-1.867zm5.584-2.815c0-4.041-2.211-6.642-7.392-6.642-3.376 0-5.616.887-6.597 1.408l1.013 3.61c.982-.55 2.881-1.194 4.571-1.194 2.269 0 2.637.674 2.637 1.225v.093c-5.705 0-9.324 1.866-9.324 5.906 0 2.448 1.962 4.745 5.275 4.745 1.718 0 3.314-.429 4.417-1.654h.123l.306 1.285h5.215c-.152-.672-.244-2.143-.244-3.733zM492.69 43.677c0-2.143-.061-3.888-.124-5.235h4.817l.216 1.928h.121c.461-.641 1.78-2.295 4.725-2.295 1.962 0 3.619.918 4.324 2.542h.061c.676-.858 1.412-1.47 2.24-1.9q1.242-.642 2.853-.642c3.344 0 5.491 2.325 5.491 6.733v8.693h-5.582v-7.836c0-1.958-.675-2.999-1.994-2.999-.982 0-1.596.643-1.841 1.378-.123.366-.153.856-.153 1.162V53.5h-5.584v-7.836c0-1.958-.673-2.999-1.993-2.999-1.167 0-1.657.887-1.842 1.347-.152.397-.152.796-.152 1.133V53.5h-5.583zm34.607 6.181c-1.871 0-2.73-1.745-2.73-3.886 0-1.96.736-3.888 2.76-3.888 1.841 0 2.639 1.776 2.639 3.888 0 2.508-.982 3.886-2.639 3.886zm-.061 4.009c4.847 0 8.802-2.937 8.802-8.079 0-4.53-3.464-7.713-8.464-7.713-5.799 0-9.019 3.427-9.019 8.017 0 4.96 3.956 7.775 8.65 7.775zm14.295-15.424 1.901 6.519c.338 1.132.552 2.234.737 3.275h.122c.184-1.102.368-2.112.674-3.275l1.719-6.52h6.195l-5.949 15.06h-5.952l-5.767-15.06z" clip-rule="evenodd"/><path fill="#fff" fill-rule="evenodd" d="M561.287 56.486a16.6 16.6 0 0 1-3.454-10.158c0-4.222.886-8.065 3.475-11.005l-4.133-2.218c-2.883 3.635-3.98 8.229-3.98 13.223a21.2 21.2 0 0 0 3.981 12.399zm3.013-26.06a2.98 2.98 0 0 1-2.985 2.979 2.98 2.98 0 0 1-2.985-2.98 2.98 2.98 0 0 1 2.985-2.978 2.98 2.98 0 0 1 2.985 2.979" clip-rule="evenodd"/><path fill="#fff" d="M380.961 39.435c-.454.63-1.119.91-1.994.91-.874 0-1.539-.315-1.994-.91-.454-.63-.699-1.504-.699-2.624s.245-2.029.699-2.624c.455-.63 1.155-.91 1.994-.91.875 0 1.54.316 1.994.91.455.63.7 1.505.7 2.624 0 1.155-.21 2.03-.7 2.624m2.379-6.892c-.944-1.19-2.414-1.784-4.373-1.784s-3.393.595-4.373 1.784c-.944 1.19-1.434 2.624-1.434 4.268 0 1.68.49 3.079 1.434 4.268.945 1.19 2.414 1.784 4.373 1.784s3.394-.594 4.373-1.784c.945-1.19 1.435-2.624 1.435-4.268s-.455-3.043-1.435-4.268m-25.998 5.489c-.035 1.014-.315 1.679-.84 2.064a3.07 3.07 0 0 1-1.784.56c-.42 0-.77-.105-1.049-.35-.28-.21-.42-.595-.42-1.12 0-.56.245-.98.699-1.26.28-.174.735-.28 1.365-.419l.665-.14c.349-.07.594-.14.804-.21s.385-.175.56-.28zm1.504-6.472c-.979-.49-2.099-.735-3.323-.735-1.924 0-3.289.49-4.058 1.505-.49.63-.77 1.469-.84 2.448h2.869q.105-.681.419-1.05c.28-.349.805-.524 1.505-.524.629 0 1.119.07 1.434.28.315.175.49.49.49.98q0 .576-.63.84c-.245.104-.63.174-1.189.244l-1.015.14q-1.731.21-2.624.734c-1.084.63-1.644 1.645-1.644 3.044 0 1.085.35 1.924 1.015 2.519s1.539.84 2.554.874c6.506.28 6.436-3.428 6.506-4.198v-4.267q0-2.1-1.469-2.834m-14.818 1.816c.735 0 1.295.244 1.645.7.244.349.384.734.454 1.154h3.219c-.175-1.61-.735-2.764-1.714-3.394q-1.417-.944-3.674-.944c-1.784 0-3.148.524-4.163 1.609-1.014 1.084-1.504 2.589-1.504 4.548 0 1.714.455 3.148 1.364 4.198.91 1.084 2.344 1.609 4.268 1.609s3.394-.665 4.373-1.96a4.93 4.93 0 0 0 1.05-2.553h-3.184c-.07.595-.245 1.085-.559 1.47-.315.384-.84.56-1.575.56-1.049 0-1.749-.456-2.099-1.435-.21-.49-.315-1.19-.315-1.994q0-1.313.315-2.1c.315-.979 1.05-1.468 2.099-1.468m-6.623-2.516c-6.577 0-6.192 5.843-6.192 5.843v5.912h2.974v-5.563c0-.91.105-1.574.35-2.029q.629-1.155 2.413-1.154h.35c.14 0 .315.035.49.035V30.86zm-15.001 3.097c.42-.42 1.015-.664 1.785-.664.699 0 1.294.21 1.749.63s.734 1.014.804 1.783h-5.107c.105-.734.35-1.329.769-1.749m4.024 5.563c-.14.175-.245.35-.42.454-.42.35-.98.455-1.679.455-.63 0-1.155-.105-1.61-.385-.734-.454-1.154-1.224-1.224-2.378h8.256c0-.98-.035-1.75-.105-2.24a5.8 5.8 0 0 0-.91-2.343c-.524-.77-1.189-1.33-1.959-1.68-.804-.35-1.679-.524-2.658-.524-1.68 0-3.009.525-4.058 1.574q-1.575 1.575-1.575 4.513c0 2.099.595 3.603 1.749 4.548s2.484 1.4 3.989 1.4c1.819 0 3.253-.56 4.268-1.645.559-.595.874-1.155 1.049-1.714zm-9.063 3.1h-2.729v-6.892c0-.63-.21-2.134-1.994-2.134-1.189 0-2.064.874-2.064 2.134v6.892h-2.729v-6.892c0-.63-.175-2.134-1.994-2.134-1.224 0-2.064.874-2.064 2.134v6.892h-2.729v-6.822c0-2.834 1.89-4.968 4.793-4.968 1.435 0 2.624.595 3.394 1.575.804-.98 1.994-1.575 3.393-1.575 2.974 0 4.723 2.064 4.723 4.968zm51.344-3.143c-.42.63-1.084.944-1.924.944q-1.259 0-1.889-.944c-.42-.63-.63-1.54-.63-2.589 0-.98.21-1.784.595-2.449.42-.665 1.05-.98 1.924-.98.56 0 1.085.175 1.504.525.7.595 1.05 1.68 1.05 3.044.035 1.014-.21 1.819-.63 2.449m3.569-12.21s-3.009-.314-3.009 2.1v3.218a4.05 4.05 0 0 0-1.294-1.26c-.525-.314-1.155-.454-1.82-.454q-2.256 0-3.568 1.679c-.909 1.12-1.329 2.729-1.329 4.653 0 1.679.455 3.043 1.364 4.128.91 1.084 2.694 1.54 4.268 1.54 5.493 0 5.458-4.724 5.458-4.724zM354.68 51.382c.42-.42 1.015-.63 1.749-.63.7 0 1.26.21 1.749.595.455.42.735 1.015.77 1.784h-5.073c.14-.734.385-1.33.805-1.749m3.988 5.528c-.14.174-.245.314-.42.454-.419.35-1.014.455-1.679.455-.63 0-1.119-.105-1.574-.385-.735-.454-1.12-1.26-1.19-2.379h8.187c0-.98-.035-1.714-.105-2.239-.14-.874-.42-1.644-.91-2.344-.525-.77-1.154-1.329-1.959-1.679-.77-.35-1.679-.524-2.659-.524-1.644 0-3.008.524-4.023 1.574s-1.539 2.519-1.539 4.478c0 2.099.56 3.568 1.714 4.513 1.155.91 2.484 1.399 3.953 1.399 1.819 0 3.219-.56 4.233-1.644.56-.56.875-1.155 1.015-1.715h-3.044zm-8.388-8.58h-.14c-6.577 0-6.192 5.843-6.192 5.843v5.807h2.973v-5.457c0-.91.105-1.575.35-2.03q.63-1.154 2.414-1.154h.35c.14 0 .315.035.489.035V48.33zm-26.52-1.54v13.154h2.798V44.656c.035 0-2.798-.105-2.798 2.134m8.12.822h-3.001V44.64h3.001zm-3.009 12.367h3.007V48.622h-3.007zm11.057-.029h-3.008l-3.951-11.33h3.147l2.273 7.973 1.994-6.96c.244-.699.699-1.013 1.363-1.013h2.204z"/><path fill="#1a202d" d="M289.653 39.892c0-7.937-9.848-14.367-21.984-14.367s-21.983 6.46-21.983 14.367v.84c0 8.399 8.602 15.206 21.983 15.206 13.468 0 21.984-6.807 21.984-15.207z"/><path fill="#2f3643" d="M288.811 39.89c0 7.443-9.472 13.526-21.144 13.526s-21.144-6.054-21.144-13.527 9.472-13.526 21.144-13.526 21.144 6.054 21.144 13.526"/><path fill="#949eb0" d="M260.644 35.608c0 .029-.231.231-.087.405.348.435 1.362.666 2.404.435.609-.145 1.42-.782 2.173-1.39.84-.667 1.651-1.333 2.491-1.594.868-.29 1.448-.173 1.824-.058.406.116.898.377 1.651.956 1.448 1.1 7.27 6.17 8.255 7.038.811-.376 4.402-1.911 9.297-2.983-.434-2.607-1.998-4.982-4.402-6.951-3.36 1.419-7.444 2.143-11.441.174-.029 0-2.201-1.043-4.316-.985-3.186.087-4.547 1.448-5.995 2.896z"/><path fill="#949eb0" d="M279.156 42.013c-.058-.058-6.836-5.995-8.371-7.125-.898-.666-1.39-.84-1.911-.898-.261-.029-.637.03-.898.087-.724.203-1.651.811-2.462 1.477-.869.695-1.68 1.333-2.404 1.506-.956.203-2.143-.029-2.665-.405-.202-.145-.376-.319-.434-.492-.203-.464.174-.811.232-.898l1.853-2.028c.232-.231.435-.434.666-.637-.608.087-1.158.232-1.708.377-.667.202-1.333.376-1.999.376-.29 0-1.738-.232-2.027-.319-1.68-.463-3.186-.926-5.388-1.94-2.664 1.97-4.431 4.46-4.952 7.183.376.116.984.29 1.245.347 6.024 1.333 7.878 2.723 8.226 3.013a2.02 2.02 0 0 1 1.477-.666c.666 0 1.274.347 1.622.84a2.3 2.3 0 0 1 1.419-.493c.29 0 .579.058.869.145.666.232 1.043.695 1.216 1.1.232-.115.522-.173.84-.173.319 0 .667.087.985.231 1.101.464 1.275 1.565 1.188 2.376h.231a2.385 2.385 0 0 1 2.375 2.375c0 .405-.115.782-.289 1.13.347.202 1.274.665 2.056.55.637-.087.869-.29.956-.435.058-.087.116-.174.058-.26l-1.709-1.883s-.29-.261-.174-.377c.087-.116.261.058.377.145.869.724 1.911 1.796 1.911 1.796.029 0 .087.145.464.232.347.057.927.028 1.332-.32.116-.086.203-.202.29-.289l-.029.03c.434-.551-.058-1.13-.058-1.13l-1.97-2.23s-.289-.261-.173-.377c.086-.087.26.058.405.145.753.492 1.622 1.39 2.491 2.23.174.116.927.58 1.912-.058.608-.406.724-.869.695-1.245-.029-.493-.406-.84-.406-.84l-2.693-2.723s-.29-.232-.174-.377c.087-.115.26.058.376.145.869.724 3.186 2.868 3.186 2.868.029.029.84.608 1.825-.03.348-.231.579-.579.608-.955 0-.695-.492-1.1-.492-1.1"/><path fill="#949eb0" d="M266.049 45.46c-.406 0-.869.231-.927.202-.029-.029.029-.202.058-.29.029-.086.579-1.766-.753-2.345-1.043-.435-1.651.058-1.883.29-.058.057-.087.057-.087-.03-.029-.29-.144-1.1-1.042-1.39-1.275-.376-2.086.492-2.288.811a1.446 1.446 0 0 0-1.449-1.274c-.811 0-1.477.666-1.477 1.477 0 .81.666 1.477 1.477 1.477a1.4 1.4 0 0 0 1.014-.405v.057c-.058.348-.174 1.68 1.217 2.23.55.203 1.042.058 1.419-.231.116-.087.145-.058.116.058-.058.347 0 1.072 1.042 1.477.782.319 1.246 0 1.535-.29.145-.115.174-.087.174.087a1.855 1.855 0 0 0 1.854 1.796c1.014 0 1.854-.84 1.854-1.854 0-1.042-.84-1.853-1.854-1.853"/><path fill="#fff" d="m40.608 54.082-9.352-10.577h9.352v-1.84h-9.352l9.352-10.578h-4.666L21.917 41.664h-2.849L17.2 43.505h4.718l14.025 10.577zm5.853-5.737h12.574V45.56h-9.203v-1.758h8.378V41.38h-8.379v-1.74h9.217v-2.81H46.48zm30.138 0h3.358V36.83h-5.73l-3.945 7.193-3.893-7.193h-5.671v11.514h3.351v-8.18h.084l4.512 8.224h3.312l4.512-8.224h.135zm15.507-3.67c0 .677-.335 1.057-.922 1.057h-6.18v-2.069h6.18a.93.93 0 0 1 .697.3.9.9 0 0 1 .225.712m-.361-4.308c0 .633-.303.95-.864.95h-5.878v-1.899h5.878a.88.88 0 0 1 .648.285.85.85 0 0 1 .216.664m1.824 2.12a2.4 2.4 0 0 0 1.234-.945 2.32 2.32 0 0 0 .377-1.491c0-2.163-1.186-3.22-3.648-3.22h-9.86v11.514H92.06c2.436 0 3.519-.899 3.519-3.126 0-1.638-.6-2.492-1.992-2.732zm34.618 5.858h12.568V45.56h-9.217v-1.758h8.379V41.38h-8.379v-1.74h9.217v-2.81h-12.568zM107.833 41c0 1.094-.278 1.518-1.212 1.518h-6.381v-2.815h6.381c.863 0 1.212.411 1.212 1.265zm-.033 7.313h3.345V45.96a2.03 2.03 0 0 0-.434-1.425 2.1 2.1 0 0 0-1.3-.764c1.38-.348 1.824-1.303 1.824-3.201 0-2.992-1.173-3.796-4.511-3.796h-9.849v11.514h3.365v-2.942h6.045c1.109 0 1.515.209 1.515 1.183zm14.115-4.681h-4.44l2.197-4.074zm2.385 4.681h3.867l-6.207-11.514h-4.511l-6.33 11.514h3.867l1.129-1.898h7.057zm29.049-7.345c0 1.095-.271 1.519-1.206 1.519h-6.387v-2.815h6.387c.857 0 1.206.41 1.206 1.265zm3.409-.43c0-2.992-1.179-3.795-4.512-3.795h-9.854v11.513h3.364v-2.942h6.053c1.101 0 1.514.21 1.514 1.183v1.76h3.345v-2.354a2.03 2.03 0 0 0-.437-1.426 2.1 2.1 0 0 0-1.303-.763c1.379-.348 1.83-1.303 1.83-3.201m649.733-1.873c-1.1-18.143-16.22-32.621-34.73-32.621s-33.63 14.478-34.73 32.622c0 .733.092 1.466.184 2.199a34.13 34.13 0 0 0 6.506 16.311c6.323 8.614 16.494 14.203 28.04 14.203-16.128 0-29.323-12.553-30.423-28.315-.091-.733-.091-1.466-.091-2.199s0-1.466.091-2.2c1.1-15.76 14.295-28.315 30.423-28.315 11.546 0 21.718 5.59 28.04 14.204a34.1 34.1 0 0 1 6.506 16.311c.092.733.184 1.466.184 2.107 0-.733.091-1.466.091-2.199 0-.641 0-1.374-.091-2.107"/><path fill="#fff" d="M737.031 43.04c1.1 18.143 16.219 32.622 34.73 32.622s33.63-14.479 34.73-32.623c0-.733-.092-1.466-.184-2.199a34.13 34.13 0 0 0-6.506-16.31c-6.323-8.615-16.494-14.204-28.04-14.204 16.128 0 29.323 12.554 30.423 28.315.091.733.091 1.466.091 2.2 0 .732 0 1.465-.091 2.198-1.1 15.853-14.295 28.316-30.423 28.316-11.546 0-21.718-5.59-28.041-14.204a34.13 34.13 0 0 1-6.506-16.31c-.091-.734-.183-1.467-.183-2.108 0 .733-.092 1.466-.092 2.199 0 .641 0 1.374.092 2.107"/><path fill="#fff" d="M767.453 12.708v9.622h6.689a2.895 2.895 0 0 0 2.933-2.933c0-.824-.367-1.557-.917-2.107.367-.459.642-1.1.733-1.741a2.854 2.854 0 0 0-2.84-2.841zm2.199 2.016h4.032a.82.82 0 0 1 .763.509q.062.151.062.316a.82.82 0 0 1-.509.763.8.8 0 0 1-.316.061h-4.032zm0 3.665h4.124c.55 0 .916.367.916.917s-.366.916-.916.916h-4.124zm1.009 5.774-4.765 9.621h2.475l.733-1.65h5.406l.733 1.65h2.474l-4.856-9.621zm1.1 2.474 1.649 3.482h-3.298zm3.299 9.255h2.749l-4.857 6.231v3.39h-2.291v-3.39l-4.856-6.23h2.749l3.299 4.398zm15.762 0v9.621h2.291v-3.665h1.741l2.749 3.665h2.749l-2.84-3.757a2.97 2.97 0 0 0 2.107-2.84c0-1.65-1.283-3.024-2.932-3.024zm2.383 2.016h3.299c.458 0 .916.458.916.916a.92.92 0 0 1-.916.916h-3.299zm-49.209-2.016v9.621h6.689a2.895 2.895 0 0 0 2.933-2.932c0-.825-.367-1.558-.917-2.108.367-.458.642-1.1.733-1.74a2.854 2.854 0 0 0-2.84-2.841zm2.199 2.016h4.032a.82.82 0 0 1 .763.508.84.84 0 0 1-.179.9.8.8 0 0 1-.584.241h-4.032zm0 3.665h4.124c.55 0 .916.367.916.916 0 .55-.366.917-.916.917h-4.124zm13.562-5.681-4.765 9.622h2.474l.733-1.65h5.407l.733 1.65h2.474l-4.857-9.622zm1.1 2.474 1.649 3.482h-3.299zm26.94-2.474v2.068h-6.414v1.619h6.231v2.068h-6.231v1.799h6.414v2.068h-8.705v-9.622zm-20.436 23.642v9.621h2.291V65.49h1.741l2.749 3.665h2.749l-2.84-3.757a2.97 2.97 0 0 0 2.107-2.84c0-1.65-1.283-3.024-2.932-3.024zm2.383 2.016h3.299c.458 0 .916.458.916.916a.92.92 0 0 1-.916.916h-3.299zm6.415-13.95v2.068h-6.415v1.618h6.231v2.069h-6.231v1.798h6.415v2.068h-8.706V47.6zm243.911-19.106c0-1 .81-1.807 1.81-1.809 1-.001 1.81.805 1.81 1.8v7.46a1.81 1.81 0 0 1-3.62 0zm9.24 11.996c-.69-.73-.69-1.885.01-2.613 2.43-2.52 4.84-5.057 7.27-7.578.74-.77 1.98-.766 2.73.003a1.82 1.82 0 0 1-.01 2.527c-2.43 2.557-4.89 5.095-7.32 7.646-.73.764-1.95.778-2.68.015m-64.635-3.343c.908-.216 1.842-.337 2.785-.303 3.105-.077 6.123 1.557 8.043 4.066q.514.663.918 1.404c.698 1.275-.368 2.657-1.82 2.654-.862-.002-1.621-.514-2.123-1.214-.567-.79-1.281-1.467-2.121-1.928a6.1 6.1 0 0 0-2.231-.752c-.727-.017-1.47-.078-2.188.112a6.14 6.14 0 0 0-3.166 1.851c-1.107 1.09-1.851 2.612-1.92 4.212-.138 1.522.139 3.114.969 4.394.796 1.228 1.929 2.248 3.269 2.776 2.24.865 4.956.346 6.677-1.418q.384-.406.715-.86c.513-.706 1.285-1.229 2.157-1.23 1.448-.004 2.506 1.359 1.81 2.628a12 12 0 0 1-1.075 1.624c-.666.718-1.315 1.479-2.128 2.015-3.659 2.63-8.978 2.482-12.411-.493-1.073-.951-2.05-2.041-2.716-3.338-1.237-2.292-1.548-5.051-1.107-7.62.372-2.18 1.462-4.177 2.975-5.717 1.263-1.366 2.889-2.413 4.688-2.863m14.945 1.726a2.028 2.028 0 1 1 4.056 0v18.24a2.028 2.028 0 1 1-4.056 0zm12.256 2.417c.769-.164 1.556-.07 2.335-.095.899.078 1.807.216 2.664.536.856.311 1.747.7 2.343 1.444.71.874.962 2.042 1.012 3.166v10.69a2.136 2.136 0 0 1-2.128 2.132q-.728.003-1.458-.009a.54.54 0 0 1-.537-.54c.001-.481-.57-.748-.986-.508-1.016.589-2.186.887-3.332.983-.977.173-1.989.018-2.915-.31-1.202-.416-2.188-1.454-2.542-2.725-.381-1.358-.303-2.837.147-4.16.484-1.35 1.66-2.31 2.949-2.75 1.321-.485 2.714-.643 4.095-.868.69-.112 1.464-.098 1.999-.548a1.44 1.44 0 0 0 .427-.6c.156-.631.018-1.427-.51-1.825-.588-.406-1.306-.484-1.989-.51-.614.017-1.254.026-1.799.363a1.9 1.9 0 0 0-.485.414c-.659.78-1.427 1.606-2.447 1.606-1.23 0-2.234-1.098-1.841-2.263.209-.62.507-1.199.95-1.686.986-1.236 2.543-1.816 4.048-1.937m2.992 9.635c-.804.19-1.591.441-2.404.57-.649.13-1.332.355-1.791.874-.64.787-.691 2.007-.19 2.889.216.406.649.605 1.047.744a4.04 4.04 0 0 0 3.641-1.125c.709-.926.805-2.098.803-3.254-.001-.596-.519-.802-1.106-.698m15.022-9.133c.22-.056.43-.12.64-.184 1.05-.313 1.91.532 1.93 1.629v.127c.03 1.213-1.08 1.952-2.24 2.311-1.58.458-2.91 1.911-3.09 3.641-.01.38-.11.753-.11 1.133v6.661a2.04 2.04 0 0 1-2.04 2.042c-1.11 0-2.01-.904-2.01-2.019-.01-4.376 0-8.753.01-13.135 0-1.101.89-1.996 1.99-1.969.47.012.93.028 1.4.045.3.011.53.251.53.547-.01.522.67.756 1.05.399.57-.531 1.22-.966 1.94-1.228m10.1-.441c.61-.06 1.21-.121 1.82-.07 3.64.052 6.95 2.976 7.83 6.625.75 2.984.01 6.427-2.15 8.589a8.23 8.23 0 0 1-4.06 2.502c-.48.126-.98.156-1.48.157-.38 0-.75-.001-1.13-.003-.5-.001-1.01-.026-1.5-.152-2.31-.6-4.29-2.332-5.46-4.468-1.35-2.594-1.35-5.89-.03-8.501 1.25-2.405 3.53-4.29 6.16-4.68m.33 4.229c-1.21.285-2.24 1.176-2.86 2.283-.93 1.617-.78 3.823.37 5.276 1.17 1.756 3.57 2.352 5.42 1.453 1.07-.502 1.88-1.488 2.33-2.603a5.03 5.03 0 0 0-.19-4.005c-.63-1.236-1.8-2.214-3.14-2.439-.64-.052-1.29-.078-1.93.035m12.15 2.535a1.89 1.89 0 0 1 1.89-1.895h7.07a1.874 1.874 0 1 1-.01 3.751c-2.36 0-4.72.006-7.09.005-1.03 0-1.86-.83-1.86-1.86"/><g clip-path="url(#a)"><path fill="#fff" d="M1184.62 41.228c.64-1.164 1.27-2.329 1.91-3.493l2.04-2.847c.78-1.03 1.55-2.055 2.33-3.085.82-.824 1.65-1.647 2.47-2.471.62-.317 1.28-.578 1.85-.958 1.77-1.153 3.44-2.452 5.26-3.513 3.14-1.841 3.18-1.786 6.24.867-1.56.784-3.14 1.394-4.51 2.317-1.98 1.334-3.81 2.895-5.71 4.36-.82.82-1.64 1.635-2.46 2.455-.84.935-1.69 1.87-2.53 2.804-.72 1.045-1.45 2.095-2.17 3.14-.55 1.315-1.12 2.63-1.67 3.948-.5 1.434-1.01 2.863-1.51 4.297-.52 2.447-1.1 4.887-1.53 7.35-.18.998-.03 2.055-.03 3.362-1.82-1.081-3.86-1.497-3.79-3.976.34-2.21.68-4.42 1.03-6.629l1.29-4.404 1.5-3.516z"/><path fill="#fff" d="M1198.54 34.833c1.86-1.192 3.7-2.424 5.59-3.568.95-.575 1.98-1.042 2.99-1.485 2.84-1.228 3.16-1.07 4.38 1.952-2.38 1.18-4.84 2.23-7.11 3.588-1.27.764-2.24 2.043-3.35 3.089q-1.32 1.212-2.64 2.42c-.81 1.18-1.63 2.355-2.44 3.535-.64 1.45-1.29 2.903-1.93 4.353-.65 2.26-1.53 4.486-1.9 6.795-.32 1.976-.07 4.043-.07 6.035-3.32.567-3.9.103-3.89-2.978 0-.788.05-1.576.07-2.364l1.53-7.924 1.86-4.558 2.06-3.275c.79-1.053 1.59-2.107 2.38-3.16l2.46-2.46zm49.27 13.903h-3.1V34.322c1.94-.65 3.37-.064 4.55 1.461 1.44 1.865 2.96 3.679 4.59 5.698v-7.219h3.13v14.3c-1.99.677-3.02.056-3.94-1.873-1.27-2.67-3.08-5.089-4.65-7.615l-.58.265z"/><path fill="#fff" d="M1202.5 41.172c1.17-.823 2.28-1.766 3.53-2.447 2.22-1.216 4.53-2.273 7.12-3.552.36 1.548.6 2.59.86 3.718-3.82 1.406-7.38 2.93-9.71 6.309q-1.32 1.895-2.64 3.785c-2.48 3.675-2.48 7.87-2.42 12.289-1.14.213-2.24.415-3.72.689V55.04c.73-2.257 1.45-4.51 2.17-6.767.79-1.418 1.57-2.836 2.35-4.25.82-.95 1.64-1.896 2.46-2.847zm70.65 7.473V34.183c2.24 0 4.4-.123 6.53.04 1.66.127 2.97.994 3.57 2.689.58 1.659.15 3.108-.9 4.419-.33.404-.74.733-1.16 1.133 1.06 2.015 2.09 3.976 3.13 5.964-2.91.768-3.12.677-4.41-1.846-.99-1.927-2.24-2.617-3.74-2.071v4.134zm3.01-7.195c1.13-.44 2.1-.606 2.76-1.145.63-.507.93-1.41 1.37-2.142-.74-.305-1.45-.709-2.21-.875-.6-.13-1.25.032-1.92.067zm-4.07 7.227c-1.78.087-3.53.705-4.04-1.766-.07-.325-1.09-.63-1.68-.642-1.91-.032-4.11-.867-5.06 1.996-.17.491-1.94.447-3.41.737 1.1-2.978 2.02-5.485 2.95-7.992.66-1.79 1.43-3.544 1.96-5.37.37-1.231.97-1.6 2.23-1.631 1.33-.036 1.81.562 2.21 1.675 1.56 4.309 3.19 8.59 4.84 12.985zm-7.05-10.257c-.7 1.94-1.19 3.295-1.69 4.693h3.4c-.55-1.52-1.03-2.843-1.71-4.693m-32.06-4.237h9.38v3.057H1236c-.04.816-.06 1.45-.1 2.293h5.47v2.887h-5.34v3.117h6.79v3.116h-9.84zm-2.52.511c-.57 1.255-.89 1.956-1.2 2.637-1.47-.162-2.83-.372-4.19-.428-.44-.015-.88.392-1.32.602.27.404.45.97.83 1.188 1.3.753 2.7 1.355 4.03 2.076 2.14 1.156 3.02 2.83 2.6 4.807-.39 1.873-1.8 3.045-4.17 3.295-2.6.273-5.09-.202-7.59-1.54.42-.904.8-1.7 1.13-2.4 1.85.34 3.5.772 5.18.902.73.056 1.51-.506 2.26-.788-.49-.625-.86-1.437-1.49-1.837-1.21-.768-2.62-1.224-3.86-1.952-2.03-1.192-2.69-2.74-2.15-4.598.61-2.083 2.23-2.709 4.13-2.633 1.8.07 3.6.403 5.82.673z"/><path fill="#fff" d="M1205.54 49.188c2.17-2.685 4.63-4.99 8.32-6.126 0 2.015.09 3.639-1.84 4.858-3.03 1.921-4.83 4.772-5.29 8.388-.28 2.214-2.23 2.416-3.83 3.513v-3.612z"/><path fill="#c8c8c8" d="m1188.57 34.892-2.04 2.847c-3.45-2.095-6.89-4.19-10.48-6.367.15-.25.44-1.054 1-1.533.46-.396 1.44-.768 1.86-.539 3.26 1.782 6.45 3.711 9.66 5.596zm4.8-5.56c-.82.824-1.65 1.647-2.47 2.471-3.24-2.083-6.47-4.166-9.69-6.233 1.65-2.174 2.73-2.53 5.21-1.014 2.4 1.461 4.64 3.176 6.95 4.776m-8.75 11.896c-.5 1.172-.99 2.344-1.49 3.516-2.6-2.815-5.8-4.657-9.63-5.785.26-1.157.5-2.206.77-3.437 4.09 1.041 7.48 2.894 10.35 5.702zm-2.79 7.924-1.02 6.63c-.78-3.501-2.78-6.072-5.61-8.261-1.08-.84-1.41-2.654-1.79-4.206 3.74.828 6.36 2.95 8.42 5.837"/></g><path fill="url(#b)" d="M658.377 42.397h5.356v.765h-5.356v5.357h-.766v-5.357h-5.357v-.765h5.357V37.04h.766z"/><path stroke="url(#c)" stroke-linecap="round" stroke-opacity=".4" stroke-width="1.323" d="M658.059.662v84.185"/><path fill="url(#d)" d="M430.076 42.397h5.357v.765h-5.357v5.357h-.765v-5.357h-5.358v-.765h5.358V37.04h.765z"/><path stroke="url(#e)" stroke-linecap="round" stroke-opacity=".4" stroke-width="1.323" d="M429.758.662v84.185"/><path fill="url(#f)" d="M886.678 42.397h5.356v.765h-5.356v5.357h-.766v-5.357h-5.357v-.765h5.357V37.04h.766z"/><path stroke="url(#g)" stroke-linecap="round" stroke-opacity=".4" stroke-width="1.323" d="M886.359.662v84.185"/><path fill="url(#h)" d="M1114.98 42.397h5.35v.765h-5.35v5.357h-.77v-5.357h-5.36v-.765h5.36V37.04h.77z"/><path stroke="url(#i)" stroke-linecap="round" stroke-opacity=".4" stroke-width="1.323" d="M1114.66.662v84.185"/><defs><radialGradient id="c" cx="0" cy="0" r="1" gradientTransform="matrix(-.5 0 0 -42.0926 657.559 42.754)" gradientUnits="userSpaceOnUse"><stop stop-color="#fff"/><stop offset="1" stop-color="#fff" stop-opacity="0"/></radialGradient><radialGradient id="e" cx="0" cy="0" r="1" gradientTransform="matrix(-.5 0 0 -42.0926 429.258 42.754)" gradientUnits="userSpaceOnUse"><stop stop-color="#fff"/><stop offset="1" stop-color="#fff" stop-opacity="0"/></radialGradient><radialGradient id="g" cx="0" cy="0" r="1" gradientTransform="matrix(-.5 0 0 -42.0926 885.859 42.754)" gradientUnits="userSpaceOnUse"><stop stop-color="#fff"/><stop offset="1" stop-color="#fff" stop-opacity="0"/></radialGradient><radialGradient id="i" cx="0" cy="0" r="1" gradientTransform="matrix(-.5 0 0 -42.0926 1114.16 42.754)" gradientUnits="userSpaceOnUse"><stop stop-color="#fff"/><stop offset="1" stop-color="#fff" stop-opacity="0"/></radialGradient><linearGradient id="b" x1="652.254" x2="663.733" y1="42.477" y2="42.477" gradientUnits="userSpaceOnUse"><stop stop-color="#4e75ff"/><stop offset="1" stop-color="#f44a69"/></linearGradient><linearGradient id="d" x1="423.953" x2="435.433" y1="42.477" y2="42.477" gradientUnits="userSpaceOnUse"><stop stop-color="#4e75ff"/><stop offset="1" stop-color="#f44a69"/></linearGradient><linearGradient id="f" x1="880.555" x2="892.034" y1="42.477" y2="42.477" gradientUnits="userSpaceOnUse"><stop stop-color="#4e75ff"/><stop offset="1" stop-color="#f44a69"/></linearGradient><linearGradient id="h" x1="1108.85" x2="1120.33" y1="42.477" y2="42.477" gradientUnits="userSpaceOnUse"><stop stop-color="#4e75ff"/><stop offset="1" stop-color="#f44a69"/></linearGradient><clipPath id="a"><path fill="#fff" d="M1173.41 23.594h110.909v38.365H1173.41z"/></clipPath></defs></svg>