<svg width="1316" height="86" viewBox="0 0 1316 86" fill="none" xmlns="http://www.w3.org/2000/svg">
<path fill-rule="evenodd" clip-rule="evenodd" d="M571.601 46.4195C571.601 46.7564 571.601 47.1235 571.539 47.4616C571.355 48.623 570.343 49.6026 568.994 49.6026C567.244 49.6026 565.987 48.3486 565.987 46.1752C565.987 44.2773 566.938 42.6551 569.023 42.6551C570.343 42.6551 571.355 43.6046 571.569 44.7972C571.601 45.0126 571.601 45.2569 571.601 45.4723V46.4195ZM571.601 31.8819V39.8402H571.539C570.741 38.768 569.147 38.372 567.398 38.372C563.533 38.372 560.036 41.3698 560.067 46.3894C560.067 51.4077 563.503 54.1636 567.03 54.1636C568.901 54.1636 570.925 53.5198 572.061 51.6231H572.123L572.337 53.7954H577.52C577.46 52.9999 577.398 51.0106 577.398 49.0514V31.8819H571.601Z" fill="white"/>
<path fill-rule="evenodd" clip-rule="evenodd" d="M588.524 47.8275C588.524 48.1019 588.524 48.4088 588.463 48.6542C588.219 49.5412 587.298 50.2139 586.408 50.2139C585.335 50.2139 584.751 49.7253 584.751 48.8685C584.751 47.6434 585.977 47.0007 588.524 47.0007V47.8275ZM594.108 45.0126C594.108 40.9715 591.897 38.3708 586.716 38.3708C583.34 38.3708 581.1 39.2578 580.119 39.7789L581.132 43.3892C582.114 42.8392 584.013 42.1954 585.703 42.1954C587.972 42.1954 588.34 42.8693 588.34 43.4205V43.5131C582.635 43.5131 579.016 45.3785 579.016 49.4185C579.016 51.8674 580.978 54.1636 584.291 54.1636C586.009 54.1636 587.605 53.7351 588.708 52.5101H588.831L589.137 53.7954H594.352C594.2 53.1226 594.108 51.6521 594.108 50.0623V45.0126Z" fill="white"/>
<path fill-rule="evenodd" clip-rule="evenodd" d="M492.69 43.6773C492.69 41.534 492.629 39.789 492.566 38.4424H497.383L497.599 40.3703H497.72C498.181 39.7288 499.5 38.0753 502.445 38.0753C504.407 38.0753 506.064 38.9935 506.769 40.6169H506.83C507.506 39.7589 508.242 39.1464 509.07 38.7179C509.898 38.2895 510.849 38.0753 511.923 38.0753C515.267 38.0753 517.414 40.4004 517.414 44.8085V53.501H511.832V45.6654C511.832 43.7074 511.157 42.6664 509.838 42.6664C508.856 42.6664 508.242 43.3091 507.997 44.0443C507.874 44.4102 507.844 44.9 507.844 45.2057V53.501H502.26V45.6654C502.26 43.7074 501.587 42.6664 500.267 42.6664C499.1 42.6664 498.61 43.5534 498.425 44.0131C498.273 44.4102 498.273 44.8085 498.273 45.1455V53.501H492.69V43.6773Z" fill="white"/>
<path fill-rule="evenodd" clip-rule="evenodd" d="M527.297 49.858C525.426 49.858 524.567 48.113 524.567 45.9721C524.567 44.0129 525.303 42.0838 527.327 42.0838C529.168 42.0838 529.966 43.86 529.966 45.9721C529.966 48.4801 528.984 49.858 527.327 49.858H527.297ZM527.236 53.8667C532.083 53.8667 536.038 50.9302 536.038 45.788C536.038 41.2582 532.574 38.0751 527.574 38.0751C521.775 38.0751 518.555 41.5025 518.555 46.0925C518.555 51.0518 522.511 53.8667 527.205 53.8667H527.236Z" fill="white"/>
<path fill-rule="evenodd" clip-rule="evenodd" d="M541.531 38.4427L543.432 44.9617C543.77 46.0941 543.984 47.1965 544.169 48.2374H544.291C544.475 47.1351 544.659 46.1254 544.965 44.9617L546.684 38.4427H552.879L546.93 53.5024H540.978L535.211 38.4427H541.531Z" fill="white"/>
<path fill-rule="evenodd" clip-rule="evenodd" d="M561.287 56.486C559.121 53.6711 557.833 50.1488 557.833 46.3277C557.833 42.1059 558.719 38.2628 561.308 35.3229L557.175 33.1055C554.292 36.7402 553.195 41.3336 553.195 46.3277C553.195 50.9524 554.67 55.2331 557.176 58.7266L561.287 56.486Z" fill="white"/>
<path fill-rule="evenodd" clip-rule="evenodd" d="M564.3 30.4255C564.3 32.072 562.963 33.4048 561.315 33.4048C559.665 33.4048 558.33 32.072 558.33 30.4255C558.33 28.7813 559.665 27.4473 561.315 27.4473C562.963 27.4473 564.3 28.7813 564.3 30.4255Z" fill="white"/>
<path d="M380.961 39.4349C380.507 40.0646 379.842 40.3445 378.967 40.3445C378.093 40.3445 377.428 40.0296 376.973 39.4349C376.519 38.8052 376.274 37.9306 376.274 36.8112C376.274 35.6917 376.519 34.7821 376.973 34.1874C377.428 33.5577 378.128 33.2778 378.967 33.2778C379.842 33.2778 380.507 33.5927 380.961 34.1874C381.416 34.8171 381.661 35.6917 381.661 36.8112C381.661 37.9656 381.451 38.8402 380.961 39.4349ZM383.34 32.5432C382.396 31.3537 380.926 30.759 378.967 30.759C377.008 30.759 375.574 31.3537 374.594 32.5432C373.65 33.7326 373.16 35.1669 373.16 36.8112C373.16 38.4904 373.65 39.8897 374.594 41.0791C375.539 42.2686 377.008 42.8633 378.967 42.8633C380.926 42.8633 382.361 42.2686 383.34 41.0791C384.285 39.8897 384.775 38.4554 384.775 36.8112C384.775 35.1669 384.32 33.7676 383.34 32.5432Z" fill="white"/>
<path d="M357.342 38.0318C357.307 39.0463 357.027 39.711 356.502 40.0958C355.943 40.4806 355.348 40.6555 354.718 40.6555C354.298 40.6555 353.948 40.5506 353.669 40.3057C353.389 40.0958 353.249 39.711 353.249 39.1862C353.249 38.6265 353.494 38.2067 353.948 37.9268C354.228 37.7519 354.683 37.6469 355.313 37.507L355.978 37.3671C356.327 37.2971 356.572 37.2271 356.782 37.1572C356.992 37.0872 357.167 36.9823 357.342 36.8773V38.0318ZM358.846 31.5598C357.867 31.0701 356.747 30.8252 355.523 30.8252C353.599 30.8252 352.234 31.315 351.465 32.3295C350.975 32.9592 350.695 33.7988 350.625 34.7783H353.494C353.564 34.3235 353.704 33.9737 353.913 33.7288C354.193 33.379 354.718 33.2041 355.418 33.2041C356.047 33.2041 356.537 33.274 356.852 33.4839C357.167 33.6588 357.342 33.9737 357.342 34.4635C357.342 34.8483 357.132 35.1281 356.712 35.3031C356.467 35.408 356.082 35.478 355.523 35.5479L354.508 35.6879C353.354 35.8278 352.479 36.0727 351.884 36.4225C350.8 37.0522 350.24 38.0667 350.24 39.4661C350.24 40.5506 350.59 41.3902 351.255 41.9849C351.919 42.5796 352.794 42.8245 353.809 42.8595C360.315 43.1393 360.245 39.4311 360.315 38.6615V34.3935C360.315 32.9942 359.826 32.0496 358.846 31.5598Z" fill="white"/>
<path d="M344.028 33.3755C344.763 33.3755 345.323 33.6203 345.673 34.0751C345.917 34.425 346.057 34.8098 346.127 35.2296H349.346C349.171 33.6203 348.611 32.4659 347.632 31.8362C346.687 31.2065 345.463 30.8916 343.958 30.8916C342.174 30.8916 340.81 31.4164 339.795 32.5009C338.781 33.5854 338.291 35.0896 338.291 37.0487C338.291 38.7629 338.746 40.1972 339.655 41.2467C340.565 42.3312 341.999 42.856 343.923 42.856C345.847 42.856 347.317 42.1913 348.296 40.8969C348.926 40.0923 349.241 39.2527 349.346 38.3431H346.162C346.092 38.9378 345.917 39.4276 345.603 39.8124C345.288 40.1972 344.763 40.3721 344.028 40.3721C342.979 40.3721 342.279 39.9174 341.929 38.9378C341.719 38.4481 341.614 37.7484 341.614 36.9438C341.614 36.0692 341.719 35.3695 341.929 34.8448C342.244 33.8652 342.979 33.3755 344.028 33.3755Z" fill="white"/>
<path d="M337.405 30.8603C330.828 30.8603 331.213 36.7026 331.213 36.7026V42.6147H334.187V37.0524C334.187 36.1428 334.292 35.4781 334.537 35.0234C334.956 34.2537 335.761 33.8689 336.95 33.8689H337.3C337.44 33.8689 337.615 33.9039 337.79 33.9039V30.8603H337.405Z" fill="white"/>
<path d="M322.404 33.9573C322.824 33.5375 323.419 33.2927 324.189 33.2927C324.888 33.2927 325.483 33.5026 325.938 33.9224C326.393 34.3422 326.672 34.9369 326.742 35.7065H321.635C321.74 34.9719 321.985 34.3771 322.404 33.9573ZM326.428 39.5197C326.288 39.6946 326.183 39.8695 326.008 39.9745C325.588 40.3243 325.028 40.4293 324.329 40.4293C323.699 40.4293 323.174 40.3243 322.719 40.0444C321.985 39.5897 321.565 38.82 321.495 37.6656H329.751C329.751 36.686 329.716 35.9164 329.646 35.4266C329.506 34.5521 329.191 33.7474 328.736 33.0828C328.212 32.3131 327.547 31.7534 326.777 31.4036C325.973 31.0537 325.098 30.8788 324.119 30.8788C322.439 30.8788 321.11 31.4036 320.061 32.4531C319.011 33.5026 318.486 35.0068 318.486 36.9659C318.486 39.0649 319.081 40.5692 320.235 41.5138C321.39 42.4583 322.719 42.9131 324.224 42.9131C326.043 42.9131 327.477 42.3534 328.492 41.2689C329.051 40.6741 329.366 40.1144 329.541 39.5547L326.428 39.5197Z" fill="white"/>
<path d="M317.365 42.6196H314.636V35.7279C314.636 35.0982 314.426 33.5939 312.642 33.5939C311.453 33.5939 310.578 34.4685 310.578 35.7279V42.6196H307.849V35.7279C307.849 35.0982 307.674 33.5939 305.855 33.5939C304.631 33.5939 303.791 34.4685 303.791 35.7279V42.6196H301.062V35.7979C301.062 32.9642 302.952 30.8302 305.855 30.8302C307.29 30.8302 308.479 31.4249 309.249 32.4045C310.053 31.4249 311.243 30.8302 312.642 30.8302C315.616 30.8302 317.365 32.8942 317.365 35.7979V42.6196Z" fill="white"/>
<path d="M368.709 39.4767C368.289 40.1064 367.625 40.4213 366.785 40.4213C365.946 40.4213 365.316 40.1064 364.896 39.4767C364.476 38.847 364.266 37.9375 364.266 36.888C364.266 35.9084 364.476 35.1038 364.861 34.4391C365.281 33.7744 365.911 33.4596 366.785 33.4596C367.345 33.4596 367.87 33.6345 368.289 33.9843C368.989 34.5791 369.339 35.6635 369.339 37.0279C369.374 38.0424 369.129 38.847 368.709 39.4767ZM372.278 27.2675C372.278 27.2675 369.269 26.9527 369.269 29.3665V32.585C368.919 32.0603 368.499 31.6405 367.975 31.3256C367.45 31.0108 366.82 30.8708 366.155 30.8708C364.651 30.8708 363.462 31.4306 362.587 32.55C361.678 33.6695 361.258 35.2787 361.258 37.2028C361.258 38.882 361.713 40.2464 362.622 41.3308C363.532 42.4153 365.316 42.8701 366.89 42.8701C372.383 42.8701 372.348 38.1474 372.348 38.1474L372.278 27.2675Z" fill="white"/>
<path d="M354.68 51.3821C355.1 50.9623 355.695 50.7524 356.429 50.7524C357.129 50.7524 357.689 50.9623 358.178 51.3471C358.633 51.7669 358.913 52.3616 358.948 53.1313H353.875C354.015 52.3966 354.26 51.8019 354.68 51.3821ZM358.668 56.9095C358.528 57.0844 358.423 57.2243 358.248 57.3643C357.829 57.7141 357.234 57.8191 356.569 57.8191C355.939 57.8191 355.45 57.7141 354.995 57.4342C354.26 56.9795 353.875 56.1748 353.805 55.0554H361.992C361.992 54.0758 361.957 53.3412 361.887 52.8164C361.747 51.9418 361.467 51.1722 360.977 50.4725C360.452 49.7029 359.823 49.1432 359.018 48.7933C358.248 48.4435 357.339 48.2686 356.359 48.2686C354.715 48.2686 353.351 48.7933 352.336 49.8428C351.322 50.8923 350.797 52.3616 350.797 54.3207C350.797 56.4197 351.357 57.889 352.511 58.8336C353.666 59.7431 354.995 60.2329 356.464 60.2329C358.283 60.2329 359.683 59.6732 360.697 58.5887C361.257 58.029 361.572 57.4342 361.712 56.8745H358.668V56.9095Z" fill="white"/>
<path d="M350.28 48.3305H350.14C343.563 48.3305 343.948 54.1727 343.948 54.1727V59.98H346.921V54.5226C346.921 53.613 347.026 52.9483 347.271 52.4935C347.691 51.7239 348.495 51.3391 349.685 51.3391H350.035C350.175 51.3391 350.35 51.3741 350.524 51.3741V48.3305H350.28Z" fill="white"/>
<path d="M323.76 46.7901V59.9438H326.558V44.6561C326.593 44.6561 323.76 44.5512 323.76 46.7901Z" fill="white"/>
<path d="M331.88 47.6121H328.879V44.6401H331.88V47.6121Z" fill="white"/>
<path d="M328.871 59.9786H331.878V48.6221H328.871V59.9786Z" fill="white"/>
<path d="M339.928 59.9502H336.92L332.969 48.6197H336.116L338.389 56.593L340.383 49.6338C340.627 48.9344 341.082 48.6197 341.746 48.6197H343.95L339.928 59.9502Z" fill="white"/>
<path d="M289.653 39.8916C289.653 31.9555 279.805 25.5255 267.669 25.5255C255.533 25.5255 245.686 31.9845 245.686 39.8916V40.7315C245.686 49.131 254.288 55.9375 267.669 55.9375C281.137 55.9375 289.653 49.131 289.653 40.7315V39.8916Z" fill="#1A202D"/>
<path d="M288.811 39.8894C288.811 47.3331 279.339 53.4155 267.667 53.4155C255.995 53.4155 246.523 47.3621 246.523 39.8894C246.523 32.4168 255.995 26.3634 267.667 26.3634C279.339 26.3634 288.811 32.4168 288.811 39.8894Z" fill="#2F3643"/>
<path d="M260.644 35.6076C260.644 35.6366 260.413 35.8393 260.557 36.0131C260.905 36.4476 261.919 36.6793 262.961 36.4476C263.57 36.3028 264.381 35.6656 265.134 35.0573C265.974 34.3912 266.785 33.725 267.625 33.4643C268.493 33.1747 269.073 33.2905 269.449 33.4064C269.855 33.5222 270.347 33.7829 271.1 34.3622C272.548 35.4628 278.37 40.5315 279.355 41.4004C280.166 41.0239 283.757 39.4888 288.652 38.4171C288.218 35.8104 286.654 33.4354 284.25 31.4658C280.89 32.885 276.806 33.6091 272.809 31.6396C272.78 31.6396 270.608 30.5969 268.493 30.6548C265.307 30.7417 263.946 32.103 262.498 33.5512L260.644 35.6076Z" fill="#949EB0"/>
<path d="M279.156 42.0133C279.098 41.9554 272.32 36.0178 270.785 34.8882C269.887 34.222 269.395 34.0483 268.874 33.9903C268.613 33.9614 268.237 34.0193 267.976 34.0772C267.252 34.28 266.325 34.8882 265.514 35.5544C264.645 36.2495 263.834 36.8867 263.11 37.0605C262.154 37.2632 260.967 37.0315 260.445 36.655C260.243 36.5102 260.069 36.3364 260.011 36.1626C259.808 35.6992 260.185 35.3516 260.243 35.2647L262.096 33.2373C262.328 33.0056 262.531 32.8028 262.762 32.6001C262.154 32.687 261.604 32.8318 261.054 32.9766C260.387 33.1794 259.721 33.3531 259.055 33.3531C258.765 33.3531 257.317 33.1214 257.028 33.0345C255.348 32.5711 253.842 32.1077 251.64 31.094C248.976 33.0635 247.209 35.5544 246.688 38.277C247.064 38.3928 247.672 38.5666 247.933 38.6245C253.957 39.9569 255.811 41.3471 256.159 41.6368C256.535 41.2313 257.057 40.9706 257.636 40.9706C258.302 40.9706 258.91 41.3182 259.258 41.8106C259.605 41.5499 260.069 41.3182 260.677 41.3182C260.967 41.3182 261.256 41.3761 261.546 41.463C262.212 41.6947 262.589 42.1581 262.762 42.5636C262.994 42.4478 263.284 42.3898 263.602 42.3898C263.921 42.3898 264.269 42.4767 264.587 42.6215C265.688 43.085 265.862 44.1856 265.775 44.9966H266.006C267.31 44.9966 268.381 46.0682 268.381 47.3716C268.381 47.7771 268.266 48.1536 268.092 48.5012C268.439 48.7039 269.366 49.1674 270.148 49.0515C270.785 48.9646 271.017 48.7619 271.104 48.617C271.162 48.5302 271.22 48.4433 271.162 48.3564L269.453 46.4737C269.453 46.4737 269.163 46.213 269.279 46.0972C269.366 45.9813 269.54 46.1551 269.656 46.242C270.525 46.9661 271.567 48.0378 271.567 48.0378C271.596 48.0378 271.654 48.1826 272.031 48.2695C272.378 48.3274 272.958 48.2984 273.363 47.9509C273.479 47.864 273.566 47.7481 273.653 47.6612L273.624 47.6902C274.058 47.1399 273.566 46.5606 273.566 46.5606L271.596 44.3304C271.596 44.3304 271.307 44.0697 271.423 43.9539C271.509 43.867 271.683 44.0118 271.828 44.0987C272.581 44.5911 273.45 45.489 274.319 46.3289C274.493 46.4448 275.246 46.9082 276.231 46.271C276.839 45.8655 276.955 45.4021 276.926 45.0255C276.897 44.5332 276.52 44.1856 276.52 44.1856L273.827 41.463C273.827 41.463 273.537 41.2313 273.653 41.0865C273.74 40.9706 273.913 41.1444 274.029 41.2313C274.898 41.9554 277.215 44.0987 277.215 44.0987C277.244 44.1277 278.055 44.7069 279.04 44.0697C279.388 43.838 279.619 43.4905 279.648 43.1139C279.648 42.4188 279.156 42.0133 279.156 42.0133Z" fill="#949EB0"/>
<path d="M266.049 45.4596C265.643 45.4596 265.18 45.6913 265.122 45.6624C265.093 45.6334 265.151 45.4596 265.18 45.3727C265.209 45.2858 265.759 43.6059 264.427 43.0267C263.384 42.5922 262.776 43.0846 262.544 43.3163C262.486 43.3742 262.457 43.3742 262.457 43.2873C262.428 42.9977 262.313 42.1867 261.415 41.8971C260.14 41.5206 259.329 42.3895 259.127 42.7081C259.04 41.984 258.431 41.4337 257.678 41.4337C256.867 41.4337 256.201 42.0998 256.201 42.9108C256.201 43.7218 256.867 44.388 257.678 44.388C258.084 44.388 258.431 44.2432 258.692 43.9825V44.0404C258.634 44.388 258.518 45.7203 259.909 46.2706C260.459 46.4734 260.951 46.3285 261.328 46.0389C261.444 45.952 261.473 45.981 261.444 46.0968C261.386 46.4444 261.444 47.1685 262.486 47.574C263.268 47.8926 263.732 47.574 264.021 47.2843C264.166 47.1685 264.195 47.1975 264.195 47.3712C264.224 48.385 265.064 49.167 266.049 49.167C267.063 49.167 267.903 48.327 267.903 47.3133C267.903 46.2706 267.063 45.4596 266.049 45.4596Z" fill="#949EB0"/>
<path d="M40.6083 54.0824L31.2563 43.5051H40.6083V41.6642H31.2563L40.6083 31.0869H35.942L21.9171 41.6642H19.0683L17.1992 43.5051H21.9171L35.942 54.0824H40.6083ZM46.4606 48.3447H59.0354V45.5611H49.8315V43.8025H58.2104V41.3796H49.8315V39.6398H59.0482V36.8311H46.48L46.4606 48.3447ZM76.5986 48.3447H79.9566V36.8311H74.2268L70.2823 44.0239L66.3894 36.8311H60.7175V48.3447H64.0691V40.1649H64.1529L68.6646 48.3889H71.9774L76.4891 40.1649H76.6244L76.5986 48.3447ZM92.106 44.6754C92.106 45.3524 91.7708 45.732 91.1843 45.732H85.0033V43.6632H91.1843C91.3154 43.6613 91.4454 43.6871 91.5656 43.7387C91.6857 43.7904 91.7931 43.8669 91.8805 43.9629C91.9679 44.0588 92.0333 44.1722 92.0722 44.2951C92.1111 44.4181 92.1226 44.5478 92.106 44.6754ZM91.745 40.3674C91.745 41 91.4421 41.3163 90.8813 41.3163H85.0033V39.4184H90.8813C91.0037 39.4186 91.1246 39.444 91.2362 39.4932C91.3479 39.5423 91.4476 39.614 91.5292 39.7035C91.6107 39.793 91.672 39.8985 91.7092 40.0128C91.7464 40.1272 91.7586 40.248 91.745 40.3674ZM93.569 42.4866C94.0764 42.316 94.511 41.9834 94.8031 41.5419C95.0951 41.1004 95.228 40.5754 95.1803 40.051C95.1803 37.8875 93.9944 36.8311 91.5323 36.8311H81.6711V48.3447H92.0608C94.4971 48.3447 95.5799 47.4463 95.5799 45.2195C95.5799 43.581 94.9806 42.727 93.5884 42.4866H93.569ZM128.187 48.3447H140.755V45.5611H131.538V43.8025H139.917V41.3796H131.538V39.6398H140.755V36.8311H128.187V48.3447ZM107.833 41C107.833 42.0944 107.555 42.5182 106.621 42.5182H100.24V39.7031H106.621C107.484 39.7031 107.833 40.1143 107.833 40.9683V41ZM107.8 48.313H111.145V45.9597C111.187 45.4483 111.031 44.9402 110.711 44.5353C110.39 44.1303 109.927 43.8576 109.411 43.7708C110.791 43.4229 111.235 42.4676 111.235 40.5698C111.235 37.5775 110.062 36.7741 106.724 36.7741H96.8755V48.2877H100.24V45.346H106.285C107.394 45.346 107.8 45.5548 107.8 46.529V48.313ZM121.915 43.6317H117.475L119.672 39.5576L121.915 43.6317ZM124.3 48.313H128.167L121.96 36.7994H117.449L111.119 48.313H114.986L116.115 46.4152H123.172L124.3 48.313ZM153.349 40.9683C153.349 42.0628 153.078 42.4866 152.143 42.4866H145.756V39.6715H152.143C153 39.6715 153.349 40.0827 153.349 40.9367V40.9683ZM156.758 40.5382C156.758 37.5459 155.579 36.7425 152.246 36.7425H142.392V48.2561H145.756V45.3144H151.809C152.91 45.3144 153.323 45.5232 153.323 46.4974V48.2561H156.668V45.9028C156.709 45.3904 156.554 44.8816 156.231 44.4765C155.909 44.0713 155.444 43.7992 154.928 43.7139C156.307 43.366 156.758 42.4107 156.758 40.5129" fill="white"/>
<path d="M806.491 38.6407C805.391 20.497 790.271 6.01855 771.761 6.01855C753.251 6.01855 738.131 20.497 737.031 38.6407C737.031 39.3738 737.123 40.1069 737.215 40.84C737.948 46.8879 740.239 52.4776 743.721 57.151C750.044 65.7647 760.215 71.3545 771.761 71.3545C755.633 71.3545 742.438 58.8005 741.338 43.0392C741.247 42.3061 741.247 41.573 741.247 40.84C741.247 40.1069 741.247 39.3738 741.338 38.6407C742.438 22.8794 755.633 10.3254 771.761 10.3254C783.307 10.3254 793.479 15.9152 799.801 24.5288C803.284 29.2022 805.574 34.7921 806.307 40.84C806.399 41.573 806.491 42.3061 806.491 42.9475C806.491 42.2145 806.582 41.4814 806.582 40.7483C806.582 40.1069 806.582 39.3738 806.491 38.6407Z" fill="white"/>
<path d="M737.031 43.0395C738.131 61.1833 753.25 75.6616 771.761 75.6616C790.271 75.6616 805.391 61.1833 806.491 43.0395C806.491 42.3064 806.399 41.5732 806.307 40.8402C805.574 34.7923 803.283 29.2025 799.801 24.5291C793.478 15.9154 783.307 10.3257 771.761 10.3257C787.889 10.3257 801.084 22.8796 802.184 38.641C802.275 39.374 802.275 40.1071 802.275 40.8402C802.275 41.5732 802.275 42.3064 802.184 43.0395C801.084 58.8923 787.889 71.3548 771.761 71.3548C760.215 71.3548 750.043 65.7649 743.72 57.1513C740.238 52.4779 737.947 46.8882 737.214 40.8402C737.123 40.1071 737.031 39.374 737.031 38.7326C737.031 39.4657 736.939 40.1987 736.939 40.9318C736.939 41.5732 736.939 42.3064 737.031 43.0395Z" fill="white"/>
<path d="M767.453 12.7081V22.3297H774.142C775.792 22.3297 777.075 21.0469 777.075 19.3974C777.075 18.5727 776.708 17.8396 776.158 17.2898C776.525 16.8315 776.8 16.1901 776.891 15.5487C776.891 13.9909 775.609 12.708 774.051 12.708L767.453 12.7081ZM769.652 14.7241H773.684C773.793 14.7236 773.9 14.7446 774 14.7859C774.101 14.8272 774.192 14.8879 774.268 14.9646C774.345 15.0413 774.406 15.1324 774.447 15.2326C774.488 15.3329 774.51 15.4404 774.509 15.5488C774.51 15.6572 774.488 15.7647 774.447 15.8649C774.406 15.9652 774.345 16.0563 774.268 16.133C774.192 16.2097 774.101 16.2704 774 16.3117C773.9 16.3529 773.793 16.374 773.684 16.3735H769.652V14.7241ZM769.652 18.3894H773.776C774.326 18.3894 774.692 18.756 774.692 19.3059C774.692 19.8556 774.326 20.2221 773.776 20.2221H769.652L769.652 18.3894Z" fill="white"/>
<path d="M770.661 24.1626L765.896 33.7843H768.371L769.104 32.1349H774.51L775.243 33.7843H777.717L772.861 24.1626H770.661ZM771.761 26.6369L773.41 30.119H770.112L771.761 26.6369Z" fill="white"/>
<path d="M775.06 35.8921H777.809L772.952 42.1232V45.5138H770.661V42.1232L765.805 35.8921H768.554L771.853 40.2906L775.06 35.8921Z" fill="white"/>
<path d="M790.822 35.8916V45.5133H793.113V41.848H794.854L797.603 45.5133H800.352L797.512 41.7563C798.703 41.3897 799.619 40.2901 799.619 38.9157C799.619 37.2663 798.336 35.8917 796.687 35.8917L790.822 35.8916ZM793.205 37.9076H796.504C796.962 37.9076 797.42 38.3658 797.42 38.824C797.42 39.2821 797.053 39.7403 796.504 39.7403H793.205V37.9076Z" fill="white"/>
<path d="M743.996 35.8916V45.5133H750.685C752.335 45.5133 753.618 44.2305 753.618 42.581C753.618 41.7563 753.251 41.0232 752.701 40.4734C753.068 40.0152 753.343 39.3738 753.434 38.7324C753.434 37.1745 752.152 35.8916 750.594 35.8916H743.996ZM746.195 37.9077H750.227C750.336 37.9072 750.443 37.9283 750.543 37.9695C750.644 38.0108 750.735 38.0716 750.811 38.1482C750.888 38.2249 750.949 38.316 750.99 38.4162C751.031 38.5165 751.052 38.6239 751.052 38.7324C751.052 38.8408 751.031 38.9482 750.99 39.0485C750.949 39.1487 750.888 39.2398 750.811 39.3165C750.735 39.3932 750.644 39.4539 750.543 39.4952C750.443 39.5365 750.336 39.5575 750.227 39.5571H746.195L746.195 37.9077ZM746.195 41.573H750.319C750.869 41.573 751.235 41.9395 751.235 42.4893C751.235 43.0392 750.869 43.4058 750.319 43.4058H746.195L746.195 41.573Z" fill="white"/>
<path d="M759.757 35.8921L754.992 45.5138H757.466L758.199 43.8644H763.606L764.339 45.5138H766.813L761.956 35.8921H759.757ZM760.857 38.3662L762.506 41.8484H759.207L760.857 38.3662Z" fill="white"/>
<path d="M787.797 35.8921V37.9603H781.383V39.5789H787.614V41.6471H781.383V43.4455H787.797V45.5138H779.092V35.8921H787.797Z" fill="white"/>
<path d="M767.361 59.5337V69.1554H769.652V65.4901H771.393L774.142 69.1554H776.891L774.051 65.3984C775.242 65.0318 776.158 63.9323 776.158 62.5578C776.158 60.9083 774.875 59.5338 773.226 59.5338L767.361 59.5337ZM769.744 61.5496H773.043C773.501 61.5496 773.959 62.0078 773.959 62.4661C773.959 62.9243 773.593 63.3825 773.043 63.3825H769.744L769.744 61.5496Z" fill="white"/>
<path d="M776.159 47.5996V49.6678H769.744V51.2864H775.975V53.3546H769.744V55.153H776.159V57.2213H767.453V47.5996H776.159Z" fill="white"/>
<path d="M1020.07 28.4941C1020.07 27.4948 1020.88 26.6872 1021.88 26.6854C1022.88 26.6836 1023.69 27.4895 1023.69 28.4854V35.9451C1023.69 36.9434 1022.88 37.7527 1021.88 37.7527C1020.88 37.7527 1020.07 36.9434 1020.07 35.9451C1020.07 33.4638 1020.07 30.9793 1020.07 28.4941ZM1029.31 40.4901C1028.62 39.7595 1028.62 38.6047 1029.32 37.877C1031.75 35.3571 1034.16 32.8196 1036.59 30.2991C1037.33 29.529 1038.57 29.5327 1039.32 30.3025C1040 31.0084 1039.99 32.1187 1039.31 32.8288C1036.88 35.3856 1034.42 37.9238 1031.99 40.4753C1031.26 41.2385 1030.04 41.2528 1029.31 40.4901ZM964.675 37.1473C965.583 36.931 966.517 36.8099 967.46 36.8445C970.565 36.7667 973.583 38.4013 975.503 40.9095C975.845 41.351 976.152 41.8213 976.421 42.3142C977.119 43.5886 976.053 44.9707 974.601 44.9677C973.739 44.966 972.98 44.4539 972.478 43.7541C971.911 42.9641 971.197 42.287 970.357 41.8263C969.665 41.4371 968.904 41.169 968.126 41.0738C967.399 41.0565 966.656 40.996 965.938 41.1863C964.735 41.4544 963.62 42.1117 962.772 43.0371C961.665 44.1269 960.921 45.6491 960.852 47.2491C960.714 48.7713 960.991 50.3627 961.821 51.6427C962.617 52.8709 963.75 53.8914 965.09 54.419C967.33 55.2839 970.046 54.765 971.767 53.0006C972.022 52.7302 972.262 52.4429 972.482 52.1404C972.995 51.4349 973.767 50.9122 974.639 50.9105C976.087 50.9075 977.145 52.2698 976.449 53.5393C976.135 54.1115 975.772 54.6547 975.374 55.1628C974.708 55.8807 974.059 56.6418 973.246 57.178C969.587 59.8073 964.268 59.6602 960.835 56.685C959.762 55.7337 958.785 54.6439 958.119 53.3466C956.882 51.0546 956.571 48.2956 957.012 45.7269C957.384 43.5474 958.474 41.5495 959.987 40.01C961.25 38.6435 962.876 37.597 964.675 37.1473ZM979.62 38.8727C979.62 37.7526 980.528 36.8445 981.648 36.8445C982.768 36.8445 983.676 37.7526 983.676 38.8727V57.1131C983.676 58.2333 982.768 59.1413 981.648 59.1413C980.528 59.1413 979.62 58.2333 979.62 57.1131V38.8727ZM991.876 41.2901C992.645 41.1257 993.432 41.2209 994.211 41.1949C995.11 41.2728 996.018 41.4111 996.875 41.7311C997.731 42.0425 998.622 42.4317 999.218 43.1755C999.928 44.049 1000.18 45.2166 1000.23 46.341V57.0305C1000.23 58.2036 999.275 59.16 998.102 59.1631C997.616 59.1644 997.131 59.1633 996.644 59.1544C996.346 59.1489 996.107 58.9113 996.107 58.6132C996.108 58.1329 995.537 57.8656 995.121 58.1064C994.105 58.6949 992.935 58.9928 991.789 59.0894C990.812 59.2624 989.8 59.1067 988.874 58.7781C987.672 58.3629 986.686 57.325 986.332 56.0537C985.951 54.6958 986.029 53.2168 986.479 51.8936C986.963 50.5443 988.139 49.5843 989.428 49.1432C990.749 48.6591 992.142 48.5012 993.523 48.2761C994.213 48.1636 994.987 48.1776 995.522 47.7277C995.71 47.5696 995.861 47.3655 995.949 47.128C996.105 46.4967 995.967 45.701 995.439 45.3031C994.851 44.8966 994.133 44.8188 993.45 44.7928C992.836 44.8101 992.196 44.8188 991.651 45.1561C991.463 45.2673 991.303 45.4082 991.166 45.5701C990.507 46.3497 989.739 47.176 988.719 47.1756C987.489 47.1752 986.485 46.0779 986.878 44.9127C987.087 44.2934 987.385 43.7144 987.828 43.2274C988.814 41.9906 990.371 41.4111 991.876 41.2901ZM994.868 50.9249C994.064 51.1152 993.277 51.366 992.464 51.4957C991.815 51.6254 991.132 51.8503 990.673 52.3692C990.033 53.1563 989.982 54.3758 990.483 55.258C990.699 55.6645 991.132 55.8634 991.53 56.0018C992.818 56.2612 994.228 55.8461 995.171 54.8774C995.88 53.9509 995.976 52.7789 995.974 51.623C995.973 51.0269 995.455 50.8206 994.868 50.9249ZM1009.89 41.7917C1010.11 41.7364 1010.32 41.6721 1010.53 41.6084C1011.58 41.2947 1012.44 42.1401 1012.46 43.2366C1012.46 43.2791 1012.46 43.3216 1012.46 43.3641C1012.49 44.5766 1011.38 45.3164 1010.22 45.675C1008.64 46.1334 1007.31 47.5864 1007.13 49.3162C1007.12 49.6967 1007.02 50.0686 1007.02 50.4492V57.1101C1007.02 58.2367 1006.11 59.1522 1004.98 59.1521C1003.87 59.1521 1002.97 58.2475 1002.97 57.1335C1002.96 52.7571 1002.97 48.38 1002.98 43.9985C1002.98 42.8965 1003.87 42.0015 1004.97 42.0292C1005.44 42.041 1005.9 42.0566 1006.37 42.074C1006.67 42.085 1006.9 42.3251 1006.9 42.6207C1006.89 43.1434 1007.57 43.377 1007.95 43.02C1008.52 42.4887 1009.17 42.0543 1009.89 41.7917ZM1019.99 41.3506C1020.6 41.2901 1021.2 41.2295 1021.81 41.2814C1025.45 41.3333 1028.76 44.2566 1029.64 47.9064C1030.39 50.8903 1029.65 54.3325 1027.49 56.4948C1026.41 57.7129 1024.98 58.5953 1023.43 58.9968C1022.95 59.1227 1022.45 59.1532 1021.95 59.1537C1021.57 59.1541 1021.2 59.1527 1020.82 59.1515C1020.32 59.1499 1019.81 59.1255 1019.32 58.9986C1017.01 58.399 1015.03 56.6668 1013.86 54.5315C1012.51 51.9368 1012.51 48.6416 1013.83 46.0296C1015.08 43.6252 1017.36 41.7398 1019.99 41.3506ZM1020.32 45.5799C1019.11 45.8653 1018.08 46.7561 1017.46 47.8632C1016.53 49.4805 1016.68 51.686 1017.83 53.139C1019 54.8947 1021.4 55.4915 1023.25 54.592C1024.32 54.0904 1025.13 53.1044 1025.58 51.9887C1026.08 50.7087 1026 49.2038 1025.39 47.9843C1024.76 46.7475 1023.59 45.7702 1022.25 45.5453C1021.61 45.4934 1020.96 45.4675 1020.32 45.5799ZM1032.47 48.1152C1032.47 47.0724 1033.31 46.2199 1034.36 46.2199H1041.43C1042.46 46.2199 1043.3 47.0592 1043.3 48.0945C1043.3 49.1315 1042.46 49.9714 1041.42 49.9711C1039.06 49.9703 1036.7 49.9768 1034.33 49.9759C1033.3 49.9756 1032.47 49.1461 1032.47 48.1152Z" fill="white"/>
<g clip-path="url(#clip0_441_54934)">
<path d="M1184.62 41.2279C1185.26 40.0637 1185.89 38.8994 1186.53 37.7352C1187.21 36.7848 1187.89 35.8383 1188.57 34.8879C1189.35 33.8583 1190.12 32.8326 1190.9 31.803C1191.72 30.9793 1192.55 30.1556 1193.37 29.3319C1193.99 29.0151 1194.65 28.7538 1195.22 28.3736C1196.99 27.2212 1198.66 25.9223 1200.48 24.861C1203.62 23.0196 1203.66 23.0751 1206.72 25.7283C1205.16 26.5124 1203.58 27.1222 1202.21 28.0449C1200.23 29.3795 1198.4 30.9397 1196.5 32.4049C1195.68 33.2247 1194.86 34.0404 1194.04 34.8602C1193.2 35.7947 1192.35 36.7293 1191.51 37.6639C1190.79 38.7093 1190.06 39.7588 1189.34 40.8042C1188.79 42.1189 1188.22 43.4337 1187.67 44.7524C1187.17 46.1859 1186.66 47.6155 1186.16 49.049C1185.64 51.4963 1185.06 53.9357 1184.63 56.3989C1184.45 57.3968 1184.6 58.4542 1184.6 59.761C1182.78 58.6799 1180.74 58.2641 1180.81 55.7851C1181.15 53.5754 1181.49 51.3657 1181.84 49.156C1182.27 47.6868 1182.7 46.2216 1183.13 44.7524C1183.63 43.5802 1184.13 42.408 1184.63 41.2359L1184.62 41.2279Z" fill="white"/>
<path d="M1198.54 34.8327C1200.4 33.6407 1202.24 32.4091 1204.13 31.2647C1205.08 30.6904 1206.11 30.2232 1207.12 29.7796C1209.96 28.552 1210.28 28.7104 1211.5 31.7319C1209.12 32.912 1206.66 33.9614 1204.39 35.3197C1203.12 36.084 1202.15 37.3631 1201.04 38.4086C1200.16 39.2164 1199.28 40.0243 1198.4 40.8282C1197.59 42.0083 1196.77 43.1844 1195.96 44.3645C1195.32 45.8139 1194.67 47.2672 1194.03 48.7166C1193.38 50.9778 1192.5 53.2033 1192.13 55.5121C1191.81 57.4881 1192.06 59.5553 1192.06 61.5472C1188.74 62.1135 1188.16 61.6501 1188.17 58.5692C1188.17 57.7812 1188.22 56.9931 1188.24 56.2051C1188.75 53.5637 1189.26 50.9224 1189.77 48.281C1190.39 46.7603 1191.01 45.2436 1191.63 43.723L1193.69 40.448C1194.48 39.3946 1195.28 38.3413 1196.07 37.2879C1196.89 36.4682 1197.71 35.6484 1198.53 34.8287L1198.54 34.8327Z" fill="white"/>
<path d="M1247.81 48.7363H1244.71V34.3218C1246.65 33.6723 1248.08 34.2584 1249.26 35.783C1250.7 37.6482 1252.22 39.4619 1253.85 41.4815V34.2624H1256.98V48.5621C1254.99 49.2393 1253.96 48.6175 1253.04 46.689C1251.77 44.0199 1249.96 41.6003 1248.39 39.0738C1248.2 39.1609 1248 39.252 1247.81 39.3391V48.7363Z" fill="white"/>
<path d="M1202.5 41.1723C1203.67 40.3486 1204.78 39.4061 1206.03 38.725C1208.25 37.5093 1210.56 36.4519 1213.15 35.1729C1213.51 36.7212 1213.75 37.7627 1214.01 38.8913C1210.19 40.2972 1206.63 41.8218 1204.3 45.1997C1203.42 46.463 1202.54 47.7262 1201.66 48.9855C1199.18 52.6604 1199.18 56.8541 1199.24 61.2736C1198.1 61.4874 1197 61.6894 1195.52 61.9626C1195.52 59.444 1195.52 57.2422 1195.52 55.0404C1196.25 52.7832 1196.97 50.5299 1197.69 48.2727C1198.48 46.855 1199.26 45.4373 1200.04 44.0236C1200.86 43.0732 1201.68 42.1267 1202.5 41.1763L1202.5 41.1723Z" fill="white"/>
<path d="M1273.15 48.6453V34.1832C1275.39 34.1832 1277.55 34.0604 1279.68 34.2228C1281.34 34.3495 1282.65 35.2167 1283.25 36.9116C1283.83 38.5709 1283.4 40.0203 1282.35 41.331C1282.02 41.735 1281.61 42.0637 1281.19 42.4636C1282.25 44.4793 1283.28 46.4395 1284.32 48.4275C1281.41 49.1957 1281.2 49.1046 1279.91 46.5821C1278.92 44.6549 1277.67 43.9645 1276.17 44.511V48.6453H1273.15ZM1276.16 41.4498C1277.29 41.0103 1278.26 40.844 1278.92 40.3054C1279.55 39.7985 1279.85 38.8956 1280.29 38.163C1279.55 37.8581 1278.84 37.4542 1278.08 37.2878C1277.48 37.1572 1276.83 37.3195 1276.16 37.3552V41.4498Z" fill="white"/>
<path d="M1272.09 48.6769C1270.31 48.764 1268.56 49.3818 1268.05 46.9107C1267.98 46.586 1266.96 46.281 1266.37 46.2692C1264.46 46.2375 1262.26 45.4019 1261.31 48.265C1261.14 48.7561 1259.37 48.7125 1257.9 49.0016C1259 46.0236 1259.92 43.5169 1260.85 41.0102C1261.51 39.2203 1262.28 37.466 1262.81 35.6404C1263.18 34.4088 1263.78 34.0405 1265.04 34.0088C1266.37 33.9732 1266.85 34.5712 1267.25 35.6839C1268.81 39.9925 1270.44 44.2733 1272.09 48.6689V48.6769ZM1265.04 38.4203C1264.34 40.3608 1263.85 41.7151 1263.35 43.113H1266.75C1266.2 41.5923 1265.72 40.2697 1265.04 38.4203Z" fill="white"/>
<path d="M1232.98 34.1831H1242.36V37.2403H1236C1235.96 38.056 1235.94 38.6896 1235.9 39.5331H1241.37V42.42H1236.03V45.5366H1242.82V48.6531H1232.98V34.1831Z" fill="white"/>
<path d="M1230.46 34.6937C1229.89 35.9491 1229.57 36.65 1229.26 37.3311C1227.79 37.1688 1226.43 36.9589 1225.07 36.9035C1224.63 36.8876 1224.19 37.2955 1223.75 37.5054C1224.02 37.9093 1224.2 38.4756 1224.58 38.6934C1225.88 39.4458 1227.28 40.0477 1228.61 40.7685C1230.75 41.9248 1231.63 43.5999 1231.21 45.576C1230.82 47.4491 1229.41 48.6213 1227.04 48.8707C1224.44 49.144 1221.95 48.6688 1219.45 47.3303C1219.87 46.4274 1220.25 45.6314 1220.58 44.9305C1222.43 45.271 1224.08 45.7027 1225.76 45.8334C1226.49 45.8888 1227.27 45.3265 1228.02 45.0453C1227.53 44.4196 1227.16 43.6078 1226.53 43.2079C1225.32 42.4396 1223.91 41.9842 1222.67 41.2556C1220.64 40.0636 1219.98 38.5152 1220.52 36.6579C1221.13 34.5749 1222.75 33.9493 1224.65 34.0245C1226.45 34.0958 1228.25 34.4284 1230.47 34.6977L1230.46 34.6937Z" fill="white"/>
<path d="M1205.54 49.1877C1207.71 46.5028 1210.17 44.1981 1213.86 43.0615C1213.86 45.0772 1213.95 46.7008 1212.02 47.9205C1208.99 49.8411 1207.19 52.6924 1206.73 56.3079C1206.45 58.5216 1204.5 58.7235 1202.9 59.8205C1202.9 58.3909 1202.9 57.2979 1202.9 56.2089C1203.78 53.8685 1204.66 51.5281 1205.54 49.1877H1205.54Z" fill="white"/>
<path d="M1188.57 34.892C1187.89 35.8424 1187.21 36.7889 1186.53 37.7393C1183.08 35.6444 1179.64 33.5495 1176.05 31.3715C1176.2 31.122 1176.49 30.3181 1177.05 29.839C1177.51 29.443 1178.49 29.0707 1178.91 29.3004C1182.17 31.0824 1185.36 33.011 1188.57 34.896V34.892Z" fill="#C8C8C8"/>
<path d="M1193.37 29.332C1192.55 30.1557 1191.72 30.9793 1190.9 31.803C1187.66 29.7201 1184.43 27.6371 1181.21 25.5699C1182.86 23.3958 1183.94 23.0394 1186.42 24.5561C1188.82 26.0174 1191.06 27.7321 1193.37 29.332Z" fill="#C8C8C8"/>
<path d="M1184.62 41.2279C1184.12 42.4001 1183.63 43.5723 1183.13 44.7444C1180.53 41.9288 1177.33 40.0874 1173.5 38.9588C1173.76 37.8025 1174 36.7531 1174.27 35.5215C1178.36 36.563 1181.75 38.4163 1184.62 41.224V41.2279Z" fill="#C8C8C8"/>
<path d="M1181.83 49.1521C1181.49 51.3618 1181.15 53.5715 1180.81 55.7812C1180.03 52.2805 1178.03 49.7104 1175.2 47.5205C1174.12 46.681 1173.79 44.8673 1173.41 43.3149C1177.15 44.1426 1179.77 46.2652 1181.83 49.1521Z" fill="#C8C8C8"/>
</g>
<path d="M658.377 42.397H663.733V43.1616H658.377V48.519H657.611V43.1616H652.254V42.397H657.611V37.0396H658.377V42.397Z" fill="url(#paint0_linear_441_54934)"/>
<path d="M658.059 0.661621L658.059 84.8468" stroke="url(#paint1_radial_441_54934)" stroke-opacity="0.4" stroke-width="1.32283" stroke-linecap="round"/>
<path d="M430.076 42.397H435.433V43.1616H430.076V48.519H429.311V43.1616H423.953V42.397H429.311V37.0396H430.076V42.397Z" fill="url(#paint2_linear_441_54934)"/>
<path d="M429.758 0.661621L429.758 84.8468" stroke="url(#paint3_radial_441_54934)" stroke-opacity="0.4" stroke-width="1.32283" stroke-linecap="round"/>
<path d="M886.678 42.397H892.034V43.1616H886.678V48.519H885.912V43.1616H880.555V42.397H885.912V37.0396H886.678V42.397Z" fill="url(#paint4_linear_441_54934)"/>
<path d="M886.359 0.661621L886.359 84.8468" stroke="url(#paint5_radial_441_54934)" stroke-opacity="0.4" stroke-width="1.32283" stroke-linecap="round"/>
<path d="M1114.98 42.397H1120.33V43.1616H1114.98V48.519H1114.21V43.1616H1108.85V42.397H1114.21V37.0396H1114.98V42.397Z" fill="url(#paint6_linear_441_54934)"/>
<path d="M1114.66 0.661621L1114.66 84.8468" stroke="url(#paint7_radial_441_54934)" stroke-opacity="0.4" stroke-width="1.32283" stroke-linecap="round"/>
<defs>
<linearGradient id="paint0_linear_441_54934" x1="652.254" y1="42.4772" x2="663.733" y2="42.4772" gradientUnits="userSpaceOnUse">
<stop stop-color="#4E75FF"/>
<stop offset="1" stop-color="#F44A69"/>
</linearGradient>
<radialGradient id="paint1_radial_441_54934" cx="0" cy="0" r="1" gradientUnits="userSpaceOnUse" gradientTransform="translate(657.559 42.7542) rotate(180) scale(0.5 42.0926)">
<stop stop-color="white"/>
<stop offset="1" stop-color="white" stop-opacity="0"/>
</radialGradient>
<linearGradient id="paint2_linear_441_54934" x1="423.953" y1="42.4772" x2="435.433" y2="42.4772" gradientUnits="userSpaceOnUse">
<stop stop-color="#4E75FF"/>
<stop offset="1" stop-color="#F44A69"/>
</linearGradient>
<radialGradient id="paint3_radial_441_54934" cx="0" cy="0" r="1" gradientUnits="userSpaceOnUse" gradientTransform="translate(429.258 42.7542) rotate(180) scale(0.5 42.0926)">
<stop stop-color="white"/>
<stop offset="1" stop-color="white" stop-opacity="0"/>
</radialGradient>
<linearGradient id="paint4_linear_441_54934" x1="880.555" y1="42.4772" x2="892.034" y2="42.4772" gradientUnits="userSpaceOnUse">
<stop stop-color="#4E75FF"/>
<stop offset="1" stop-color="#F44A69"/>
</linearGradient>
<radialGradient id="paint5_radial_441_54934" cx="0" cy="0" r="1" gradientUnits="userSpaceOnUse" gradientTransform="translate(885.859 42.7542) rotate(180) scale(0.5 42.0926)">
<stop stop-color="white"/>
<stop offset="1" stop-color="white" stop-opacity="0"/>
</radialGradient>
<linearGradient id="paint6_linear_441_54934" x1="1108.85" y1="42.4772" x2="1120.33" y2="42.4772" gradientUnits="userSpaceOnUse">
<stop stop-color="#4E75FF"/>
<stop offset="1" stop-color="#F44A69"/>
</linearGradient>
<radialGradient id="paint7_radial_441_54934" cx="0" cy="0" r="1" gradientUnits="userSpaceOnUse" gradientTransform="translate(1114.16 42.7542) rotate(180) scale(0.5 42.0926)">
<stop stop-color="white"/>
<stop offset="1" stop-color="white" stop-opacity="0"/>
</radialGradient>
<clipPath id="clip0_441_54934">
<rect width="110.909" height="38.365" fill="white" transform="translate(1173.41 23.5938)"/>
</clipPath>
</defs>
</svg>
