<svg xmlns="http://www.w3.org/2000/svg" width="714" height="532" fill="none" viewBox="0 0 714 532"><g filter="url(#a)"><g clip-path="url(#b)"><rect width="480" height="298" x="116.8" y="112.8" fill="#000" fill-opacity=".01" rx="26.791" shape-rendering="crispEdges"/><g filter="url(#c)" style="mix-blend-mode:screen"><path fill="#2e3069" fill-opacity=".4" d="M520.734 250.906c-19.423 19.423-337.767-1.121-365.138 5.19-20.77-20.771-14.577-43.015 4.845-62.437 19.423-19.423 266.227-33.168 319.919-19.777 20.77 20.77 59.797 57.601 40.374 77.024"/></g><rect width="453.209" height="62.512" x="130.195" y="183.451" fill="url(#d)" fill-opacity=".15" rx="31.256"/><rect width="452.093" height="61.395" x="130.753" y="184.009" stroke="url(#e)" stroke-opacity=".12" stroke-width="1.116" rx="30.698"/><path stroke="#fff" stroke-linecap="round" stroke-linejoin="round" stroke-width="2.257" d="m156.715 219.443 9.472-9.472m-9.472 0 9.472 9.472"/><path fill="#fff" fill-opacity=".22" fill-rule="evenodd" d="M244.857 206.893c.603 0 1.092.489 1.092 1.092v14.56a1.092 1.092 0 0 1-2.184 0v-14.56c0-.603.488-1.092 1.092-1.092m-8.737 1.456c.604 0 1.092.489 1.092 1.092v11.648a1.091 1.091 0 1 1-2.184 0v-11.648c0-.603.489-1.092 1.092-1.092m4.369 2.912c.603 0 1.092.489 1.092 1.092v5.824a1.092 1.092 0 0 1-2.185 0v-5.824c0-.603.489-1.092 1.093-1.092m-8.737 1.456c.604 0 1.092.489 1.092 1.092v2.912a1.091 1.091 0 1 1-2.184 0v-2.912c0-.603.489-1.092 1.092-1.092" clip-rule="evenodd"/><path fill="#fff" fill-opacity=".22" d="M248.909 212.52c.603 0 1.092.489 1.092 1.092v2.912a1.092 1.092 0 0 1-2.184 0v-2.912c0-.603.489-1.092 1.092-1.092"/><path fill="#fff" fill-rule="evenodd" d="M417.88 206.893c.603 0 1.092.489 1.092 1.092v14.56a1.092 1.092 0 0 1-2.184 0v-14.56c0-.603.489-1.092 1.092-1.092m-8.736 1.456c.603 0 1.092.489 1.092 1.092v11.648a1.092 1.092 0 0 1-2.184 0v-11.648c0-.603.489-1.092 1.092-1.092m4.368 2.912c.603 0 1.092.489 1.092 1.092v5.824a1.092 1.092 0 0 1-2.184 0v-5.824c0-.603.489-1.092 1.092-1.092m-8.736 1.456c.603 0 1.092.489 1.092 1.092v2.912a1.092 1.092 0 0 1-2.184 0v-2.912c0-.603.489-1.092 1.092-1.092" clip-rule="evenodd"/><path fill="#fff" d="M421.932 212.52c.603 0 1.092.489 1.092 1.092v2.912a1.092 1.092 0 0 1-2.184 0v-2.912c0-.603.489-1.092 1.092-1.092"/><path fill="#fff" fill-opacity=".22" fill-rule="evenodd" d="M299.554 206.893c.603 0 1.092.489 1.092 1.092v14.56a1.092 1.092 0 0 1-2.184 0v-14.56c0-.603.489-1.092 1.092-1.092m-8.736 1.456c.603 0 1.092.489 1.092 1.092v11.648a1.092 1.092 0 0 1-2.184 0v-11.648c0-.603.489-1.092 1.092-1.092m4.368 2.912c.603 0 1.092.489 1.092 1.092v5.824a1.092 1.092 0 0 1-2.184 0v-5.824c0-.603.489-1.092 1.092-1.092m-8.736 1.456c.603 0 1.092.489 1.092 1.092v2.912a1.092 1.092 0 0 1-2.184 0v-2.912c0-.603.489-1.092 1.092-1.092" clip-rule="evenodd"/><path fill="#fff" fill-opacity=".22" d="M303.607 212.52c.603 0 1.092.489 1.092 1.092v2.912a1.092 1.092 0 0 1-2.184 0v-2.912c0-.603.489-1.092 1.092-1.092"/><path fill="#fff" fill-rule="evenodd" d="M363.182 206.893c.603 0 1.092.489 1.092 1.092v14.56a1.092 1.092 0 0 1-2.184 0v-14.56c0-.603.489-1.092 1.092-1.092m-8.736 1.456c.603 0 1.092.489 1.092 1.092v11.648a1.092 1.092 0 0 1-2.184 0v-11.648c0-.603.489-1.092 1.092-1.092m4.368 2.912c.603 0 1.092.489 1.092 1.092v5.824a1.092 1.092 0 0 1-2.184 0v-5.824c0-.603.489-1.092 1.092-1.092m-8.736 1.456c.603 0 1.092.489 1.092 1.092v2.912a1.092 1.092 0 0 1-2.184 0v-2.912c0-.603.489-1.092 1.092-1.092" clip-rule="evenodd"/><path fill="#fff" d="M367.235 212.52c.603 0 1.092.489 1.092 1.092v2.912a1.092 1.092 0 0 1-2.184 0v-2.912c0-.603.489-1.092 1.092-1.092"/><path fill="#fff" fill-opacity=".22" fill-rule="evenodd" d="M332.921 206.893c-.603 0-1.092.489-1.092 1.092v14.56a1.092 1.092 0 0 0 2.184 0v-14.56c0-.603-.489-1.092-1.092-1.092m8.736 1.456c-.603 0-1.092.489-1.092 1.092v11.648a1.092 1.092 0 0 0 2.184 0v-11.648c0-.603-.489-1.092-1.092-1.092m-4.368 2.912c-.603 0-1.092.489-1.092 1.092v5.824a1.092 1.092 0 0 0 2.184 0v-5.824c0-.603-.489-1.092-1.092-1.092m8.736 1.456c-.603 0-1.092.489-1.092 1.092v2.912a1.092 1.092 0 0 0 2.184 0v-2.912c0-.603-.488-1.092-1.092-1.092" clip-rule="evenodd"/><path fill="#fff" fill-opacity=".22" d="M328.869 212.52c-.603 0-1.092.489-1.092 1.092v2.912a1.092 1.092 0 0 0 2.184 0v-2.912c0-.603-.489-1.092-1.092-1.092"/><path fill="#fff" fill-opacity=".22" fill-rule="evenodd" d="M320.764 206.893c.603 0 1.092.489 1.092 1.092v14.56a1.092 1.092 0 0 1-2.184 0v-14.56c0-.603.488-1.092 1.092-1.092m-8.737 1.456c.604 0 1.092.489 1.092 1.092v11.648a1.091 1.091 0 1 1-2.184 0v-11.648c0-.603.489-1.092 1.092-1.092m4.368 2.912c.604 0 1.093.489 1.093 1.092v5.824a1.092 1.092 0 0 1-2.185 0v-5.824c0-.603.489-1.092 1.092-1.092m-8.736 1.456c.603 0 1.092.489 1.092 1.092v2.912a1.092 1.092 0 0 1-2.184 0v-2.912c0-.603.489-1.092 1.092-1.092" clip-rule="evenodd"/><path fill="#fff" fill-opacity=".22" d="M324.816 212.52c.603 0 1.092.489 1.092 1.092v2.912a1.092 1.092 0 0 1-2.184 0v-2.912c0-.603.489-1.092 1.092-1.092"/><path fill="#fff" fill-rule="evenodd" d="M472.578 206.893c.603 0 1.092.489 1.092 1.092v14.56a1.092 1.092 0 0 1-2.185 0v-14.56c0-.603.489-1.092 1.093-1.092m-8.737 1.456c.604 0 1.092.489 1.092 1.092v11.648a1.091 1.091 0 1 1-2.184 0v-11.648c0-.603.489-1.092 1.092-1.092m4.368 2.912c.604 0 1.092.489 1.092 1.092v5.824a1.091 1.091 0 1 1-2.184 0v-5.824c0-.603.489-1.092 1.092-1.092m-8.736 1.456c.603 0 1.092.489 1.092 1.092v2.912a1.092 1.092 0 0 1-2.184 0v-2.912c0-.603.489-1.092 1.092-1.092" clip-rule="evenodd"/><path fill="#fff" d="M476.63 212.52c.603 0 1.092.489 1.092 1.092v2.912a1.092 1.092 0 0 1-2.184 0v-2.912c0-.603.489-1.092 1.092-1.092"/><path fill="#fff" fill-opacity=".22" fill-rule="evenodd" d="M252.962 206.893c-.603 0-1.092.489-1.092 1.092v14.56a1.092 1.092 0 0 0 2.184 0v-14.56c0-.603-.489-1.092-1.092-1.092m8.736 1.456c-.603 0-1.092.489-1.092 1.092v11.648a1.092 1.092 0 0 0 2.184 0v-11.648c0-.603-.489-1.092-1.092-1.092m-4.368 2.912c-.603 0-1.092.489-1.092 1.092v5.824a1.092 1.092 0 0 0 2.184 0v-5.824c0-.603-.489-1.092-1.092-1.092m8.736 1.456c-.603 0-1.092.489-1.092 1.092v2.912a1.092 1.092 0 0 0 2.184 0v-2.912c0-.603-.489-1.092-1.092-1.092" clip-rule="evenodd"/><path fill="#fff" fill-rule="evenodd" d="M388.032 206.893c-.603 0-1.092.489-1.092 1.092v14.56a1.092 1.092 0 0 0 2.184 0v-14.56c0-.603-.489-1.092-1.092-1.092m8.736 1.456c-.603 0-1.092.489-1.092 1.092v11.648a1.092 1.092 0 0 0 2.184 0v-11.648c0-.603-.489-1.092-1.092-1.092m-4.368 2.912c-.603 0-1.092.489-1.092 1.092v5.824a1.092 1.092 0 0 0 2.184 0v-5.824c0-.603-.489-1.092-1.092-1.092m8.736 1.456c-.603 0-1.092.489-1.092 1.092v2.912a1.092 1.092 0 0 0 2.184 0v-2.912c0-.603-.489-1.092-1.092-1.092m24.849-5.824c-.603 0-1.092.489-1.092 1.092v14.56a1.092 1.092 0 0 0 2.184 0v-14.56c0-.603-.489-1.092-1.092-1.092m8.736 1.456c-.603 0-1.092.489-1.092 1.092v11.648a1.092 1.092 0 0 0 2.184 0v-11.648c0-.603-.489-1.092-1.092-1.092m-4.368 2.912c-.603 0-1.092.489-1.092 1.092v5.824a1.092 1.092 0 0 0 2.184 0v-5.824c0-.603-.489-1.092-1.092-1.092m8.736 1.456c-.603 0-1.092.489-1.092 1.092v2.912a1.092 1.092 0 0 0 2.184 0v-2.912c0-.603-.489-1.092-1.092-1.092m3.64-5.824c-.603 0-1.092.489-1.092 1.092v14.56a1.092 1.092 0 0 0 2.184 0v-14.56c0-.603-.489-1.092-1.092-1.092m8.736 1.456c-.603 0-1.092.489-1.092 1.092v11.648a1.092 1.092 0 0 0 2.184 0v-11.648c0-.603-.489-1.092-1.092-1.092m-4.368 2.912c-.603 0-1.092.489-1.092 1.092v5.824a1.092 1.092 0 0 0 2.184 0v-5.824c0-.603-.489-1.092-1.092-1.092m8.736 1.456c-.603 0-1.092.489-1.092 1.092v2.912a1.092 1.092 0 0 0 2.184 0v-2.912c0-.603-.489-1.092-1.092-1.092m-84.546-5.824c-.603 0-1.092.489-1.092 1.092v14.56a1.092 1.092 0 0 0 2.184 0v-14.56c0-.603-.489-1.092-1.092-1.092m8.736 1.456c-.603 0-1.092.489-1.092 1.092v11.648a1.092 1.092 0 0 0 2.184 0v-11.648c0-.603-.489-1.092-1.092-1.092m-4.368 2.912c-.603 0-1.092.489-1.092 1.092v5.824a1.092 1.092 0 0 0 2.184 0v-5.824c0-.603-.489-1.092-1.092-1.092m8.736 1.456c-.603 0-1.092.489-1.092 1.092v2.912a1.092 1.092 0 0 0 2.184 0v-2.912c0-.603-.489-1.092-1.092-1.092m96.292-5.824c-.603 0-1.092.489-1.092 1.092v14.56a1.092 1.092 0 0 0 2.184 0v-14.56c0-.603-.489-1.092-1.092-1.092m8.736 1.456c-.603 0-1.092.489-1.092 1.092v11.648a1.092 1.092 0 0 0 2.184 0v-11.648c0-.603-.489-1.092-1.092-1.092m-4.368 2.912c-.603 0-1.092.489-1.092 1.092v5.824a1.092 1.092 0 0 0 2.184 0v-5.824c0-.603-.489-1.092-1.092-1.092m8.736 1.456c-.603 0-1.092.489-1.092 1.092v2.912a1.092 1.092 0 0 0 2.184 0v-2.912c0-.603-.489-1.092-1.092-1.092m3.64-5.824c-.603 0-1.092.489-1.092 1.092v14.56a1.092 1.092 0 0 0 2.184 0v-14.56c0-.603-.489-1.092-1.092-1.092m8.736 1.456c-.603 0-1.092.489-1.092 1.092v11.648a1.092 1.092 0 0 0 2.184 0v-11.648c0-.603-.489-1.092-1.092-1.092m-4.368 2.912c-.603 0-1.092.489-1.092 1.092v5.824a1.092 1.092 0 0 0 2.184 0v-5.824c0-.603-.489-1.092-1.092-1.092m8.736 1.456c-.603 0-1.092.489-1.092 1.092v2.912a1.092 1.092 0 0 0 2.184 0v-2.912c0-.603-.489-1.092-1.092-1.092" clip-rule="evenodd"/><path fill="#fff" fill-opacity=".22" fill-rule="evenodd" d="M282.81 206.893c.603 0 1.092.489 1.092 1.092v14.56a1.092 1.092 0 0 1-2.184 0v-14.56c0-.603.489-1.092 1.092-1.092m-8.736 1.456c.603 0 1.092.489 1.092 1.092v11.648a1.092 1.092 0 0 1-2.184 0v-11.648c0-.603.489-1.092 1.092-1.092m4.368 2.912c.603 0 1.092.489 1.092 1.092v5.824a1.092 1.092 0 0 1-2.184 0v-5.824c0-.603.489-1.092 1.092-1.092m-8.736 1.456c.603 0 1.092.489 1.092 1.092v2.912a1.092 1.092 0 0 1-2.184 0v-2.912c0-.603.489-1.092 1.092-1.092" clip-rule="evenodd"/><path fill="#fff" d="M195.882 219.848q-1.454 0-2.501-.703-1.046-.719-1.61-1.985-.562-1.281-.562-2.969t.562-2.954q.564-1.281 1.61-1.985 1.047-.718 2.501-.718t2.484.718q1.048.704 1.595 1.985.562 1.266.562 2.954t-.562 2.969q-.547 1.266-1.595 1.985-1.03.703-2.484.703m0-1.391a2.54 2.54 0 0 0 1.562-.515q.704-.516 1.094-1.469t.391-2.282-.391-2.282q-.39-.953-1.094-1.453a2.53 2.53 0 0 0-1.562-.516q-.892 0-1.594.516-.704.5-1.094 1.453t-.391 2.282q0 1.328.391 2.282.39.953 1.094 1.469.702.515 1.594.515m6.601 1.282q-.453 0-.75-.282a1 1 0 0 1-.281-.703q0-.421.281-.703.297-.297.75-.297t.735.297a.96.96 0 0 1 .281.703 1 1 0 0 1-.281.703q-.282.282-.735.282m0-6.158q-.453 0-.75-.281a1 1 0 0 1-.281-.703q0-.422.281-.703.297-.297.75-.297t.735.297a.96.96 0 0 1 .281.703 1 1 0 0 1-.281.703q-.282.281-.735.281m2.169 6.08v-1.126a45 45 0 0 0 2.079-1.703 21 21 0 0 0 1.75-1.703q.781-.86 1.219-1.673.438-.828.437-1.578 0-.53-.187-.985a1.63 1.63 0 0 0-.594-.734q-.406-.297-1.11-.297-.672 0-1.125.297a1.95 1.95 0 0 0-.672.797 2.6 2.6 0 0 0-.219 1.078h-1.515q.015-1.125.484-1.906a3.1 3.1 0 0 1 1.266-1.188 4 4 0 0 1 1.813-.406q1.047 0 1.813.39.765.375 1.187 1.11.422.719.422 1.766 0 .75-.297 1.5-.297.735-.812 1.438-.5.704-1.126 1.359-.624.642-1.297 1.219-.656.579-1.266 1.048h5.142v1.297zm12.239.187a4.8 4.8 0 0 1-1.922-.375 3.23 3.23 0 0 1-1.375-1.156q-.5-.781-.532-1.954h1.563q.015.594.281 1.078t.766.782q.516.28 1.219.281.704 0 1.172-.265.485-.267.719-.719.25-.454.25-1.016 0-.703-.344-1.141a1.97 1.97 0 0 0-.906-.656 3.5 3.5 0 0 0-1.266-.219h-.813v-1.313h.813q.984 0 1.563-.453.594-.453.594-1.282 0-.687-.454-1.125-.453-.437-1.328-.437t-1.391.5q-.5.5-.562 1.266h-1.548q.048-.923.485-1.626a2.94 2.94 0 0 1 1.219-1.094q.781-.39 1.797-.39 1.094 0 1.828.39.751.375 1.126 1.016.39.64.39 1.407 0 .578-.218 1.078a2.42 2.42 0 0 1-1.61 1.36q.625.124 1.125.484t.782.938q.28.562.281 1.312 0 .89-.422 1.657-.422.75-1.25 1.219-.813.453-2.032.453"/><rect width="35.721" height="35.721" x="532.055" y="196.847" fill="url(#f)" rx="17.86"/><path fill="#fff" fill-rule="evenodd" d="M550.062 207.674a.93.93 0 0 1 1.32 0l4.871 4.871a.932.932 0 1 1-1.32 1.32l-3.278-3.277v11.141a.934.934 0 1 1-1.867 0v-11.141l-3.683 3.683a.932.932 0 1 1-1.32-1.32z" clip-rule="evenodd"/><g filter="url(#g)"><rect width="217.674" height="133.953" x="603.498" y="-72.177" fill="#fff" rx="17.86"/><rect width="216.558" height="132.837" x="604.056" y="-71.619" stroke="#f9f9f8" stroke-width="1.116" rx="17.302"/></g><g filter="url(#h)" style="mix-blend-mode:screen"><path fill="#2e3069" fill-opacity=".4" d="M634.298 422.471c-15.345 15.345-266.809-.835-288.431 4.154-16.403-16.404-11.508-33.976 3.837-49.321s210.303-26.24 252.713-15.67c16.404 16.404 47.226 45.492 31.881 60.837"/></g><g filter="url(#i)" style="mix-blend-mode:screen"><path fill="#2e3069" fill-opacity=".4" d="M634.298 422.471c-15.345 15.345-266.809-.835-288.431 4.154-16.403-16.404-11.508-33.976 3.837-49.321s210.303-26.24 252.713-15.67c16.404 16.404 47.226 45.492 31.881 60.837"/></g><g filter="url(#j)" style="mix-blend-mode:screen"><path fill="#561e57" fill-opacity=".19" d="M529.481 459.548c-16.983 16.984-349.049-54.679-376.32-52.498-24.745-24.744-21.873-46.738-4.889-63.722 16.983-16.984 269.724 7.927 327.303 30.267 24.744 24.744 70.89 68.97 53.906 85.953"/></g><path fill="#000" fill-opacity=".01" d="M116.8 304.009h480v107.163h-480z"/><path fill="#fff" d="M165.78 362.031q-1.392 0-2.411-.603a4.16 4.16 0 0 1-1.554-1.701q-.535-1.098-.535-2.532 0-1.446.535-2.532a4.14 4.14 0 0 1 1.554-1.714q1.019-.616 2.411-.616 1.675 0 2.733.83 1.059.817 1.34 2.318h-1.769q-.187-.791-.763-1.246-.576-.456-1.554-.456-.884 0-1.527.416-.63.4-.978 1.178-.335.764-.335 1.822t.335 1.822q.348.75.978 1.165.644.402 1.527.402.978 0 1.554-.415.576-.429.763-1.179h1.769q-.268 1.42-1.34 2.237-1.058.804-2.733.804m5.324-.161v-9.645h1.607v3.939q.335-.55.911-.871a2.54 2.54 0 0 1 1.3-.335q.83 0 1.406.348.576.336.871 1.005.308.657.308 1.648v3.911h-1.594v-3.764q0-.87-.375-1.326-.362-.456-1.112-.456-.482 0-.871.242a1.6 1.6 0 0 0-.616.669q-.228.429-.228 1.059v3.576zm10.093.161q-.831 0-1.38-.281t-.817-.751a2 2 0 0 1-.268-1.018q0-.642.322-1.111.334-.47.978-.724.642-.267 1.58-.268h1.701q0-.536-.147-.884a1.04 1.04 0 0 0-.455-.536q-.308-.174-.791-.174-.549 0-.937.255-.388.241-.483.75h-1.58q.08-.723.482-1.232a2.6 2.6 0 0 1 1.058-.804 3.6 3.6 0 0 1 1.46-.295q.951 0 1.621.335.67.321 1.018.938.362.602.362 1.46v4.179h-1.366l-.161-1.085a2 2 0 0 1-.348.496 2.3 2.3 0 0 1-.469.402 2.4 2.4 0 0 1-.616.254 2.8 2.8 0 0 1-.764.094m.362-1.273q.388 0 .683-.134.308-.147.522-.402.228-.267.349-.589t.16-.683v-.027h-1.487q-.468 0-.777.121-.307.106-.442.321a.9.9 0 0 0-.134.496q0 .28.134.482t.389.308q.255.108.603.107m7.64 1.112q-.682 0-1.192-.214a1.62 1.62 0 0 1-.777-.71q-.28-.496-.281-1.34v-3.134h-1.152v-1.353h1.152l.188-1.782h1.42v1.782h1.835v1.353h-1.835v3.134q0 .51.214.71.228.188.75.188h.83v1.366z"/><mask id="k" width="24" height="21" x="164" y="320" maskUnits="userSpaceOnUse" style="mask-type:alpha"><path fill="#d9d9d9" fill-rule="evenodd" d="M187.213 320.753h-22.504v20.093h22.504zM173.014 330.8c0 .37-.141.725-.392.987a1.32 1.32 0 0 1-.947.408c-.356 0-.696-.147-.948-.408a1.43 1.43 0 0 1-.392-.987c0-.37.141-.725.392-.987.252-.261.592-.408.948-.408.355 0 .696.147.947.408.251.262.392.617.392.987m4.287 0c0 .37-.142.725-.393.987a1.32 1.32 0 0 1-.947.408c-.355 0-.696-.147-.947-.408a1.43 1.43 0 0 1-.392-.987c0-.37.141-.725.392-.987.251-.261.592-.408.947-.408s.696.147.947.408c.251.262.393.617.393.987m2.947 1.395c.355 0 .696-.147.947-.408.251-.262.392-.617.392-.987s-.141-.725-.392-.987a1.32 1.32 0 0 0-.947-.408c-.356 0-.696.147-.948.408a1.43 1.43 0 0 0-.392.987c0 .37.141.725.392.987.252.261.592.408.948.408" clip-rule="evenodd"/></mask><g mask="url(#k)"><path fill="#fff" stroke="#f8f8f8" stroke-linejoin="round" stroke-width="1.674" d="M166.049 329.405a6.84 6.84 0 0 1 1.883-4.736 6.3 6.3 0 0 1 4.546-1.962h6.966a6.3 6.3 0 0 1 4.546 1.962 6.84 6.84 0 0 1 1.884 4.736v2.79a6.84 6.84 0 0 1-1.884 4.736 6.3 6.3 0 0 1-4.546 1.962h-13.395z"/></g><path fill="#fff" fill-opacity=".5" d="M256.486 361.87v-9.377h5.988v1.3h-4.38v2.746h3.576v1.272h-3.576v4.059zm9.865.161q-1.005 0-1.769-.429a3.1 3.1 0 0 1-1.192-1.232q-.428-.79-.428-1.822 0-1.071.415-1.875a3.17 3.17 0 0 1 1.192-1.259q.777-.456 1.795-.456.992 0 1.728.442.737.442 1.139 1.192.401.738.401 1.661v.295q0 .16-.026.335h-5.492v-1.031h3.898q-.027-.738-.496-1.152-.47-.429-1.165-.429a1.86 1.86 0 0 0-.911.228 1.6 1.6 0 0 0-.657.683q-.24.442-.241 1.125v.388q0 .63.228 1.085.241.456.643.697.415.228.924.228.562 0 .925-.241.375-.241.549-.643h1.634a3.1 3.1 0 0 1-.616 1.138 3.15 3.15 0 0 1-1.058.791q-.63.28-1.42.281m4.498-.161v-6.751h1.433l.147 1.259q.242-.443.603-.75.362-.322.844-.496a3.3 3.3 0 0 1 1.085-.174v1.701h-.562q-.402 0-.764.107-.361.094-.63.322a1.44 1.44 0 0 0-.401.603q-.148.375-.148.951v3.228zm5.056 0v-6.751h1.433l.148 1.259q.24-.443.602-.75.363-.322.844-.496a3.3 3.3 0 0 1 1.085-.174v1.701h-.562q-.402 0-.764.107-.362.094-.629.322-.255.214-.402.603-.147.375-.148.951v3.228zm7.307.161q-.831 0-1.38-.281-.55-.282-.817-.751a2 2 0 0 1-.268-1.018q0-.642.321-1.111.336-.47.978-.724.644-.267 1.581-.268h1.701q0-.536-.147-.884a1.05 1.05 0 0 0-.456-.536q-.308-.174-.79-.174-.55 0-.938.255-.388.241-.482.75h-1.581q.081-.723.483-1.232.401-.524 1.058-.804a3.6 3.6 0 0 1 1.46-.295q.95 0 1.621.335.67.321 1.018.938.362.602.362 1.46v4.179h-1.367l-.161-1.085a2 2 0 0 1-.348.496q-.2.227-.469.402a2.4 2.4 0 0 1-.616.254 2.8 2.8 0 0 1-.763.094m.361-1.273q.389 0 .683-.134.309-.147.523-.402.228-.267.348-.589.121-.321.161-.683v-.027h-1.487q-.47 0-.777.121-.308.106-.442.321a.9.9 0 0 0-.134.496q0 .28.134.482a.84.84 0 0 0 .388.308q.255.108.603.107m4.812 1.112v-6.751h1.42l.134.924q.321-.509.844-.79a2.5 2.5 0 0 1 1.219-.295q.509 0 .911.134.415.134.723.402.321.268.523.67.375-.563.977-.884.603-.322 1.313-.322.845 0 1.433.348.59.336.898 1.005.308.657.308 1.621v3.938h-1.594v-3.777q0-.858-.348-1.313-.348-.456-1.032-.456-.468 0-.83.228a1.53 1.53 0 0 0-.549.67q-.201.428-.201 1.058v3.59h-1.594v-3.777q0-.858-.349-1.313-.348-.456-1.045-.456-.441 0-.803.228a1.53 1.53 0 0 0-.549.67q-.201.428-.201 1.058v3.59zm15.295.161q-1.005 0-1.768-.429a3.1 3.1 0 0 1-1.193-1.232q-.428-.79-.428-1.822 0-1.071.415-1.875a3.17 3.17 0 0 1 1.192-1.259q.777-.456 1.795-.456.991 0 1.728.442t1.139 1.192q.402.738.402 1.661v.295q0 .16-.027.335h-5.492v-1.031h3.898q-.027-.738-.496-1.152-.469-.429-1.165-.429a1.86 1.86 0 0 0-.911.228 1.6 1.6 0 0 0-.657.683q-.24.442-.241 1.125v.388q0 .63.228 1.085.241.456.643.697.416.228.924.228.562 0 .925-.241.375-.241.549-.643h1.634a3.1 3.1 0 0 1-.616 1.138 3.15 3.15 0 0 1-1.058.791q-.63.28-1.42.281m4.498-.161v-6.751h1.42l.12 1.125q.308-.589.884-.938.576-.348 1.367-.348.816 0 1.393.348.576.335.884.992.321.656.321 1.634v3.938h-1.607v-3.791q0-.843-.375-1.299t-1.112-.456a1.7 1.7 0 0 0-.871.228q-.375.228-.602.67-.215.429-.215 1.045v3.603zm10.75 0q-.684 0-1.192-.214a1.6 1.6 0 0 1-.777-.71q-.282-.496-.282-1.34v-3.134h-1.152v-1.353h1.152l.188-1.782h1.42v1.782h1.835v1.353h-1.835v3.134q0 .51.214.71.228.188.75.188h.831v1.366zm4.687.161q-.831 0-1.38-.281t-.817-.751a2 2 0 0 1-.268-1.018q0-.642.322-1.111.335-.47.977-.724.644-.267 1.581-.268h1.701q0-.536-.147-.884a1.04 1.04 0 0 0-.456-.536q-.307-.174-.79-.174-.55 0-.938.255-.388.241-.482.75h-1.58q.08-.723.482-1.232.401-.524 1.058-.804a3.6 3.6 0 0 1 1.46-.295q.95 0 1.621.335.67.321 1.018.938.362.602.362 1.46v4.179h-1.367l-.16-1.085q-.135.268-.349.496-.201.227-.468.402a2.4 2.4 0 0 1-.617.254 2.8 2.8 0 0 1-.763.094m.361-1.273q.389 0 .684-.134.308-.147.522-.402.228-.267.348-.589.121-.321.161-.683v-.027h-1.487q-.468 0-.777.121-.307.106-.442.321a.9.9 0 0 0-.134.496q0 .28.134.482.135.201.389.308.254.108.602.107m7.505 1.273q-.898 0-1.567-.281a2.65 2.65 0 0 1-1.045-.804 2.4 2.4 0 0 1-.442-1.192h1.607q.067.28.241.522.175.228.469.362.308.134.723.134.402 0 .657-.107a.9.9 0 0 0 .375-.309.73.73 0 0 0 .12-.401q0-.322-.174-.496t-.509-.268a7 7 0 0 0-.777-.201 10 10 0 0 1-.937-.228 4 4 0 0 1-.804-.361 1.75 1.75 0 0 1-.563-.549q-.201-.335-.201-.818 0-.589.308-1.058.322-.468.911-.737.603-.28 1.434-.281 1.179 0 1.875.549.71.536.831 1.514h-1.528a.83.83 0 0 0-.375-.576q-.307-.214-.817-.214-.522 0-.803.201a.59.59 0 0 0-.268.509q0 .201.16.375.174.16.496.281.321.107.79.214.75.148 1.326.349t.911.589.335 1.098q.014.644-.335 1.139-.335.495-.951.777-.617.268-1.473.268"/><path fill="#fff" fill-opacity=".5" fill-rule="evenodd" d="M293.094 319.637h6.854c.228 0 .403 0 .556.017a2.854 2.854 0 0 1 2.548 2.704 3 3 0 0 1 2.134 2.825c.624.188 1.162.483 1.603.959.677.731.887 1.633.895 2.685.007 1.012-.173 2.291-.397 3.88l-.456 3.233c-.175 1.242-.317 2.251-.539 3.042-.231.827-.572 1.507-1.204 2.031-.627.519-1.371.742-2.25.848-.85.102-1.919.102-3.25.102h-6.134c-1.331 0-2.4 0-3.25-.102-.879-.106-1.623-.329-2.25-.848-.632-.524-.973-1.204-1.205-2.031-.221-.791-.363-1.8-.538-3.042l-.456-3.233c-.224-1.589-.404-2.868-.397-3.88.008-1.052.218-1.954.895-2.685.441-.476.979-.771 1.603-.958a3 3 0 0 1 2.133-2.826 2.855 2.855 0 0 1 2.548-2.704c.153-.017.328-.017.557-.017m-3.646 5.273c.962-.081 2.14-.081 3.559-.081h7.028c1.418 0 2.597 0 3.558.081a1.435 1.435 0 0 0-1.401-1.119h-11.343c-.695 0-1.258.488-1.401 1.119m10.89-3.708a1.3 1.3 0 0 1 1.134 1.031h-9.902a1.3 1.3 0 0 1 1.133-1.031c.059-.006.142-.007.434-.007h6.768c.291 0 .375.001.433.007m-12.942 5.998c.315-.34.788-.565 1.707-.687.935-.125 2.188-.126 3.963-.126h6.91c1.775 0 3.027.001 3.963.126.919.122 1.392.347 1.707.687.307.332.473.784.48 1.639.007.883-.155 2.047-.391 3.714l-.439 3.115c-.184 1.31-.314 2.215-.504 2.894-.183.653-.398 1.003-.698 1.251-.304.252-.714.414-1.442.501-.746.09-1.721.091-3.115.091h-6.032c-1.394 0-2.369-.001-3.116-.091-.728-.087-1.137-.249-1.441-.501-.3-.248-.516-.598-.699-1.251-.19-.679-.319-1.584-.503-2.894l-.44-3.115c-.235-1.667-.397-2.831-.39-3.714.006-.855.173-1.307.48-1.639" clip-rule="evenodd"/><path fill="#fff" fill-opacity=".5" d="M386.138 361.87v-9.377h3.67q.991 0 1.648.308.67.309 1.004.858.335.535.335 1.246 0 .71-.308 1.192a2.03 2.03 0 0 1-.817.736 2.9 2.9 0 0 1-1.085.309l.201-.148q.63.014 1.125.335.509.321.804.844.294.509.294 1.139 0 .737-.361 1.326-.348.576-1.032.911-.683.321-1.674.321zm1.607-1.313h1.956q.79 0 1.232-.375t.442-1.045-.455-1.058q-.456-.402-1.246-.402h-1.929zm0-4.099h1.835q.777 0 1.179-.348.402-.361.402-.991 0-.616-.402-.965-.402-.361-1.192-.361h-1.822zm6.549 5.412v-6.751h1.608v6.751zm.804-7.823q-.441 0-.737-.268a.93.93 0 0 1-.281-.683q0-.415.281-.67a1.06 1.06 0 0 1 .737-.268q.442 0 .724.268.294.255.294.67a.9.9 0 0 1-.294.683q-.282.268-.724.268m6.251 7.984q-.535 0-.964-.147a2.5 2.5 0 0 1-.75-.376 2.5 2.5 0 0 1-.536-.576l-.174.938h-1.433v-9.645h1.607v3.885q.321-.495.871-.817.549-.335 1.366-.335.951 0 1.674.469.738.455 1.152 1.259.429.79.429 1.822 0 1.005-.415 1.808a3.14 3.14 0 0 1-1.152 1.259q-.723.456-1.675.456m-.334-1.393q.563 0 1.004-.268.443-.282.683-.75.255-.483.255-1.126 0-.629-.255-1.111a1.8 1.8 0 0 0-.683-.75 1.9 1.9 0 0 0-1.004-.268 1.9 1.9 0 0 0-1.018.268 1.9 1.9 0 0 0-.684.75q-.24.482-.241 1.111 0 .643.241 1.126.255.468.684.75.441.268 1.018.268m4.869 1.232v-9.645h1.607v9.645zm3.2 0v-6.751h1.607v6.751zm.804-7.823q-.443 0-.737-.268a.93.93 0 0 1-.282-.683q0-.415.282-.67.294-.267.737-.268.441 0 .723.268.295.255.295.67a.9.9 0 0 1-.295.683q-.282.268-.723.268m5.541 7.984a3.46 3.46 0 0 1-1.742-.442 3.3 3.3 0 0 1-1.205-1.246q-.429-.803-.429-1.835 0-1.059.442-1.849a3.2 3.2 0 0 1 1.206-1.245 3.4 3.4 0 0 1 1.741-.456q.964 0 1.728.456.777.441 1.206 1.232.441.79.442 1.848 0 1.059-.442 1.849a3.27 3.27 0 0 1-1.219 1.246q-.763.442-1.728.442m0-1.38q.482 0 .87-.241.402-.242.643-.723.242-.483.242-1.193t-.242-1.178a1.62 1.62 0 0 0-1.5-.965q-.469 0-.871.241a1.7 1.7 0 0 0-.642.724q-.242.468-.242 1.178t.242 1.193q.24.481.629.723.402.241.871.241m7.366 1.219q-.682 0-1.192-.214a1.62 1.62 0 0 1-.777-.71q-.28-.496-.281-1.34v-3.134h-1.152v-1.353h1.152l.188-1.782h1.419v1.782h1.836v1.353h-1.836v3.134q0 .51.215.71.228.188.75.188h.83v1.366zm5.428.161q-1.005 0-1.768-.429a3.1 3.1 0 0 1-1.192-1.232q-.429-.79-.429-1.822 0-1.071.415-1.875a3.17 3.17 0 0 1 1.193-1.259q.777-.456 1.795-.456.99 0 1.728.442.736.442 1.138 1.192.402.738.402 1.661v.295q0 .16-.027.335h-5.492v-1.031h3.898q-.027-.738-.495-1.152-.469-.429-1.166-.429-.495 0-.911.228a1.6 1.6 0 0 0-.656.683q-.241.442-.241 1.125v.388q0 .63.228 1.085.24.456.643.697.414.228.924.228.562 0 .924-.241.375-.241.549-.643h1.635a3.1 3.1 0 0 1-.617 1.138 3.1 3.1 0 0 1-1.058.791q-.63.28-1.42.281m7.7 0q-.992 0-1.782-.442a3.27 3.27 0 0 1-1.219-1.246q-.428-.804-.428-1.822 0-1.058.428-1.848a3.24 3.24 0 0 1 1.219-1.259q.79-.456 1.795-.456 1.26 0 2.117.67.856.656 1.098 1.808h-1.688a1.37 1.37 0 0 0-.562-.803 1.67 1.67 0 0 0-.992-.295q-.495 0-.91.254-.402.255-.643.737-.228.483-.228 1.165 0 .523.134.925.133.401.375.683.255.268.576.415.321.148.696.148.389 0 .697-.121.321-.134.536-.388.228-.255.321-.603h1.688q-.242 1.125-1.098 1.808-.858.67-2.13.67m6.761 0q-.831 0-1.38-.281-.55-.282-.817-.751a2 2 0 0 1-.268-1.018q0-.642.321-1.111.335-.47.978-.724.644-.267 1.581-.268h1.701q0-.536-.147-.884a1.05 1.05 0 0 0-.456-.536q-.308-.174-.79-.174-.55 0-.938.255-.389.241-.482.75h-1.581q.081-.723.483-1.232.4-.524 1.058-.804a3.6 3.6 0 0 1 1.46-.295q.95 0 1.621.335.67.321 1.018.938.361.602.361 1.46v4.179h-1.366l-.161-1.085a2 2 0 0 1-.348.496q-.2.227-.469.402a2.4 2.4 0 0 1-.616.254 2.8 2.8 0 0 1-.763.094m.361-1.273q.389 0 .683-.134.309-.147.523-.402.228-.267.348-.589a3 3 0 0 0 .161-.683v-.027h-1.487q-.47 0-.777.121-.308.106-.442.321a.9.9 0 0 0-.134.496q0 .28.134.482a.84.84 0 0 0 .388.308q.255.108.603.107"/><g clip-path="url(#l)"><mask id="m" width="28" height="28" x="402" y="317" maskUnits="userSpaceOnUse" style="mask-type:luminance"><path fill="#fff" d="M402.566 317.405h26.79v26.79h-26.79z"/></mask><g mask="url(#m)"><path fill="#fff" fill-opacity=".5" d="M426.008 327.172a.283.283 0 0 0-.279-.279h-10.326a.84.84 0 0 1-.749-.463l-1.443-2.885h-6.18v14.232c0 .152.127.279.279.279h18.419a.28.28 0 0 0 .279-.279zm1.674 10.605a1.957 1.957 0 0 1-1.953 1.954H407.31a1.96 1.96 0 0 1-1.954-1.954v-15.07c0-.462.375-.837.838-.837h7.535l.117.009c.27.038.507.206.631.454l1.444 2.886h9.808c1.076 0 1.953.877 1.953 1.953z"/></g></g><path fill="#fff" fill-opacity=".5" d="M523.029 362.031q-1.393 0-2.411-.603a4.15 4.15 0 0 1-1.554-1.701q-.536-1.098-.536-2.532 0-1.446.536-2.532a4.13 4.13 0 0 1 1.554-1.714q1.018-.616 2.411-.616 1.674 0 2.733.83 1.058.817 1.339 2.318h-1.768q-.187-.791-.763-1.246-.576-.456-1.554-.456-.885 0-1.527.416-.63.4-.978 1.178-.335.764-.335 1.822t.335 1.822q.348.75.978 1.165.642.402 1.527.402.978 0 1.554-.415.576-.429.763-1.179h1.768q-.268 1.42-1.339 2.237-1.059.804-2.733.804m8.472 0a3.46 3.46 0 0 1-1.742-.442 3.3 3.3 0 0 1-1.205-1.246q-.429-.803-.429-1.835 0-1.059.442-1.849a3.2 3.2 0 0 1 1.206-1.245 3.4 3.4 0 0 1 1.741-.456q.964 0 1.728.456.777.441 1.206 1.232.442.79.442 1.848t-.442 1.849a3.27 3.27 0 0 1-1.219 1.246q-.764.442-1.728.442m0-1.38q.481 0 .87-.241.402-.242.643-.723.241-.483.241-1.193t-.241-1.178a1.62 1.62 0 0 0-1.5-.965 1.67 1.67 0 0 0-.871.241 1.7 1.7 0 0 0-.643.724q-.24.468-.241 1.178 0 .71.241 1.193.241.481.63.723.402.241.871.241m4.694 1.219v-6.751h1.42l.121 1.125q.308-.589.884-.938.576-.348 1.366-.348.817 0 1.393.348.576.335.884.992.322.656.322 1.634v3.938h-1.608v-3.791q0-.843-.375-1.299t-1.111-.456q-.483 0-.871.228-.375.228-.603.67-.214.429-.214 1.045v3.603zm10.75 0q-.683 0-1.192-.214a1.62 1.62 0 0 1-.777-.71q-.28-.496-.281-1.34v-3.134h-1.152v-1.353h1.152l.187-1.782h1.42v1.782h1.835v1.353h-1.835v3.134q0 .51.215.71.226.188.75.188h.83v1.366zm4.687.161q-.83 0-1.379-.281-.55-.282-.818-.751a2 2 0 0 1-.267-1.018q0-.642.321-1.111.334-.47.978-.724.643-.267 1.581-.268h1.701q0-.536-.148-.884a1.04 1.04 0 0 0-.455-.536q-.308-.174-.79-.174-.55 0-.938.255-.389.241-.482.75h-1.581q.08-.723.482-1.232a2.6 2.6 0 0 1 1.059-.804 3.6 3.6 0 0 1 1.46-.295q.951 0 1.62.335a2.26 2.26 0 0 1 1.019.938q.361.602.361 1.46v4.179h-1.366l-.161-1.085a2 2 0 0 1-.348.496q-.2.227-.469.402a2.4 2.4 0 0 1-.616.254 2.8 2.8 0 0 1-.764.094m.362-1.273q.389 0 .683-.134.309-.147.523-.402a2 2 0 0 0 .348-.589 3 3 0 0 0 .161-.683v-.027h-1.487q-.47 0-.777.121-.309.106-.442.321a.9.9 0 0 0-.134.496q0 .28.134.482a.84.84 0 0 0 .388.308q.255.108.603.107"/><mask id="n" width="28" height="28" x="524" y="317" maskUnits="userSpaceOnUse" style="mask-type:luminance"><path fill="#fff" d="M524.241 317.405h26.791v26.79h-26.791z"/></mask><g mask="url(#n)"><path stroke="#fff" stroke-linecap="round" stroke-miterlimit="10" stroke-opacity=".5" stroke-width="1.674" d="M537.636 341.126a10.326 10.326 0 1 0 0-20.651 10.326 10.326 0 0 0 0 20.651Z"/><path fill="#fff" fill-opacity=".5" fill-rule="evenodd" d="m530.877 338.606.187-.258a4.74 4.74 0 0 1 3.845-1.967h5.456a4.75 4.75 0 0 1 3.845 1.967l.187.257a10.4 10.4 0 0 0 1.188-1.213l-.017-.024a6.43 6.43 0 0 0-5.203-2.661h-5.456a6.42 6.42 0 0 0-5.203 2.66l-.018.025q.546.656 1.189 1.214" clip-rule="evenodd"/><path stroke="#fff" stroke-linejoin="round" stroke-opacity=".5" stroke-width="1.674" d="M534.567 327.451a3.07 3.07 0 1 1 6.139 0v1.675a3.07 3.07 0 0 1-3.07 3.069 3.066 3.066 0 0 1-3.069-3.069z"/></g><rect width="177.92" height="6.4" fill="#fff" rx="3.2" transform="matrix(-1 0 0 1 445.76 394.354)"/></g><rect width="479" height="297" x="117.3" y="113.3" stroke="#fff" stroke-opacity=".43" rx="26.291" shape-rendering="crispEdges"/></g><defs><filter id="a" width="713.6" height="531.6" x="0" y="0" color-interpolation-filters="sRGB" filterUnits="userSpaceOnUse"><feFlood flood-opacity="0" result="BackgroundImageFix"/><feColorMatrix in="SourceAlpha" result="hardAlpha" values="0 0 0 0 0 0 0 0 0 0 0 0 0 0 0 0 0 0 127 0"/><feOffset dy="4"/><feGaussianBlur stdDeviation="58.4"/><feComposite in2="hardAlpha" operator="out"/><feColorMatrix values="0 0 0 0 0.357093 0 0 0 0 0.552995 0 0 0 0 0.813176 0 0 0 0.31 0"/><feBlend in2="BackgroundImageFix" result="effect1_dropShadow_440_54227"/><feBlend in="BackgroundImageFix" in2="effect1_dropShadow_440_54227" result="BackgroundImageFix"/><feBlend in="SourceGraphic" in2="BackgroundImageFix" result="shape"/></filter><filter id="c" width="522.455" height="230.059" x="73.106" y="98.984" color-interpolation-filters="sRGB" filterUnits="userSpaceOnUse"><feFlood flood-opacity="0" result="BackgroundImageFix"/><feBlend in="SourceGraphic" in2="BackgroundImageFix" result="shape"/><feGaussianBlur result="effect1_foregroundBlur_440_54227" stdDeviation="34.78"/></filter><filter id="g" width="313.675" height="229.954" x="593.451" y="-92.27" color-interpolation-filters="sRGB" filterUnits="userSpaceOnUse"><feFlood flood-opacity="0" result="BackgroundImageFix"/><feColorMatrix in="SourceAlpha" result="hardAlpha" values="0 0 0 0 0 0 0 0 0 0 0 0 0 0 0 0 0 0 127 0"/><feOffset dx="37.953" dy="27.907"/><feGaussianBlur stdDeviation="24"/><feColorMatrix values="0 0 0 0 0.490196 0 0 0 0 0.545098 0 0 0 0 0.666667 0 0 0 0.04 0"/><feBlend in2="BackgroundImageFix" result="effect1_dropShadow_440_54227"/><feBlend in="SourceGraphic" in2="effect1_dropShadow_440_54227" result="shape"/></filter><filter id="h" width="441.922" height="210.952" x="266.098" y="287.87" color-interpolation-filters="sRGB" filterUnits="userSpaceOnUse"><feFlood flood-opacity="0" result="BackgroundImageFix"/><feBlend in="SourceGraphic" in2="BackgroundImageFix" result="shape"/><feGaussianBlur result="effect1_foregroundBlur_440_54227" stdDeviation="34.78"/></filter><filter id="i" width="441.922" height="210.952" x="266.098" y="287.87" color-interpolation-filters="sRGB" filterUnits="userSpaceOnUse"><feFlood flood-opacity="0" result="BackgroundImageFix"/><feBlend in="SourceGraphic" in2="BackgroundImageFix" result="shape"/><feGaussianBlur result="effect1_foregroundBlur_440_54227" stdDeviation="34.78"/></filter><filter id="j" width="537.209" height="263.558" x="65.499" y="268.157" color-interpolation-filters="sRGB" filterUnits="userSpaceOnUse"><feFlood flood-opacity="0" result="BackgroundImageFix"/><feBlend in="SourceGraphic" in2="BackgroundImageFix" result="shape"/><feGaussianBlur result="effect1_foregroundBlur_440_54227" stdDeviation="34.78"/></filter><linearGradient id="d" x1="130.195" x2="562.3" y1="214.707" y2="219.8" gradientUnits="userSpaceOnUse"><stop stop-color="#fff"/><stop offset="1" stop-color="#fff" stop-opacity="0"/></linearGradient><linearGradient id="e" x1="130.195" x2="583.405" y1="214.707" y2="214.707" gradientUnits="userSpaceOnUse"><stop stop-color="#e6e8ee"/><stop offset="1" stop-color="#e6e8ee"/></linearGradient><clipPath id="b"><rect width="480" height="298" x="116.8" y="112.8" fill="#fff" rx="26.791"/></clipPath><clipPath id="l"><path fill="#fff" d="M402.566 317.405h26.791v26.791h-26.791z"/></clipPath><radialGradient id="f" cx="0" cy="0" r="1" gradientTransform="rotate(90 167.604 382.311)scale(36.2791)" gradientUnits="userSpaceOnUse"><stop offset=".191" stop-color="#4369ee"/><stop offset="1" stop-color="#4369ee"/></radialGradient></defs></svg>