<svg width="714" height="532" viewBox="0 0 714 532" fill="none" xmlns="http://www.w3.org/2000/svg">
<g filter="url(#filter0_d_440_54227)">
<g clip-path="url(#clip0_440_54227)">
<rect x="116.8" y="112.8" width="480" height="298" rx="26.7907" fill="black" fill-opacity="0.01" shape-rendering="crispEdges"/>
<g filter="url(#filter1_f_440_54227)" style="mix-blend-mode:screen">
<path d="M520.734 250.906C501.311 270.329 182.967 249.785 155.596 256.096C134.826 235.325 141.019 213.081 160.441 193.659C179.864 174.236 426.668 160.491 480.36 173.882C501.13 194.652 540.157 231.483 520.734 250.906Z" fill="#2E3069" fill-opacity="0.4"/>
</g>
<rect x="130.195" y="183.451" width="453.209" height="62.5116" rx="31.2558" fill="url(#paint0_linear_440_54227)" fill-opacity="0.15"/>
<rect x="130.753" y="184.009" width="452.093" height="61.3953" rx="30.6977" stroke="url(#paint1_linear_440_54227)" stroke-opacity="0.12" stroke-width="1.11628"/>
<path d="M156.715 219.443L166.187 209.971M156.715 209.971L166.187 219.443" stroke="white" stroke-width="2.25684" stroke-linecap="round" stroke-linejoin="round"/>
<path fill-rule="evenodd" clip-rule="evenodd" d="M244.857 206.893C245.46 206.893 245.949 207.382 245.949 207.985V222.545C245.949 223.148 245.46 223.637 244.857 223.637C244.253 223.637 243.765 223.148 243.765 222.545V207.985C243.765 207.382 244.253 206.893 244.857 206.893ZM236.12 208.349C236.724 208.349 237.212 208.838 237.212 209.441V221.089C237.212 221.692 236.724 222.181 236.12 222.181C235.517 222.181 235.028 221.692 235.028 221.089V209.441C235.028 208.838 235.517 208.349 236.12 208.349ZM240.489 211.261C241.092 211.261 241.581 211.75 241.581 212.353V218.177C241.581 218.78 241.092 219.269 240.489 219.269C239.885 219.269 239.396 218.78 239.396 218.177V212.353C239.396 211.75 239.885 211.261 240.489 211.261ZM231.752 212.717C232.356 212.717 232.844 213.206 232.844 213.809V216.721C232.844 217.324 232.356 217.813 231.752 217.813C231.149 217.813 230.66 217.324 230.66 216.721V213.809C230.66 213.206 231.149 212.717 231.752 212.717Z" fill="white" fill-opacity="0.22"/>
<path d="M248.909 212.52C249.512 212.52 250.001 213.009 250.001 213.612V216.524C250.001 217.127 249.512 217.616 248.909 217.616C248.306 217.616 247.817 217.127 247.817 216.524V213.612C247.817 213.009 248.306 212.52 248.909 212.52Z" fill="white" fill-opacity="0.22"/>
<path fill-rule="evenodd" clip-rule="evenodd" d="M417.88 206.893C418.483 206.893 418.972 207.382 418.972 207.985V222.545C418.972 223.148 418.483 223.637 417.88 223.637C417.277 223.637 416.788 223.148 416.788 222.545V207.985C416.788 207.382 417.277 206.893 417.88 206.893ZM409.144 208.349C409.747 208.349 410.236 208.838 410.236 209.441V221.089C410.236 221.692 409.747 222.181 409.144 222.181C408.541 222.181 408.052 221.692 408.052 221.089V209.441C408.052 208.838 408.541 208.349 409.144 208.349ZM413.512 211.261C414.115 211.261 414.604 211.75 414.604 212.353V218.177C414.604 218.78 414.115 219.269 413.512 219.269C412.909 219.269 412.42 218.78 412.42 218.177V212.353C412.42 211.75 412.909 211.261 413.512 211.261ZM404.776 212.717C405.379 212.717 405.868 213.206 405.868 213.809V216.721C405.868 217.324 405.379 217.813 404.776 217.813C404.173 217.813 403.684 217.324 403.684 216.721V213.809C403.684 213.206 404.173 212.717 404.776 212.717Z" fill="white"/>
<path d="M421.932 212.52C422.535 212.52 423.024 213.009 423.024 213.612V216.524C423.024 217.127 422.535 217.616 421.932 217.616C421.329 217.616 420.84 217.127 420.84 216.524V213.612C420.84 213.009 421.329 212.52 421.932 212.52Z" fill="white"/>
<path fill-rule="evenodd" clip-rule="evenodd" d="M299.554 206.893C300.157 206.893 300.646 207.382 300.646 207.985V222.545C300.646 223.148 300.157 223.637 299.554 223.637C298.951 223.637 298.462 223.148 298.462 222.545V207.985C298.462 207.382 298.951 206.893 299.554 206.893ZM290.818 208.349C291.421 208.349 291.91 208.838 291.91 209.441V221.089C291.91 221.692 291.421 222.181 290.818 222.181C290.215 222.181 289.726 221.692 289.726 221.089V209.441C289.726 208.838 290.215 208.349 290.818 208.349ZM295.186 211.261C295.789 211.261 296.278 211.75 296.278 212.353V218.177C296.278 218.78 295.789 219.269 295.186 219.269C294.583 219.269 294.094 218.78 294.094 218.177V212.353C294.094 211.75 294.583 211.261 295.186 211.261ZM286.45 212.717C287.053 212.717 287.542 213.206 287.542 213.809V216.721C287.542 217.324 287.053 217.813 286.45 217.813C285.847 217.813 285.358 217.324 285.358 216.721V213.809C285.358 213.206 285.847 212.717 286.45 212.717Z" fill="white" fill-opacity="0.22"/>
<path d="M303.607 212.52C304.21 212.52 304.699 213.009 304.699 213.612V216.524C304.699 217.127 304.21 217.616 303.607 217.616C303.004 217.616 302.515 217.127 302.515 216.524V213.612C302.515 213.009 303.004 212.52 303.607 212.52Z" fill="white" fill-opacity="0.22"/>
<path fill-rule="evenodd" clip-rule="evenodd" d="M363.182 206.893C363.785 206.893 364.274 207.382 364.274 207.985V222.545C364.274 223.148 363.785 223.637 363.182 223.637C362.579 223.637 362.09 223.148 362.09 222.545V207.985C362.09 207.382 362.579 206.893 363.182 206.893ZM354.446 208.349C355.049 208.349 355.538 208.838 355.538 209.441V221.089C355.538 221.692 355.049 222.181 354.446 222.181C353.843 222.181 353.354 221.692 353.354 221.089V209.441C353.354 208.838 353.843 208.349 354.446 208.349ZM358.814 211.261C359.417 211.261 359.906 211.75 359.906 212.353V218.177C359.906 218.78 359.417 219.269 358.814 219.269C358.211 219.269 357.722 218.78 357.722 218.177V212.353C357.722 211.75 358.211 211.261 358.814 211.261ZM350.078 212.717C350.681 212.717 351.17 213.206 351.17 213.809V216.721C351.17 217.324 350.681 217.813 350.078 217.813C349.475 217.813 348.986 217.324 348.986 216.721V213.809C348.986 213.206 349.475 212.717 350.078 212.717Z" fill="white"/>
<path d="M367.235 212.52C367.838 212.52 368.327 213.009 368.327 213.612V216.524C368.327 217.127 367.838 217.616 367.235 217.616C366.632 217.616 366.143 217.127 366.143 216.524V213.612C366.143 213.009 366.632 212.52 367.235 212.52Z" fill="white"/>
<path fill-rule="evenodd" clip-rule="evenodd" d="M332.921 206.893C332.318 206.893 331.829 207.382 331.829 207.985V222.545C331.829 223.148 332.318 223.637 332.921 223.637C333.524 223.637 334.013 223.148 334.013 222.545V207.985C334.013 207.382 333.524 206.893 332.921 206.893ZM341.657 208.349C341.054 208.349 340.565 208.838 340.565 209.441V221.089C340.565 221.692 341.054 222.181 341.657 222.181C342.26 222.181 342.749 221.692 342.749 221.089V209.441C342.749 208.838 342.26 208.349 341.657 208.349ZM337.289 211.261C336.686 211.261 336.197 211.75 336.197 212.353V218.177C336.197 218.78 336.686 219.269 337.289 219.269C337.892 219.269 338.381 218.78 338.381 218.177V212.353C338.381 211.75 337.892 211.261 337.289 211.261ZM346.025 212.717C345.422 212.717 344.933 213.206 344.933 213.809V216.721C344.933 217.324 345.422 217.813 346.025 217.813C346.629 217.813 347.117 217.324 347.117 216.721V213.809C347.117 213.206 346.629 212.717 346.025 212.717Z" fill="white" fill-opacity="0.22"/>
<path d="M328.869 212.52C328.266 212.52 327.777 213.009 327.777 213.612V216.524C327.777 217.127 328.266 217.616 328.869 217.616C329.472 217.616 329.961 217.127 329.961 216.524V213.612C329.961 213.009 329.472 212.52 328.869 212.52Z" fill="white" fill-opacity="0.22"/>
<path fill-rule="evenodd" clip-rule="evenodd" d="M320.764 206.893C321.367 206.893 321.856 207.382 321.856 207.985V222.545C321.856 223.148 321.367 223.637 320.764 223.637C320.16 223.637 319.672 223.148 319.672 222.545V207.985C319.672 207.382 320.16 206.893 320.764 206.893ZM312.027 208.349C312.631 208.349 313.119 208.838 313.119 209.441V221.089C313.119 221.692 312.631 222.181 312.027 222.181C311.424 222.181 310.935 221.692 310.935 221.089V209.441C310.935 208.838 311.424 208.349 312.027 208.349ZM316.395 211.261C316.999 211.261 317.488 211.75 317.488 212.353V218.177C317.488 218.78 316.999 219.269 316.395 219.269C315.792 219.269 315.303 218.78 315.303 218.177V212.353C315.303 211.75 315.792 211.261 316.395 211.261ZM307.659 212.717C308.262 212.717 308.751 213.206 308.751 213.809V216.721C308.751 217.324 308.262 217.813 307.659 217.813C307.056 217.813 306.567 217.324 306.567 216.721V213.809C306.567 213.206 307.056 212.717 307.659 212.717Z" fill="white" fill-opacity="0.22"/>
<path d="M324.816 212.52C325.419 212.52 325.908 213.009 325.908 213.612V216.524C325.908 217.127 325.419 217.616 324.816 217.616C324.213 217.616 323.724 217.127 323.724 216.524V213.612C323.724 213.009 324.213 212.52 324.816 212.52Z" fill="white" fill-opacity="0.22"/>
<path fill-rule="evenodd" clip-rule="evenodd" d="M472.578 206.893C473.181 206.893 473.67 207.382 473.67 207.985V222.545C473.67 223.148 473.181 223.637 472.578 223.637C471.974 223.637 471.485 223.148 471.485 222.545V207.985C471.485 207.382 471.974 206.893 472.578 206.893ZM463.841 208.349C464.445 208.349 464.933 208.838 464.933 209.441V221.089C464.933 221.692 464.445 222.181 463.841 222.181C463.238 222.181 462.749 221.692 462.749 221.089V209.441C462.749 208.838 463.238 208.349 463.841 208.349ZM468.209 211.261C468.813 211.261 469.301 211.75 469.301 212.353V218.177C469.301 218.78 468.813 219.269 468.209 219.269C467.606 219.269 467.117 218.78 467.117 218.177V212.353C467.117 211.75 467.606 211.261 468.209 211.261ZM459.473 212.717C460.076 212.717 460.565 213.206 460.565 213.809V216.721C460.565 217.324 460.076 217.813 459.473 217.813C458.87 217.813 458.381 217.324 458.381 216.721V213.809C458.381 213.206 458.87 212.717 459.473 212.717Z" fill="white"/>
<path d="M476.63 212.52C477.233 212.52 477.722 213.009 477.722 213.612V216.524C477.722 217.127 477.233 217.616 476.63 217.616C476.027 217.616 475.538 217.127 475.538 216.524V213.612C475.538 213.009 476.027 212.52 476.63 212.52Z" fill="white"/>
<path fill-rule="evenodd" clip-rule="evenodd" d="M252.962 206.893C252.359 206.893 251.87 207.382 251.87 207.985V222.545C251.87 223.148 252.359 223.637 252.962 223.637C253.565 223.637 254.054 223.148 254.054 222.545V207.985C254.054 207.382 253.565 206.893 252.962 206.893ZM261.698 208.349C261.095 208.349 260.606 208.838 260.606 209.441V221.089C260.606 221.692 261.095 222.181 261.698 222.181C262.301 222.181 262.79 221.692 262.79 221.089V209.441C262.79 208.838 262.301 208.349 261.698 208.349ZM257.33 211.261C256.727 211.261 256.238 211.75 256.238 212.353V218.177C256.238 218.78 256.727 219.269 257.33 219.269C257.933 219.269 258.422 218.78 258.422 218.177V212.353C258.422 211.75 257.933 211.261 257.33 211.261ZM266.066 212.717C265.463 212.717 264.974 213.206 264.974 213.809V216.721C264.974 217.324 265.463 217.813 266.066 217.813C266.669 217.813 267.158 217.324 267.158 216.721V213.809C267.158 213.206 266.669 212.717 266.066 212.717Z" fill="white" fill-opacity="0.22"/>
<path fill-rule="evenodd" clip-rule="evenodd" d="M388.032 206.893C387.429 206.893 386.94 207.382 386.94 207.985V222.545C386.94 223.148 387.429 223.637 388.032 223.637C388.635 223.637 389.124 223.148 389.124 222.545V207.985C389.124 207.382 388.635 206.893 388.032 206.893ZM396.768 208.349C396.165 208.349 395.676 208.838 395.676 209.441V221.089C395.676 221.692 396.165 222.181 396.768 222.181C397.371 222.181 397.86 221.692 397.86 221.089V209.441C397.86 208.838 397.371 208.349 396.768 208.349ZM392.4 211.261C391.797 211.261 391.308 211.75 391.308 212.353V218.177C391.308 218.78 391.797 219.269 392.4 219.269C393.003 219.269 393.492 218.78 393.492 218.177V212.353C393.492 211.75 393.003 211.261 392.4 211.261ZM401.136 212.717C400.533 212.717 400.044 213.206 400.044 213.809V216.721C400.044 217.324 400.533 217.813 401.136 217.813C401.739 217.813 402.228 217.324 402.228 216.721V213.809C402.228 213.206 401.739 212.717 401.136 212.717Z" fill="white"/>
<path fill-rule="evenodd" clip-rule="evenodd" d="M425.985 206.893C425.382 206.893 424.893 207.382 424.893 207.985V222.545C424.893 223.148 425.382 223.637 425.985 223.637C426.588 223.637 427.077 223.148 427.077 222.545V207.985C427.077 207.382 426.588 206.893 425.985 206.893ZM434.721 208.349C434.118 208.349 433.629 208.838 433.629 209.441V221.089C433.629 221.692 434.118 222.181 434.721 222.181C435.324 222.181 435.813 221.692 435.813 221.089V209.441C435.813 208.838 435.324 208.349 434.721 208.349ZM430.353 211.261C429.75 211.261 429.261 211.75 429.261 212.353V218.177C429.261 218.78 429.75 219.269 430.353 219.269C430.956 219.269 431.445 218.78 431.445 218.177V212.353C431.445 211.75 430.956 211.261 430.353 211.261ZM439.089 212.717C438.486 212.717 437.997 213.206 437.997 213.809V216.721C437.997 217.324 438.486 217.813 439.089 217.813C439.692 217.813 440.181 217.324 440.181 216.721V213.809C440.181 213.206 439.692 212.717 439.089 212.717Z" fill="white"/>
<path fill-rule="evenodd" clip-rule="evenodd" d="M442.729 206.893C442.126 206.893 441.637 207.382 441.637 207.985V222.545C441.637 223.148 442.126 223.637 442.729 223.637C443.332 223.637 443.821 223.148 443.821 222.545V207.985C443.821 207.382 443.332 206.893 442.729 206.893ZM451.465 208.349C450.862 208.349 450.373 208.838 450.373 209.441V221.089C450.373 221.692 450.862 222.181 451.465 222.181C452.068 222.181 452.557 221.692 452.557 221.089V209.441C452.557 208.838 452.068 208.349 451.465 208.349ZM447.097 211.261C446.494 211.261 446.005 211.75 446.005 212.353V218.177C446.005 218.78 446.494 219.269 447.097 219.269C447.7 219.269 448.189 218.78 448.189 218.177V212.353C448.189 211.75 447.7 211.261 447.097 211.261ZM455.833 212.717C455.23 212.717 454.741 213.206 454.741 213.809V216.721C454.741 217.324 455.23 217.813 455.833 217.813C456.436 217.813 456.925 217.324 456.925 216.721V213.809C456.925 213.206 456.436 212.717 455.833 212.717Z" fill="white"/>
<path fill-rule="evenodd" clip-rule="evenodd" d="M371.287 206.893C370.684 206.893 370.195 207.382 370.195 207.985V222.545C370.195 223.148 370.684 223.637 371.287 223.637C371.89 223.637 372.379 223.148 372.379 222.545V207.985C372.379 207.382 371.89 206.893 371.287 206.893ZM380.023 208.349C379.42 208.349 378.931 208.838 378.931 209.441V221.089C378.931 221.692 379.42 222.181 380.023 222.181C380.626 222.181 381.115 221.692 381.115 221.089V209.441C381.115 208.838 380.626 208.349 380.023 208.349ZM375.655 211.261C375.052 211.261 374.563 211.75 374.563 212.353V218.177C374.563 218.78 375.052 219.269 375.655 219.269C376.258 219.269 376.747 218.78 376.747 218.177V212.353C376.747 211.75 376.258 211.261 375.655 211.261ZM384.391 212.717C383.788 212.717 383.299 213.206 383.299 213.809V216.721C383.299 217.324 383.788 217.813 384.391 217.813C384.994 217.813 385.483 217.324 385.483 216.721V213.809C385.483 213.206 384.994 212.717 384.391 212.717Z" fill="white"/>
<path fill-rule="evenodd" clip-rule="evenodd" d="M480.683 206.893C480.08 206.893 479.591 207.382 479.591 207.985V222.545C479.591 223.148 480.08 223.637 480.683 223.637C481.286 223.637 481.775 223.148 481.775 222.545V207.985C481.775 207.382 481.286 206.893 480.683 206.893ZM489.419 208.349C488.816 208.349 488.327 208.838 488.327 209.441V221.089C488.327 221.692 488.816 222.181 489.419 222.181C490.022 222.181 490.511 221.692 490.511 221.089V209.441C490.511 208.838 490.022 208.349 489.419 208.349ZM485.051 211.261C484.448 211.261 483.959 211.75 483.959 212.353V218.177C483.959 218.78 484.448 219.269 485.051 219.269C485.654 219.269 486.143 218.78 486.143 218.177V212.353C486.143 211.75 485.654 211.261 485.051 211.261ZM493.787 212.717C493.184 212.717 492.695 213.206 492.695 213.809V216.721C492.695 217.324 493.184 217.813 493.787 217.813C494.39 217.813 494.879 217.324 494.879 216.721V213.809C494.879 213.206 494.39 212.717 493.787 212.717Z" fill="white"/>
<path fill-rule="evenodd" clip-rule="evenodd" d="M497.427 206.893C496.824 206.893 496.335 207.382 496.335 207.985V222.545C496.335 223.148 496.824 223.637 497.427 223.637C498.03 223.637 498.519 223.148 498.519 222.545V207.985C498.519 207.382 498.03 206.893 497.427 206.893ZM506.163 208.349C505.56 208.349 505.071 208.838 505.071 209.441V221.089C505.071 221.692 505.56 222.181 506.163 222.181C506.766 222.181 507.255 221.692 507.255 221.089V209.441C507.255 208.838 506.766 208.349 506.163 208.349ZM501.795 211.261C501.192 211.261 500.703 211.75 500.703 212.353V218.177C500.703 218.78 501.192 219.269 501.795 219.269C502.398 219.269 502.887 218.78 502.887 218.177V212.353C502.887 211.75 502.398 211.261 501.795 211.261ZM510.531 212.717C509.928 212.717 509.439 213.206 509.439 213.809V216.721C509.439 217.324 509.928 217.813 510.531 217.813C511.134 217.813 511.623 217.324 511.623 216.721V213.809C511.623 213.206 511.134 212.717 510.531 212.717Z" fill="white"/>
<path fill-rule="evenodd" clip-rule="evenodd" d="M282.81 206.893C283.413 206.893 283.902 207.382 283.902 207.985V222.545C283.902 223.148 283.413 223.637 282.81 223.637C282.207 223.637 281.718 223.148 281.718 222.545V207.985C281.718 207.382 282.207 206.893 282.81 206.893ZM274.074 208.349C274.677 208.349 275.166 208.838 275.166 209.441V221.089C275.166 221.692 274.677 222.181 274.074 222.181C273.471 222.181 272.982 221.692 272.982 221.089V209.441C272.982 208.838 273.471 208.349 274.074 208.349ZM278.442 211.261C279.045 211.261 279.534 211.75 279.534 212.353V218.177C279.534 218.78 279.045 219.269 278.442 219.269C277.839 219.269 277.35 218.78 277.35 218.177V212.353C277.35 211.75 277.839 211.261 278.442 211.261ZM269.706 212.717C270.309 212.717 270.798 213.206 270.798 213.809V216.721C270.798 217.324 270.309 217.813 269.706 217.813C269.103 217.813 268.614 217.324 268.614 216.721V213.809C268.614 213.206 269.103 212.717 269.706 212.717Z" fill="white" fill-opacity="0.22"/>
<path d="M195.882 219.848C194.913 219.848 194.079 219.614 193.381 219.145C192.683 218.666 192.147 218.004 191.771 217.16C191.396 216.306 191.209 215.316 191.209 214.191C191.209 213.066 191.396 212.081 191.771 211.237C192.147 210.383 192.683 209.721 193.381 209.252C194.079 208.773 194.913 208.534 195.882 208.534C196.851 208.534 197.679 208.773 198.366 209.252C199.065 209.721 199.596 210.383 199.961 211.237C200.336 212.081 200.523 213.066 200.523 214.191C200.523 215.316 200.336 216.306 199.961 217.16C199.596 218.004 199.065 218.666 198.366 219.145C197.679 219.614 196.851 219.848 195.882 219.848ZM195.882 218.457C196.465 218.457 196.986 218.285 197.444 217.942C197.913 217.598 198.278 217.108 198.538 216.473C198.799 215.837 198.929 215.076 198.929 214.191C198.929 213.305 198.799 212.545 198.538 211.909C198.278 211.274 197.913 210.789 197.444 210.456C196.986 210.112 196.465 209.94 195.882 209.94C195.288 209.94 194.756 210.112 194.288 210.456C193.819 210.789 193.454 211.274 193.194 211.909C192.933 212.545 192.803 213.305 192.803 214.191C192.803 215.076 192.933 215.837 193.194 216.473C193.454 217.108 193.819 217.598 194.288 217.942C194.756 218.285 195.288 218.457 195.882 218.457ZM202.483 219.739C202.181 219.739 201.931 219.645 201.733 219.457C201.546 219.26 201.452 219.025 201.452 218.754C201.452 218.473 201.546 218.239 201.733 218.051C201.931 217.853 202.181 217.754 202.483 217.754C202.785 217.754 203.03 217.853 203.218 218.051C203.405 218.239 203.499 218.473 203.499 218.754C203.499 219.025 203.405 219.26 203.218 219.457C203.03 219.645 202.785 219.739 202.483 219.739ZM202.483 213.581C202.181 213.581 201.931 213.488 201.733 213.3C201.546 213.102 201.452 212.868 201.452 212.597C201.452 212.316 201.546 212.081 201.733 211.894C201.931 211.696 202.181 211.597 202.483 211.597C202.785 211.597 203.03 211.696 203.218 211.894C203.405 212.081 203.499 212.316 203.499 212.597C203.499 212.868 203.405 213.102 203.218 213.3C203.03 213.488 202.785 213.581 202.483 213.581ZM204.652 219.661V218.535C205.381 217.973 206.074 217.405 206.731 216.832C207.387 216.259 207.97 215.691 208.481 215.129C209.002 214.556 209.408 213.998 209.7 213.456C209.992 212.904 210.137 212.378 210.137 211.878C210.137 211.524 210.075 211.196 209.95 210.893C209.825 210.591 209.627 210.346 209.356 210.159C209.085 209.961 208.715 209.862 208.246 209.862C207.798 209.862 207.423 209.961 207.121 210.159C206.83 210.357 206.606 210.623 206.449 210.956C206.303 211.279 206.23 211.638 206.23 212.034H204.715C204.725 211.284 204.886 210.649 205.199 210.128C205.512 209.607 205.934 209.211 206.465 208.94C207.007 208.669 207.611 208.534 208.278 208.534C208.976 208.534 209.58 208.664 210.091 208.924C210.601 209.174 210.997 209.544 211.278 210.034C211.56 210.513 211.7 211.102 211.7 211.8C211.7 212.3 211.601 212.8 211.403 213.3C211.205 213.79 210.934 214.269 210.591 214.738C210.257 215.207 209.882 215.66 209.465 216.097C209.049 216.525 208.616 216.931 208.168 217.316C207.731 217.702 207.309 218.051 206.902 218.364H212.044V219.661H204.652ZM216.891 219.848C216.193 219.848 215.552 219.723 214.969 219.473C214.396 219.213 213.937 218.827 213.594 218.317C213.26 217.796 213.083 217.145 213.062 216.363H214.625C214.635 216.759 214.729 217.119 214.906 217.441C215.083 217.764 215.339 218.025 215.672 218.223C216.016 218.41 216.422 218.504 216.891 218.504C217.36 218.504 217.751 218.416 218.063 218.239C218.386 218.061 218.626 217.822 218.782 217.52C218.949 217.217 219.032 216.879 219.032 216.504C219.032 216.035 218.917 215.655 218.688 215.363C218.469 215.071 218.167 214.852 217.782 214.707C217.407 214.561 216.985 214.488 216.516 214.488H215.703V213.175H216.516C217.172 213.175 217.693 213.024 218.079 212.722C218.475 212.42 218.673 211.993 218.673 211.44C218.673 210.982 218.522 210.607 218.219 210.315C217.917 210.023 217.474 209.878 216.891 209.878C216.308 209.878 215.844 210.044 215.5 210.378C215.167 210.711 214.979 211.133 214.938 211.644H213.39C213.422 211.029 213.583 210.487 213.875 210.018C214.177 209.539 214.583 209.174 215.094 208.924C215.615 208.664 216.214 208.534 216.891 208.534C217.62 208.534 218.23 208.664 218.719 208.924C219.22 209.174 219.595 209.513 219.845 209.94C220.105 210.367 220.235 210.836 220.235 211.347C220.235 211.732 220.162 212.092 220.017 212.425C219.871 212.748 219.662 213.029 219.391 213.269C219.121 213.508 218.792 213.68 218.407 213.785C218.824 213.868 219.199 214.029 219.532 214.269C219.866 214.509 220.126 214.821 220.314 215.207C220.501 215.582 220.595 216.019 220.595 216.519C220.595 217.113 220.454 217.665 220.173 218.176C219.892 218.676 219.475 219.082 218.923 219.395C218.381 219.697 217.704 219.848 216.891 219.848Z" fill="white"/>
<rect x="532.055" y="196.847" width="35.7209" height="35.7209" rx="17.8605" fill="url(#paint2_radial_440_54227)"/>
<path fill-rule="evenodd" clip-rule="evenodd" d="M550.062 207.674C550.426 207.309 551.017 207.309 551.382 207.674L556.253 212.545C556.618 212.909 556.618 213.501 556.253 213.865C555.888 214.23 555.297 214.23 554.933 213.865L551.655 210.588V221.729C551.655 222.245 551.237 222.663 550.722 222.663C550.206 222.663 549.788 222.245 549.788 221.729V210.588L546.105 214.271C545.74 214.636 545.149 214.636 544.785 214.271C544.42 213.907 544.42 213.315 544.785 212.951L550.062 207.674Z" fill="white"/>
<g filter="url(#filter2_d_440_54227)">
<rect x="603.498" y="-72.1768" width="217.674" height="133.953" rx="17.8605" fill="white"/>
<rect x="604.056" y="-71.6186" width="216.558" height="132.837" rx="17.3023" stroke="#F9F9F8" stroke-width="1.11628"/>
</g>
<g filter="url(#filter3_f_440_54227)" style="mix-blend-mode:screen">
<path d="M634.298 422.471C618.953 437.816 367.489 421.636 345.867 426.625C329.464 410.221 334.359 392.649 349.704 377.304C365.049 361.959 560.007 351.064 602.417 361.634C618.821 378.038 649.643 407.126 634.298 422.471Z" fill="#2E3069" fill-opacity="0.4"/>
</g>
<g filter="url(#filter4_f_440_54227)" style="mix-blend-mode:screen">
<path d="M634.298 422.471C618.953 437.816 367.489 421.636 345.867 426.625C329.464 410.221 334.359 392.649 349.704 377.304C365.049 361.959 560.007 351.064 602.417 361.634C618.821 378.038 649.643 407.126 634.298 422.471Z" fill="#2E3069" fill-opacity="0.4"/>
</g>
<g filter="url(#filter5_f_440_54227)" style="mix-blend-mode:screen">
<path d="M529.481 459.548C512.498 476.532 180.432 404.869 153.161 407.05C128.416 382.306 131.288 360.312 148.272 343.328C165.255 326.344 417.996 351.255 475.575 373.595C500.319 398.339 546.465 442.565 529.481 459.548Z" fill="#561E57" fill-opacity="0.19"/>
</g>
<rect width="480" height="107.163" transform="translate(116.8 304.009)" fill="black" fill-opacity="0.01"/>
<path d="M165.78 362.031C164.852 362.031 164.048 361.83 163.369 361.428C162.7 361.017 162.182 360.45 161.815 359.727C161.458 358.995 161.28 358.151 161.28 357.195C161.28 356.231 161.458 355.387 161.815 354.663C162.182 353.931 162.7 353.36 163.369 352.949C164.048 352.538 164.852 352.333 165.78 352.333C166.897 352.333 167.808 352.609 168.513 353.163C169.219 353.708 169.665 354.48 169.853 355.481H168.084C167.959 354.954 167.705 354.538 167.321 354.235C166.937 353.931 166.419 353.779 165.767 353.779C165.178 353.779 164.669 353.918 164.24 354.195C163.82 354.462 163.494 354.855 163.262 355.373C163.039 355.882 162.927 356.49 162.927 357.195C162.927 357.901 163.039 358.508 163.262 359.017C163.494 359.517 163.82 359.905 164.24 360.182C164.669 360.45 165.178 360.584 165.767 360.584C166.419 360.584 166.937 360.446 167.321 360.169C167.705 359.883 167.959 359.49 168.084 358.99H169.853C169.674 359.937 169.228 360.682 168.513 361.227C167.808 361.763 166.897 362.031 165.78 362.031ZM171.104 361.87V352.225H172.711V356.164C172.935 355.798 173.238 355.507 173.622 355.293C174.006 355.07 174.439 354.958 174.922 354.958C175.475 354.958 175.944 355.074 176.328 355.306C176.712 355.53 177.002 355.865 177.199 356.311C177.404 356.749 177.507 357.298 177.507 357.959V361.87H175.913V358.106C175.913 357.526 175.788 357.084 175.538 356.78C175.297 356.476 174.926 356.324 174.426 356.324C174.105 356.324 173.814 356.405 173.555 356.566C173.296 356.717 173.091 356.941 172.939 357.235C172.787 357.521 172.711 357.874 172.711 358.294V361.87H171.104ZM181.197 362.031C180.643 362.031 180.183 361.937 179.817 361.75C179.451 361.562 179.179 361.312 179 360.999C178.822 360.687 178.732 360.348 178.732 359.981C178.732 359.553 178.839 359.182 179.054 358.87C179.277 358.557 179.603 358.316 180.032 358.146C180.46 357.968 180.987 357.878 181.612 357.878H183.313C183.313 357.521 183.264 357.226 183.166 356.994C183.068 356.753 182.916 356.574 182.711 356.458C182.505 356.342 182.242 356.284 181.92 356.284C181.554 356.284 181.242 356.369 180.983 356.539C180.724 356.7 180.563 356.95 180.5 357.289H178.92C178.973 356.807 179.134 356.396 179.402 356.057C179.67 355.708 180.023 355.44 180.46 355.253C180.907 355.056 181.393 354.958 181.92 354.958C182.554 354.958 183.095 355.07 183.541 355.293C183.988 355.507 184.327 355.82 184.559 356.231C184.8 356.633 184.921 357.119 184.921 357.691V361.87H183.555L183.394 360.785C183.305 360.964 183.188 361.129 183.046 361.281C182.912 361.433 182.755 361.566 182.577 361.683C182.398 361.79 182.193 361.875 181.961 361.937C181.737 362 181.483 362.031 181.197 362.031ZM181.559 360.758C181.818 360.758 182.045 360.714 182.242 360.624C182.447 360.526 182.621 360.392 182.764 360.222C182.916 360.044 183.032 359.847 183.113 359.633C183.193 359.419 183.247 359.191 183.273 358.95V358.923H181.786C181.474 358.923 181.215 358.963 181.009 359.044C180.804 359.115 180.657 359.222 180.567 359.365C180.478 359.508 180.433 359.673 180.433 359.861C180.433 360.048 180.478 360.209 180.567 360.343C180.657 360.477 180.786 360.58 180.956 360.651C181.126 360.723 181.327 360.758 181.559 360.758ZM189.199 361.87C188.744 361.87 188.347 361.799 188.007 361.656C187.677 361.513 187.418 361.276 187.23 360.946C187.043 360.615 186.949 360.169 186.949 359.606V356.472H185.797V355.119H186.949L187.137 353.337H188.557V355.119H190.392V356.472H188.557V359.606C188.557 359.946 188.628 360.182 188.771 360.316C188.923 360.441 189.173 360.504 189.521 360.504H190.351V361.87H189.199Z" fill="white"/>
<mask id="mask0_440_54227" style="mask-type:alpha" maskUnits="userSpaceOnUse" x="164" y="320" width="24" height="21">
<path fill-rule="evenodd" clip-rule="evenodd" d="M187.213 320.753H164.709V340.846H187.213V320.753ZM173.014 330.8C173.014 331.17 172.873 331.525 172.622 331.787C172.371 332.048 172.03 332.195 171.675 332.195C171.319 332.195 170.979 332.048 170.727 331.787C170.476 331.525 170.335 331.17 170.335 330.8C170.335 330.43 170.476 330.075 170.727 329.813C170.979 329.552 171.319 329.405 171.675 329.405C172.03 329.405 172.371 329.552 172.622 329.813C172.873 330.075 173.014 330.43 173.014 330.8ZM177.301 330.8C177.301 331.17 177.159 331.525 176.908 331.787C176.657 332.048 176.316 332.195 175.961 332.195C175.606 332.195 175.265 332.048 175.014 331.787C174.763 331.525 174.622 331.17 174.622 330.8C174.622 330.43 174.763 330.075 175.014 329.813C175.265 329.552 175.606 329.405 175.961 329.405C176.316 329.405 176.657 329.552 176.908 329.813C177.159 330.075 177.301 330.43 177.301 330.8ZM180.248 332.195C180.603 332.195 180.944 332.048 181.195 331.787C181.446 331.525 181.587 331.17 181.587 330.8C181.587 330.43 181.446 330.075 181.195 329.813C180.944 329.552 180.603 329.405 180.248 329.405C179.892 329.405 179.552 329.552 179.3 329.813C179.049 330.075 178.908 330.43 178.908 330.8C178.908 331.17 179.049 331.525 179.3 331.787C179.552 332.048 179.892 332.195 180.248 332.195Z" fill="#D9D9D9"/>
</mask>
<g mask="url(#mask0_440_54227)">
<path d="M166.049 329.405C166.049 327.628 166.726 325.925 167.932 324.669C169.138 323.413 170.773 322.707 172.478 322.707H179.444C181.149 322.707 182.785 323.413 183.99 324.669C185.196 325.925 185.874 327.628 185.874 329.405V332.195C185.874 333.972 185.196 335.675 183.99 336.931C182.785 338.187 181.149 338.893 179.444 338.893H166.049V329.405Z" fill="white" stroke="#F8F8F8" stroke-width="1.67442" stroke-linejoin="round"/>
</g>
<path d="M256.486 361.87V352.493H262.474V353.793H258.094V356.539H261.67V357.811H258.094V361.87H256.486ZM266.351 362.031C265.681 362.031 265.091 361.888 264.582 361.602C264.073 361.308 263.676 360.897 263.39 360.37C263.104 359.843 262.962 359.236 262.962 358.548C262.962 357.834 263.1 357.209 263.377 356.673C263.663 356.137 264.06 355.717 264.569 355.414C265.087 355.11 265.685 354.958 266.364 354.958C267.025 354.958 267.601 355.105 268.092 355.4C268.583 355.695 268.963 356.092 269.231 356.592C269.499 357.084 269.632 357.637 269.632 358.253C269.632 358.343 269.632 358.441 269.632 358.548C269.632 358.655 269.624 358.767 269.606 358.883H264.114V357.852H268.012C267.994 357.36 267.829 356.976 267.516 356.7C267.203 356.414 266.815 356.271 266.351 356.271C266.02 356.271 265.717 356.347 265.44 356.499C265.163 356.65 264.944 356.878 264.783 357.182C264.623 357.476 264.542 357.852 264.542 358.307V358.695C264.542 359.115 264.618 359.477 264.77 359.78C264.931 360.084 265.145 360.316 265.413 360.477C265.69 360.629 265.998 360.705 266.337 360.705C266.712 360.705 267.02 360.624 267.262 360.464C267.512 360.303 267.695 360.089 267.811 359.821H269.445C269.32 360.24 269.115 360.62 268.829 360.959C268.543 361.29 268.19 361.553 267.771 361.75C267.351 361.937 266.878 362.031 266.351 362.031ZM270.849 361.87V355.119H272.282L272.429 356.378C272.59 356.083 272.791 355.833 273.032 355.628C273.273 355.414 273.555 355.248 273.876 355.132C274.207 355.016 274.568 354.958 274.961 354.958V356.659H274.399C274.131 356.659 273.876 356.695 273.635 356.766C273.394 356.829 273.184 356.936 273.005 357.088C272.836 357.231 272.702 357.432 272.604 357.691C272.505 357.941 272.456 358.258 272.456 358.642V361.87H270.849ZM275.905 361.87V355.119H277.338L277.486 356.378C277.646 356.083 277.847 355.833 278.088 355.628C278.33 355.414 278.611 355.248 278.932 355.132C279.263 355.016 279.624 354.958 280.017 354.958V356.659H279.455C279.187 356.659 278.932 356.695 278.691 356.766C278.45 356.829 278.24 356.936 278.062 357.088C277.892 357.231 277.758 357.432 277.66 357.691C277.562 357.941 277.512 358.258 277.512 358.642V361.87H275.905ZM283.212 362.031C282.658 362.031 282.198 361.937 281.832 361.75C281.466 361.562 281.193 361.312 281.015 360.999C280.836 360.687 280.747 360.348 280.747 359.981C280.747 359.553 280.854 359.182 281.068 358.87C281.292 358.557 281.618 358.316 282.046 358.146C282.475 357.968 283.002 357.878 283.627 357.878H285.328C285.328 357.521 285.279 357.226 285.181 356.994C285.082 356.753 284.931 356.574 284.725 356.458C284.52 356.342 284.256 356.284 283.935 356.284C283.569 356.284 283.256 356.369 282.997 356.539C282.738 356.7 282.578 356.95 282.515 357.289H280.934C280.988 356.807 281.149 356.396 281.417 356.057C281.685 355.708 282.037 355.44 282.475 355.253C282.921 355.056 283.408 354.958 283.935 354.958C284.569 354.958 285.109 355.07 285.556 355.293C286.002 355.507 286.342 355.82 286.574 356.231C286.815 356.633 286.936 357.119 286.936 357.691V361.87H285.569L285.408 360.785C285.319 360.964 285.203 361.129 285.06 361.281C284.926 361.433 284.77 361.566 284.591 361.683C284.413 361.79 284.207 361.875 283.975 361.937C283.752 362 283.497 362.031 283.212 362.031ZM283.573 360.758C283.832 360.758 284.06 360.714 284.256 360.624C284.462 360.526 284.636 360.392 284.779 360.222C284.931 360.044 285.047 359.847 285.127 359.633C285.208 359.419 285.261 359.191 285.288 358.95V358.923H283.801C283.488 358.923 283.229 358.963 283.024 359.044C282.819 359.115 282.671 359.222 282.582 359.365C282.493 359.508 282.448 359.673 282.448 359.861C282.448 360.048 282.493 360.209 282.582 360.343C282.671 360.477 282.801 360.58 282.97 360.651C283.14 360.723 283.341 360.758 283.573 360.758ZM288.385 361.87V355.119H289.805L289.939 356.043C290.153 355.704 290.435 355.44 290.783 355.253C291.14 355.056 291.546 354.958 292.002 354.958C292.341 354.958 292.645 355.003 292.913 355.092C293.19 355.181 293.431 355.315 293.636 355.494C293.85 355.673 294.025 355.896 294.159 356.164C294.409 355.789 294.735 355.494 295.136 355.28C295.538 355.065 295.976 354.958 296.449 354.958C297.012 354.958 297.49 355.074 297.882 355.306C298.275 355.53 298.575 355.865 298.78 356.311C298.985 356.749 299.088 357.289 299.088 357.932V361.87H297.494V358.093C297.494 357.521 297.378 357.084 297.146 356.78C296.914 356.476 296.57 356.324 296.114 356.324C295.802 356.324 295.525 356.4 295.284 356.552C295.052 356.704 294.868 356.927 294.735 357.222C294.601 357.508 294.534 357.86 294.534 358.28V361.87H292.94V358.093C292.94 357.521 292.823 357.084 292.591 356.78C292.359 356.476 292.011 356.324 291.546 356.324C291.252 356.324 290.984 356.4 290.743 356.552C290.511 356.704 290.327 356.927 290.194 357.222C290.06 357.508 289.993 357.86 289.993 358.28V361.87H288.385ZM303.68 362.031C303.01 362.031 302.421 361.888 301.912 361.602C301.402 361.308 301.005 360.897 300.719 360.37C300.434 359.843 300.291 359.236 300.291 358.548C300.291 357.834 300.429 357.209 300.706 356.673C300.992 356.137 301.389 355.717 301.898 355.414C302.416 355.11 303.014 354.958 303.693 354.958C304.354 354.958 304.93 355.105 305.421 355.4C305.912 355.695 306.292 356.092 306.56 356.592C306.828 357.084 306.962 357.637 306.962 358.253C306.962 358.343 306.962 358.441 306.962 358.548C306.962 358.655 306.953 358.767 306.935 358.883H301.443V357.852H305.341C305.323 357.36 305.158 356.976 304.845 356.7C304.533 356.414 304.144 356.271 303.68 356.271C303.349 356.271 303.046 356.347 302.769 356.499C302.492 356.65 302.273 356.878 302.112 357.182C301.952 357.476 301.871 357.852 301.871 358.307V358.695C301.871 359.115 301.947 359.477 302.099 359.78C302.26 360.084 302.474 360.316 302.742 360.477C303.019 360.629 303.327 360.705 303.666 360.705C304.041 360.705 304.349 360.624 304.591 360.464C304.841 360.303 305.024 360.089 305.14 359.821H306.774C306.649 360.24 306.444 360.62 306.158 360.959C305.872 361.29 305.519 361.553 305.1 361.75C304.68 361.937 304.207 362.031 303.68 362.031ZM308.178 361.87V355.119H309.598L309.718 356.244C309.924 355.851 310.218 355.539 310.602 355.306C310.986 355.074 311.442 354.958 311.969 354.958C312.513 354.958 312.978 355.074 313.362 355.306C313.746 355.53 314.041 355.86 314.246 356.298C314.46 356.735 314.567 357.28 314.567 357.932V361.87H312.96V358.079C312.96 357.517 312.835 357.084 312.585 356.78C312.335 356.476 311.964 356.324 311.473 356.324C311.152 356.324 310.861 356.4 310.602 356.552C310.352 356.704 310.151 356.927 310 357.222C309.857 357.508 309.785 357.856 309.785 358.267V361.87H308.178ZM318.928 361.87C318.472 361.87 318.075 361.799 317.736 361.656C317.405 361.513 317.146 361.276 316.959 360.946C316.771 360.615 316.677 360.169 316.677 359.606V356.472H315.525V355.119H316.677L316.865 353.337H318.285V355.119H320.12V356.472H318.285V359.606C318.285 359.946 318.356 360.182 318.499 360.316C318.651 360.441 318.901 360.504 319.249 360.504H320.08V361.87H318.928ZM323.615 362.031C323.061 362.031 322.601 361.937 322.235 361.75C321.869 361.562 321.597 361.312 321.418 360.999C321.239 360.687 321.15 360.348 321.15 359.981C321.15 359.553 321.257 359.182 321.472 358.87C321.695 358.557 322.021 358.316 322.449 358.146C322.878 357.968 323.405 357.878 324.03 357.878H325.731C325.731 357.521 325.682 357.226 325.584 356.994C325.486 356.753 325.334 356.574 325.128 356.458C324.923 356.342 324.66 356.284 324.338 356.284C323.972 356.284 323.659 356.369 323.4 356.539C323.141 356.7 322.981 356.95 322.918 357.289H321.338C321.391 356.807 321.552 356.396 321.82 356.057C322.088 355.708 322.44 355.44 322.878 355.253C323.325 355.056 323.811 354.958 324.338 354.958C324.972 354.958 325.512 355.07 325.959 355.293C326.405 355.507 326.745 355.82 326.977 356.231C327.218 356.633 327.339 357.119 327.339 357.691V361.87H325.972L325.812 360.785C325.722 360.964 325.606 361.129 325.463 361.281C325.329 361.433 325.173 361.566 324.995 361.683C324.816 361.79 324.611 361.875 324.378 361.937C324.155 362 323.901 362.031 323.615 362.031ZM323.976 360.758C324.235 360.758 324.463 360.714 324.66 360.624C324.865 360.526 325.039 360.392 325.182 360.222C325.334 360.044 325.45 359.847 325.53 359.633C325.611 359.419 325.664 359.191 325.691 358.95V358.923H324.204C323.892 358.923 323.633 358.963 323.427 359.044C323.222 359.115 323.075 359.222 322.985 359.365C322.896 359.508 322.851 359.673 322.851 359.861C322.851 360.048 322.896 360.209 322.985 360.343C323.075 360.477 323.204 360.58 323.374 360.651C323.543 360.723 323.744 360.758 323.976 360.758ZM331.481 362.031C330.882 362.031 330.36 361.937 329.914 361.75C329.476 361.553 329.128 361.285 328.869 360.946C328.619 360.598 328.471 360.2 328.427 359.754H330.034C330.079 359.941 330.159 360.115 330.275 360.276C330.391 360.428 330.548 360.548 330.744 360.638C330.949 360.727 331.191 360.772 331.467 360.772C331.735 360.772 331.954 360.736 332.124 360.665C332.293 360.584 332.418 360.481 332.499 360.356C332.579 360.231 332.619 360.097 332.619 359.955C332.619 359.74 332.561 359.575 332.445 359.459C332.329 359.343 332.159 359.254 331.936 359.191C331.722 359.12 331.463 359.053 331.159 358.99C330.838 358.928 330.525 358.852 330.222 358.762C329.927 358.664 329.659 358.544 329.418 358.401C329.186 358.258 328.998 358.075 328.855 357.852C328.721 357.628 328.654 357.356 328.654 357.034C328.654 356.641 328.757 356.289 328.962 355.976C329.177 355.664 329.48 355.418 329.873 355.239C330.275 355.052 330.753 354.958 331.307 354.958C332.093 354.958 332.718 355.141 333.182 355.507C333.655 355.865 333.932 356.369 334.013 357.021H332.485C332.441 356.771 332.316 356.579 332.11 356.445C331.905 356.302 331.633 356.231 331.293 356.231C330.945 356.231 330.677 356.298 330.49 356.432C330.311 356.557 330.222 356.726 330.222 356.941C330.222 357.075 330.275 357.2 330.382 357.316C330.498 357.423 330.664 357.517 330.878 357.597C331.092 357.668 331.356 357.74 331.668 357.811C332.168 357.91 332.61 358.026 332.994 358.16C333.378 358.294 333.682 358.49 333.905 358.749C334.129 359.008 334.24 359.374 334.24 359.847C334.249 360.276 334.138 360.656 333.905 360.986C333.682 361.316 333.365 361.575 332.954 361.763C332.543 361.942 332.052 362.031 331.481 362.031Z" fill="white" fill-opacity="0.5"/>
<path fill-rule="evenodd" clip-rule="evenodd" d="M293.094 319.637H299.948C300.176 319.637 300.351 319.637 300.504 319.654C301.911 319.804 302.987 320.959 303.052 322.358C304.289 322.727 305.17 323.871 305.186 325.183C305.81 325.371 306.348 325.666 306.789 326.142C307.466 326.873 307.676 327.775 307.684 328.827C307.691 329.839 307.511 331.118 307.287 332.707L306.831 335.94C306.656 337.182 306.514 338.191 306.292 338.982C306.061 339.809 305.72 340.489 305.088 341.013C304.461 341.532 303.717 341.755 302.838 341.861C301.988 341.963 300.919 341.963 299.588 341.963H293.454C292.123 341.963 291.054 341.963 290.204 341.861C289.325 341.755 288.581 341.532 287.954 341.013C287.322 340.489 286.981 339.809 286.749 338.982C286.528 338.191 286.386 337.182 286.211 335.94L285.755 332.707C285.531 331.118 285.351 329.839 285.358 328.827C285.366 327.775 285.576 326.873 286.253 326.142C286.694 325.666 287.232 325.371 287.856 325.184C287.872 323.871 288.753 322.727 289.989 322.358C290.055 320.959 291.131 319.804 292.537 319.654C292.69 319.637 292.865 319.637 293.094 319.637ZM289.448 324.91C290.41 324.829 291.588 324.829 293.007 324.829H300.035C301.453 324.829 302.632 324.829 303.593 324.91C303.451 324.279 302.887 323.791 302.192 323.791H290.849C290.154 323.791 289.591 324.279 289.448 324.91ZM300.338 321.202C300.91 321.264 301.361 321.689 301.472 322.233H291.57C291.681 321.689 292.132 321.264 292.703 321.202C292.762 321.196 292.845 321.195 293.137 321.195H299.905C300.196 321.195 300.28 321.196 300.338 321.202ZM287.396 327.2C287.711 326.86 288.184 326.635 289.103 326.513C290.038 326.388 291.291 326.387 293.066 326.387H299.976C301.751 326.387 303.003 326.388 303.939 326.513C304.858 326.635 305.331 326.86 305.646 327.2C305.953 327.532 306.119 327.984 306.126 328.839C306.133 329.722 305.971 330.886 305.735 332.553L305.296 335.668C305.112 336.978 304.982 337.883 304.792 338.562C304.609 339.215 304.394 339.565 304.094 339.813C303.79 340.065 303.38 340.227 302.652 340.314C301.906 340.404 300.931 340.405 299.537 340.405H293.505C292.111 340.405 291.136 340.404 290.389 340.314C289.661 340.227 289.252 340.065 288.948 339.813C288.648 339.565 288.432 339.215 288.249 338.562C288.059 337.883 287.93 336.978 287.746 335.668L287.306 332.553C287.071 330.886 286.909 329.722 286.916 328.839C286.922 327.984 287.089 327.532 287.396 327.2Z" fill="white" fill-opacity="0.5"/>
<path d="M386.138 361.87V352.493H389.808C390.469 352.493 391.018 352.596 391.456 352.801C391.902 353.007 392.237 353.293 392.46 353.659C392.684 354.016 392.795 354.431 392.795 354.905C392.795 355.378 392.692 355.775 392.487 356.097C392.282 356.418 392.009 356.664 391.67 356.833C391.34 357.003 390.978 357.106 390.585 357.142L390.786 356.994C391.206 357.003 391.581 357.115 391.911 357.329C392.25 357.543 392.518 357.825 392.715 358.173C392.911 358.512 393.009 358.892 393.009 359.312C393.009 359.803 392.889 360.245 392.648 360.638C392.416 361.022 392.072 361.325 391.616 361.549C391.161 361.763 390.603 361.87 389.942 361.87H386.138ZM387.745 360.557H389.701C390.228 360.557 390.639 360.432 390.933 360.182C391.228 359.932 391.375 359.584 391.375 359.137C391.375 358.691 391.223 358.338 390.92 358.079C390.616 357.811 390.201 357.677 389.674 357.677H387.745V360.557ZM387.745 356.458H389.58C390.098 356.458 390.491 356.342 390.759 356.11C391.027 355.869 391.161 355.539 391.161 355.119C391.161 354.708 391.027 354.387 390.759 354.154C390.491 353.913 390.094 353.793 389.567 353.793H387.745V356.458ZM394.294 361.87V355.119H395.902V361.87H394.294ZM395.098 354.047C394.804 354.047 394.558 353.958 394.361 353.779C394.174 353.592 394.08 353.364 394.08 353.096C394.08 352.819 394.174 352.596 394.361 352.426C394.558 352.248 394.804 352.158 395.098 352.158C395.393 352.158 395.634 352.248 395.822 352.426C396.018 352.596 396.116 352.819 396.116 353.096C396.116 353.364 396.018 353.592 395.822 353.779C395.634 353.958 395.393 354.047 395.098 354.047ZM401.349 362.031C400.992 362.031 400.671 361.982 400.385 361.884C400.099 361.794 399.849 361.669 399.635 361.508C399.421 361.339 399.242 361.147 399.099 360.932L398.925 361.87H397.492V352.225H399.099V356.11C399.313 355.78 399.604 355.507 399.97 355.293C400.336 355.07 400.791 354.958 401.336 354.958C401.97 354.958 402.528 355.114 403.01 355.427C403.502 355.731 403.886 356.15 404.162 356.686C404.448 357.213 404.591 357.82 404.591 358.508C404.591 359.178 404.453 359.78 404.176 360.316C403.899 360.852 403.515 361.272 403.024 361.575C402.542 361.879 401.983 362.031 401.349 362.031ZM401.015 360.638C401.39 360.638 401.725 360.548 402.019 360.37C402.314 360.182 402.542 359.932 402.702 359.62C402.872 359.298 402.957 358.923 402.957 358.494C402.957 358.075 402.872 357.704 402.702 357.383C402.542 357.061 402.314 356.811 402.019 356.633C401.725 356.454 401.39 356.365 401.015 356.365C400.631 356.365 400.291 356.454 399.997 356.633C399.711 356.811 399.483 357.061 399.313 357.383C399.153 357.704 399.072 358.075 399.072 358.494C399.072 358.923 399.153 359.298 399.313 359.62C399.483 359.932 399.711 360.182 399.997 360.37C400.291 360.548 400.631 360.638 401.015 360.638ZM405.884 361.87V352.225H407.491V361.87H405.884ZM409.084 361.87V355.119H410.691V361.87H409.084ZM409.888 354.047C409.593 354.047 409.347 353.958 409.151 353.779C408.963 353.592 408.869 353.364 408.869 353.096C408.869 352.819 408.963 352.596 409.151 352.426C409.347 352.248 409.593 352.158 409.888 352.158C410.182 352.158 410.423 352.248 410.611 352.426C410.807 352.596 410.906 352.819 410.906 353.096C410.906 353.364 410.807 353.592 410.611 353.779C410.423 353.958 410.182 354.047 409.888 354.047ZM415.429 362.031C414.786 362.031 414.205 361.884 413.687 361.589C413.178 361.285 412.777 360.87 412.482 360.343C412.196 359.807 412.053 359.196 412.053 358.508C412.053 357.802 412.201 357.186 412.495 356.659C412.79 356.124 413.192 355.708 413.701 355.414C414.219 355.11 414.799 354.958 415.442 354.958C416.085 354.958 416.661 355.11 417.17 355.414C417.688 355.708 418.09 356.119 418.376 356.646C418.67 357.173 418.818 357.789 418.818 358.494C418.818 359.2 418.67 359.816 418.376 360.343C418.081 360.87 417.675 361.285 417.157 361.589C416.648 361.884 416.072 362.031 415.429 362.031ZM415.429 360.651C415.75 360.651 416.041 360.571 416.299 360.41C416.567 360.249 416.782 360.008 416.942 359.687C417.103 359.365 417.184 358.968 417.184 358.494C417.184 358.021 417.103 357.628 416.942 357.316C416.791 356.994 416.581 356.753 416.313 356.592C416.054 356.432 415.764 356.351 415.442 356.351C415.13 356.351 414.839 356.432 414.571 356.592C414.304 356.753 414.089 356.994 413.929 357.316C413.768 357.628 413.687 358.021 413.687 358.494C413.687 358.968 413.768 359.365 413.929 359.687C414.089 360.008 414.299 360.249 414.558 360.41C414.826 360.571 415.116 360.651 415.429 360.651ZM422.795 361.87C422.34 361.87 421.943 361.799 421.603 361.656C421.273 361.513 421.014 361.276 420.826 360.946C420.639 360.615 420.545 360.169 420.545 359.606V356.472H419.393V355.119H420.545L420.733 353.337H422.152V355.119H423.988V356.472H422.152V359.606C422.152 359.946 422.224 360.182 422.367 360.316C422.519 360.441 422.769 360.504 423.117 360.504H423.947V361.87H422.795ZM428.223 362.031C427.553 362.031 426.964 361.888 426.455 361.602C425.946 361.308 425.549 360.897 425.263 360.37C424.977 359.843 424.834 359.236 424.834 358.548C424.834 357.834 424.973 357.209 425.249 356.673C425.535 356.137 425.933 355.717 426.442 355.414C426.96 355.11 427.558 354.958 428.237 354.958C428.897 354.958 429.473 355.105 429.965 355.4C430.456 355.695 430.835 356.092 431.103 356.592C431.371 357.084 431.505 357.637 431.505 358.253C431.505 358.343 431.505 358.441 431.505 358.548C431.505 358.655 431.496 358.767 431.478 358.883H425.986V357.852H429.884C429.866 357.36 429.701 356.976 429.389 356.7C429.076 356.414 428.688 356.271 428.223 356.271C427.893 356.271 427.589 356.347 427.312 356.499C427.036 356.65 426.817 356.878 426.656 357.182C426.495 357.476 426.415 357.852 426.415 358.307V358.695C426.415 359.115 426.491 359.477 426.643 359.78C426.803 360.084 427.018 360.316 427.286 360.477C427.562 360.629 427.87 360.705 428.21 360.705C428.585 360.705 428.893 360.624 429.134 360.464C429.384 360.303 429.567 360.089 429.683 359.821H431.318C431.193 360.24 430.987 360.62 430.701 360.959C430.416 361.29 430.063 361.553 429.643 361.75C429.223 361.937 428.75 362.031 428.223 362.031ZM435.923 362.031C435.262 362.031 434.668 361.884 434.141 361.589C433.623 361.285 433.217 360.87 432.922 360.343C432.637 359.807 432.494 359.2 432.494 358.521C432.494 357.816 432.637 357.2 432.922 356.673C433.217 356.137 433.623 355.717 434.141 355.414C434.668 355.11 435.266 354.958 435.936 354.958C436.776 354.958 437.481 355.181 438.053 355.628C438.624 356.065 438.99 356.668 439.151 357.436H437.463C437.374 357.097 437.186 356.829 436.901 356.633C436.624 356.436 436.293 356.338 435.909 356.338C435.579 356.338 435.275 356.423 434.999 356.592C434.731 356.762 434.516 357.008 434.356 357.329C434.204 357.651 434.128 358.039 434.128 358.494C434.128 358.843 434.173 359.151 434.262 359.419C434.351 359.687 434.476 359.914 434.637 360.102C434.807 360.281 434.999 360.419 435.213 360.517C435.427 360.615 435.659 360.665 435.909 360.665C436.168 360.665 436.401 360.624 436.606 360.544C436.82 360.455 436.999 360.325 437.142 360.156C437.294 359.986 437.401 359.785 437.463 359.553H439.151C438.99 360.303 438.624 360.906 438.053 361.361C437.481 361.808 436.771 362.031 435.923 362.031ZM442.684 362.031C442.13 362.031 441.67 361.937 441.304 361.75C440.938 361.562 440.665 361.312 440.487 360.999C440.308 360.687 440.219 360.348 440.219 359.981C440.219 359.553 440.326 359.182 440.54 358.87C440.764 358.557 441.089 358.316 441.518 358.146C441.947 357.968 442.474 357.878 443.099 357.878H444.8C444.8 357.521 444.751 357.226 444.653 356.994C444.554 356.753 444.403 356.574 444.197 356.458C443.992 356.342 443.728 356.284 443.407 356.284C443.041 356.284 442.728 356.369 442.469 356.539C442.21 356.7 442.049 356.95 441.987 357.289H440.406C440.46 356.807 440.621 356.396 440.889 356.057C441.156 355.708 441.509 355.44 441.947 355.253C442.393 355.056 442.88 354.958 443.407 354.958C444.041 354.958 444.581 355.07 445.028 355.293C445.474 355.507 445.814 355.82 446.046 356.231C446.287 356.633 446.407 357.119 446.407 357.691V361.87H445.041L444.88 360.785C444.791 360.964 444.675 361.129 444.532 361.281C444.398 361.433 444.242 361.566 444.063 361.683C443.885 361.79 443.679 361.875 443.447 361.937C443.224 362 442.969 362.031 442.684 362.031ZM443.045 360.758C443.304 360.758 443.532 360.714 443.728 360.624C443.934 360.526 444.108 360.392 444.251 360.222C444.403 360.044 444.519 359.847 444.599 359.633C444.679 359.419 444.733 359.191 444.76 358.95V358.923H443.273C442.96 358.923 442.701 358.963 442.496 359.044C442.291 359.115 442.143 359.222 442.054 359.365C441.965 359.508 441.92 359.673 441.92 359.861C441.92 360.048 441.965 360.209 442.054 360.343C442.143 360.477 442.273 360.58 442.442 360.651C442.612 360.723 442.813 360.758 443.045 360.758Z" fill="white" fill-opacity="0.5"/>
<g clip-path="url(#clip1_440_54227)">
<mask id="mask1_440_54227" style="mask-type:luminance" maskUnits="userSpaceOnUse" x="402" y="317" width="28" height="28">
<path d="M402.566 317.405H429.356V344.195H402.566V317.405Z" fill="white"/>
</mask>
<g mask="url(#mask1_440_54227)">
<path d="M426.008 327.172C426.008 327.021 425.88 326.893 425.729 326.893H415.403C415.086 326.893 414.796 326.714 414.654 326.43L413.211 323.545H407.031V337.777C407.031 337.929 407.158 338.056 407.31 338.056H425.729C425.88 338.056 426.008 337.929 426.008 337.777V327.172ZM427.682 337.777C427.682 338.853 426.805 339.731 425.729 339.731H407.31C406.234 339.731 405.356 338.853 405.356 337.777V322.707C405.356 322.245 405.731 321.87 406.194 321.87H413.729L413.846 321.879C414.116 321.917 414.353 322.085 414.477 322.333L415.921 325.219H425.729C426.805 325.219 427.682 326.096 427.682 327.172V337.777Z" fill="white" fill-opacity="0.5"/>
</g>
</g>
<path d="M523.029 362.031C522.1 362.031 521.297 361.83 520.618 361.428C519.948 361.017 519.43 360.45 519.064 359.727C518.707 358.995 518.528 358.151 518.528 357.195C518.528 356.231 518.707 355.387 519.064 354.663C519.43 353.931 519.948 353.36 520.618 352.949C521.297 352.538 522.1 352.333 523.029 352.333C524.145 352.333 525.056 352.609 525.762 353.163C526.467 353.708 526.914 354.48 527.101 355.481H525.333C525.208 354.954 524.954 354.538 524.57 354.235C524.186 353.931 523.668 353.779 523.016 353.779C522.426 353.779 521.917 353.918 521.489 354.195C521.069 354.462 520.743 354.855 520.511 355.373C520.288 355.882 520.176 356.49 520.176 357.195C520.176 357.901 520.288 358.508 520.511 359.017C520.743 359.517 521.069 359.905 521.489 360.182C521.917 360.45 522.426 360.584 523.016 360.584C523.668 360.584 524.186 360.446 524.57 360.169C524.954 359.883 525.208 359.49 525.333 358.99H527.101C526.923 359.937 526.476 360.682 525.762 361.227C525.056 361.763 524.145 362.031 523.029 362.031ZM531.501 362.031C530.858 362.031 530.277 361.884 529.759 361.589C529.25 361.285 528.848 360.87 528.554 360.343C528.268 359.807 528.125 359.196 528.125 358.508C528.125 357.802 528.272 357.186 528.567 356.659C528.862 356.124 529.264 355.708 529.773 355.414C530.291 355.11 530.871 354.958 531.514 354.958C532.157 354.958 532.733 355.11 533.242 355.414C533.76 355.708 534.162 356.119 534.448 356.646C534.742 357.173 534.89 357.789 534.89 358.494C534.89 359.2 534.742 359.816 534.448 360.343C534.153 360.87 533.747 361.285 533.229 361.589C532.72 361.884 532.144 362.031 531.501 362.031ZM531.501 360.651C531.822 360.651 532.112 360.571 532.371 360.41C532.639 360.249 532.854 360.008 533.014 359.687C533.175 359.365 533.255 358.968 533.255 358.494C533.255 358.021 533.175 357.628 533.014 357.316C532.863 356.994 532.653 356.753 532.385 356.592C532.126 356.432 531.836 356.351 531.514 356.351C531.201 356.351 530.911 356.432 530.643 356.592C530.375 356.753 530.161 356.994 530 357.316C529.84 357.628 529.759 358.021 529.759 358.494C529.759 358.968 529.84 359.365 530 359.687C530.161 360.008 530.371 360.249 530.63 360.41C530.898 360.571 531.188 360.651 531.501 360.651ZM536.195 361.87V355.119H537.615L537.736 356.244C537.941 355.851 538.236 355.539 538.62 355.306C539.004 355.074 539.459 354.958 539.986 354.958C540.531 354.958 540.995 355.074 541.379 355.306C541.763 355.53 542.058 355.86 542.263 356.298C542.478 356.735 542.585 357.28 542.585 357.932V361.87H540.977V358.079C540.977 357.517 540.852 357.084 540.602 356.78C540.352 356.476 539.982 356.324 539.491 356.324C539.169 356.324 538.879 356.4 538.62 356.552C538.37 356.704 538.169 356.927 538.017 357.222C537.874 357.508 537.803 357.856 537.803 358.267V361.87H536.195ZM546.945 361.87C546.49 361.87 546.092 361.799 545.753 361.656C545.423 361.513 545.164 361.276 544.976 360.946C544.789 360.615 544.695 360.169 544.695 359.606V356.472H543.543V355.119H544.695L544.882 353.337H546.302V355.119H548.137V356.472H546.302V359.606C546.302 359.946 546.374 360.182 546.517 360.316C546.668 360.441 546.918 360.504 547.267 360.504H548.097V361.87H546.945ZM551.632 362.031C551.079 362.031 550.619 361.937 550.253 361.75C549.886 361.562 549.614 361.312 549.435 360.999C549.257 360.687 549.168 360.348 549.168 359.981C549.168 359.553 549.275 359.182 549.489 358.87C549.712 358.557 550.038 358.316 550.467 358.146C550.896 357.968 551.422 357.878 552.048 357.878H553.749C553.749 357.521 553.7 357.226 553.601 356.994C553.503 356.753 553.351 356.574 553.146 356.458C552.941 356.342 552.677 356.284 552.356 356.284C551.99 356.284 551.677 356.369 551.418 356.539C551.159 356.7 550.998 356.95 550.936 357.289H549.355C549.409 356.807 549.569 356.396 549.837 356.057C550.105 355.708 550.458 355.44 550.896 355.253C551.342 355.056 551.829 354.958 552.356 354.958C552.99 354.958 553.53 355.07 553.976 355.293C554.423 355.507 554.762 355.82 554.995 356.231C555.236 356.633 555.356 357.119 555.356 357.691V361.87H553.99L553.829 360.785C553.74 360.964 553.624 361.129 553.481 361.281C553.347 361.433 553.191 361.566 553.012 361.683C552.833 361.79 552.628 361.875 552.396 361.937C552.173 362 551.918 362.031 551.632 362.031ZM551.994 360.758C552.253 360.758 552.481 360.714 552.677 360.624C552.883 360.526 553.057 360.392 553.2 360.222C553.351 360.044 553.467 359.847 553.548 359.633C553.628 359.419 553.682 359.191 553.709 358.95V358.923H552.222C551.909 358.923 551.65 358.963 551.445 359.044C551.239 359.115 551.092 359.222 551.003 359.365C550.913 359.508 550.869 359.673 550.869 359.861C550.869 360.048 550.913 360.209 551.003 360.343C551.092 360.477 551.222 360.58 551.391 360.651C551.561 360.723 551.762 360.758 551.994 360.758Z" fill="white" fill-opacity="0.5"/>
<mask id="mask2_440_54227" style="mask-type:luminance" maskUnits="userSpaceOnUse" x="524" y="317" width="28" height="28">
<path d="M524.241 317.405H551.032V344.195H524.241V317.405Z" fill="white"/>
</mask>
<g mask="url(#mask2_440_54227)">
<path d="M537.636 341.126C540.375 341.126 543.001 340.038 544.938 338.101C546.874 336.165 547.962 333.539 547.962 330.8C547.962 328.062 546.874 325.435 544.938 323.499C543.001 321.562 540.375 320.475 537.636 320.475C534.898 320.475 532.272 321.562 530.335 323.499C528.399 325.435 527.311 328.062 527.311 330.8C527.311 333.539 528.399 336.165 530.335 338.101C532.272 340.038 534.898 341.126 537.636 341.126Z" stroke="white" stroke-opacity="0.5" stroke-width="1.67442" stroke-miterlimit="10" stroke-linecap="round"/>
<path fill-rule="evenodd" clip-rule="evenodd" d="M530.877 338.606L531.064 338.348C531.503 337.74 532.081 337.244 532.75 336.902C533.418 336.56 534.158 336.382 534.909 336.381H540.365C541.115 336.382 541.856 336.56 542.524 336.902C543.193 337.244 543.771 337.74 544.21 338.348L544.397 338.605C544.825 338.234 545.223 337.828 545.585 337.392L545.568 337.368C544.973 336.545 544.191 335.874 543.286 335.411C542.382 334.948 541.381 334.707 540.365 334.707H534.909C533.893 334.707 532.892 334.948 531.988 335.411C531.083 335.873 530.301 336.544 529.706 337.367L529.688 337.392C530.052 337.829 530.448 338.234 530.877 338.606Z" fill="white" fill-opacity="0.5"/>
<path d="M534.567 327.451C534.567 326.637 534.89 325.856 535.466 325.28C536.041 324.705 536.822 324.381 537.636 324.381C538.451 324.381 539.231 324.705 539.807 325.28C540.383 325.856 540.706 326.637 540.706 327.451V329.126C540.706 329.94 540.383 330.72 539.807 331.296C539.231 331.872 538.451 332.195 537.636 332.195C536.822 332.195 536.041 331.872 535.466 331.296C534.89 330.72 534.567 329.94 534.567 329.126V327.451Z" stroke="white" stroke-opacity="0.5" stroke-width="1.67442" stroke-linejoin="round"/>
</g>
<rect width="177.92" height="6.4" rx="3.2" transform="matrix(-1 0 0 1 445.76 394.354)" fill="white"/>
</g>
<rect x="117.3" y="113.3" width="479" height="297" rx="26.2907" stroke="white" stroke-opacity="0.43" shape-rendering="crispEdges"/>
</g>
<defs>
<filter id="filter0_d_440_54227" x="4.57764e-05" y="-0.000198364" width="713.6" height="531.6" filterUnits="userSpaceOnUse" color-interpolation-filters="sRGB">
<feFlood flood-opacity="0" result="BackgroundImageFix"/>
<feColorMatrix in="SourceAlpha" type="matrix" values="0 0 0 0 0 0 0 0 0 0 0 0 0 0 0 0 0 0 127 0" result="hardAlpha"/>
<feOffset dy="4"/>
<feGaussianBlur stdDeviation="58.4"/>
<feComposite in2="hardAlpha" operator="out"/>
<feColorMatrix type="matrix" values="0 0 0 0 0.357093 0 0 0 0 0.552995 0 0 0 0 0.813176 0 0 0 0.31 0"/>
<feBlend mode="normal" in2="BackgroundImageFix" result="effect1_dropShadow_440_54227"/>
<feBlend mode="normal" in="BackgroundImageFix" in2="effect1_dropShadow_440_54227" result="BackgroundImageFix"/>
<feBlend mode="normal" in="SourceGraphic" in2="BackgroundImageFix" result="shape"/>
</filter>
<filter id="filter1_f_440_54227" x="73.1062" y="98.9844" width="522.455" height="230.059" filterUnits="userSpaceOnUse" color-interpolation-filters="sRGB">
<feFlood flood-opacity="0" result="BackgroundImageFix"/>
<feBlend mode="normal" in="SourceGraphic" in2="BackgroundImageFix" result="shape"/>
<feGaussianBlur stdDeviation="34.78" result="effect1_foregroundBlur_440_54227"/>
</filter>
<filter id="filter2_d_440_54227" x="593.451" y="-92.2698" width="313.675" height="229.954" filterUnits="userSpaceOnUse" color-interpolation-filters="sRGB">
<feFlood flood-opacity="0" result="BackgroundImageFix"/>
<feColorMatrix in="SourceAlpha" type="matrix" values="0 0 0 0 0 0 0 0 0 0 0 0 0 0 0 0 0 0 127 0" result="hardAlpha"/>
<feOffset dx="37.9535" dy="27.907"/>
<feGaussianBlur stdDeviation="24"/>
<feColorMatrix type="matrix" values="0 0 0 0 0.490196 0 0 0 0 0.545098 0 0 0 0 0.666667 0 0 0 0.04 0"/>
<feBlend mode="normal" in2="BackgroundImageFix" result="effect1_dropShadow_440_54227"/>
<feBlend mode="normal" in="SourceGraphic" in2="effect1_dropShadow_440_54227" result="shape"/>
</filter>
<filter id="filter3_f_440_54227" x="266.098" y="287.87" width="441.922" height="210.952" filterUnits="userSpaceOnUse" color-interpolation-filters="sRGB">
<feFlood flood-opacity="0" result="BackgroundImageFix"/>
<feBlend mode="normal" in="SourceGraphic" in2="BackgroundImageFix" result="shape"/>
<feGaussianBlur stdDeviation="34.78" result="effect1_foregroundBlur_440_54227"/>
</filter>
<filter id="filter4_f_440_54227" x="266.098" y="287.87" width="441.922" height="210.952" filterUnits="userSpaceOnUse" color-interpolation-filters="sRGB">
<feFlood flood-opacity="0" result="BackgroundImageFix"/>
<feBlend mode="normal" in="SourceGraphic" in2="BackgroundImageFix" result="shape"/>
<feGaussianBlur stdDeviation="34.78" result="effect1_foregroundBlur_440_54227"/>
</filter>
<filter id="filter5_f_440_54227" x="65.4988" y="268.157" width="537.209" height="263.558" filterUnits="userSpaceOnUse" color-interpolation-filters="sRGB">
<feFlood flood-opacity="0" result="BackgroundImageFix"/>
<feBlend mode="normal" in="SourceGraphic" in2="BackgroundImageFix" result="shape"/>
<feGaussianBlur stdDeviation="34.78" result="effect1_foregroundBlur_440_54227"/>
</filter>
<linearGradient id="paint0_linear_440_54227" x1="130.195" y1="214.707" x2="562.3" y2="219.8" gradientUnits="userSpaceOnUse">
<stop stop-color="white"/>
<stop offset="1" stop-color="white" stop-opacity="0"/>
</linearGradient>
<linearGradient id="paint1_linear_440_54227" x1="130.195" y1="214.707" x2="583.405" y2="214.707" gradientUnits="userSpaceOnUse">
<stop stop-color="#E6E8EE"/>
<stop offset="1" stop-color="#E6E8EE"/>
</linearGradient>
<radialGradient id="paint2_radial_440_54227" cx="0" cy="0" r="1" gradientUnits="userSpaceOnUse" gradientTransform="translate(549.915 214.707) rotate(90) scale(36.2791)">
<stop offset="0.191187" stop-color="#4369EE"/>
<stop offset="1" stop-color="#4369EE"/>
</radialGradient>
<clipPath id="clip0_440_54227">
<rect x="116.8" y="112.8" width="480" height="298" rx="26.7907" fill="white"/>
</clipPath>
<clipPath id="clip1_440_54227">
<rect width="26.7907" height="26.7907" fill="white" transform="translate(402.566 317.405)"/>
</clipPath>
</defs>
</svg>
